<?xml version="1.0" encoding="UTF-8" standalone="no"?>
<svg
   xmlns:dc="http://purl.org/dc/elements/1.1/"
   xmlns:cc="http://creativecommons.org/ns#"
   xmlns:rdf="http://www.w3.org/1999/02/22-rdf-syntax-ns#"
   xmlns:svg="http://www.w3.org/2000/svg"
   xmlns="http://www.w3.org/2000/svg"
   xmlns:sodipodi="http://sodipodi.sourceforge.net/DTD/sodipodi-0.dtd"
   xmlns:inkscape="http://www.inkscape.org/namespaces/inkscape"
   viewBox="0 0 1000 1000"
   height="1000"
   width="1000"
   version="1.1"
   id="svg1229"
   sodipodi:docname="mastodon.svg"
   inkscape:version="0.92.2 (5c3e80d, 2017-08-06)">
  <metadata
     id="metadata1235">
    <rdf:RDF>
      <cc:Work
         rdf:about="">
        <dc:format>image/svg+xml</dc:format>
        <dc:type
           rdf:resource="http://purl.org/dc/dcmitype/StillImage" />
      </cc:Work>
    </rdf:RDF>
  </metadata>
  <defs
     id="defs1233" />
  <sodipodi:namedview
     pagecolor="#ffffff"
     bordercolor="#666666"
     borderopacity="1"
     objecttolerance="10"
     gridtolerance="10"
     guidetolerance="10"
     inkscape:pageopacity="0"
     inkscape:pageshadow="2"
     inkscape:window-width="862"
     inkscape:window-height="506"
     id="namedview1231"
     showgrid="false"
     inkscape:zoom="0.236"
     inkscape:cx="500"
     inkscape:cy="500"
     inkscape:window-x="0"
     inkscape:window-y="55"
     inkscape:window-maximized="0"
     inkscape:current-layer="svg1229" />
  <g
     fill="#189efc"
     id="g1227"
     style="fill:#cccccc">
    <path
       d="M500 0A500 500 0 0 0 0 500a500 500 0 0 0 500 500 500 500 0 0 0 500-500A500 500 0 0 0 500 0zm-2.5 271.1h107.24c-20.56 14.471-27.24 57.064-27.24 78.927v202.145c0 43.726-35.202 78.928-80 78.928s-80-35.202-80-78.928V350.027c0-43.725 35.202-78.927 80-78.927zm-276 48.9c44.798 0 80 35.202 80 78.928v202.144c0 21.863 6.68 64.456 27.24 78.928H221.5c-44.798 0-80-35.202-80-78.928V398.928c0-43.726 35.202-78.928 80-78.928zm550.24 0c44.799 0 80 35.202 80 78.928v202.144c0 43.726-35.201 78.928-80 78.928H664.5c20.56-14.472 27.24-57.065 27.24-78.928V398.928c0-43.726 35.202-78.928 80-78.928z"
       id="path1201"
       style="fill:#cccccc" />
    <g
       transform="translate(-2)"
       id="g1209"
       style="fill:#cccccc">
      <circle
         cx="223.5"
         cy="410.5"
         r="27.5"
         id="circle1203"
         style="fill:#cccccc" />
      <circle
         cx="223.5"
         cy="500.5"
         r="27.5"
         id="circle1205"
         style="fill:#cccccc" />
      <circle
         cx="223.5"
         cy="590.5"
         r="27.5"
         id="circle1207"
         style="fill:#cccccc" />
    </g>
    <g
       transform="matrix(1 0 0 -1 274 951)"
       id="g1217"
       style="fill:#cccccc">
      <circle
         cx="223.5"
         cy="410.5"
         r="27.5"
         id="circle1211"
         style="fill:#cccccc" />
      <circle
         cx="223.5"
         cy="500.5"
         r="27.5"
         id="circle1213"
         style="fill:#cccccc" />
      <circle
         cx="223.5"
         cy="590.5"
         r="27.5"
         id="circle1215"
         style="fill:#cccccc" />
    </g>
    <g
       transform="matrix(-1 0 0 1 995 0)"
       id="g1225"
       style="fill:#cccccc">
      <circle
         cx="223.5"
         cy="410.5"
         r="27.5"
         id="circle1219"
         style="fill:#cccccc" />
      <circle
         cx="223.5"
         cy="500.5"
         r="27.5"
         id="circle1221"
         style="fill:#cccccc" />
      <circle
         cx="223.5"
         cy="590.5"
         r="27.5"
         id="circle1223"
         style="fill:#cccccc" />
    </g>
  </g>
</svg>
