<?xml version="1.0" encoding="UTF-8" standalone="no"?>
<svg
   xmlns:dc="http://purl.org/dc/elements/1.1/"
   xmlns:cc="http://creativecommons.org/ns#"
   xmlns:rdf="http://www.w3.org/1999/02/22-rdf-syntax-ns#"
   xmlns:svg="http://www.w3.org/2000/svg"
   xmlns="http://www.w3.org/2000/svg"
   xmlns:xlink="http://www.w3.org/1999/xlink"
   width="512"
   height="512"
   viewBox="0 0 135.46666 135.46667"
   version="1.1"
   id="svg5664">
  <defs
     id="defs5658">
    <linearGradient
       gradientTransform="matrix(0.12285609,0,0,0.12285609,-461.47231,177.39542)"
       xlink:href="#linearGradient5532"
       id="linearGradient5534"
       x1="4042.3127"
       y1="411.73773"
       x2="4637.7461"
       y2="52.285156"
       gradientUnits="userSpaceOnUse" />
    <linearGradient
       id="linearGradient5532">
      <stop
         style="stop-color:#666666;stop-opacity:1;"
         offset="0"
         id="stop5528" />
      <stop
         style="stop-color:#666666;stop-opacity:0;"
         offset="1"
         id="stop5530" />
    </linearGradient>
    <linearGradient
       gradientTransform="matrix(0.12285609,0,0,0.12285609,-461.47231,177.39542)"
       xlink:href="#linearGradient5444"
       id="linearGradient5446"
       x1="4311.9971"
       y1="724.5509"
       x2="4408.5776"
       y2="985.97949"
       gradientUnits="userSpaceOnUse" />
    <linearGradient
       id="linearGradient5444">
      <stop
         style="stop-color:#808080;stop-opacity:1;"
         offset="0"
         id="stop5440" />
      <stop
         style="stop-color:#808080;stop-opacity:0;"
         offset="1"
         id="stop5442" />
    </linearGradient>
    <radialGradient
       xlink:href="#linearGradient4825"
       id="radialGradient4827"
       cx="4074.8416"
       cy="588.18628"
       fx="4074.8416"
       fy="588.18628"
       r="138.11401"
       gradientTransform="matrix(0.15485829,-0.01033341,0.00721521,0.10812843,-563.07922,230.91065)"
       gradientUnits="userSpaceOnUse" />
    <linearGradient
       id="linearGradient4825">
      <stop
         style="stop-color:#1d0a0a;stop-opacity:1"
         offset="0"
         id="stop4821" />
      <stop
         style="stop-color:#4e4e4e;stop-opacity:0.98029554"
         offset="1"
         id="stop4823" />
    </linearGradient>
    <linearGradient
       gradientTransform="matrix(0.13104651,0,0,0.13104651,-461.47231,177.39542)"
       xlink:href="#linearGradient5608"
       id="linearGradient5610"
       x1="4286.2681"
       y1="971.80292"
       x2="4270.6943"
       y2="-80.145134"
       gradientUnits="userSpaceOnUse" />
    <linearGradient
       id="linearGradient5608">
      <stop
         style="stop-color:#f2f2f2;stop-opacity:1;"
         offset="0"
         id="stop5604" />
      <stop
         style="stop-color:#f2f2f2;stop-opacity:0.98029554"
         offset="1"
         id="stop5606" />
    </linearGradient>
  </defs>
  <metadata
     id="metadata5661">
    <rdf:RDF>
      <cc:Work
         rdf:about="">
        <dc:format>image/svg+xml</dc:format>
        <dc:type
           rdf:resource="http://purl.org/dc/dcmitype/StillImage" />
        <dc:title></dc:title>
      </cc:Work>
    </rdf:RDF>
  </metadata>
  <g
     id="layer1"
     transform="translate(0,-161.53332)">
    <g
       id="g6311"
       transform="matrix(0.96119773,0,0,0.96119773,-4.4403787,4.5695457)">
      <rect
         ry="0"
         y="162.57391"
         x="1.1053002"
         height="142.17284"
         width="147.46794"
         id="rect4683"
         style="display:inline;opacity:1;fill:url(#linearGradient5610);fill-opacity:1;stroke:none;stroke-width:4.19348812" />
      <path
         id="rect5048"
         d="M 4.1726738,162.57399 86.256144,304.74681 h 6.98599 L 11.158674,162.57399 Z m 13.9720002,0 82.083466,142.17282 h 6.98601 L 25.130434,162.57399 Z m 13.972,0 82.083476,142.17282 h 6.986 L 39.102674,162.57399 Z m 13.972,0 82.083486,142.17282 h 6.98598 L 53.074434,162.57399 Z m 13.97201,0 82.083466,142.17282 h 6.42907 V 303.7822 L 67.046674,162.57399 Z m 13.97199,0 74.540546,129.10808 V 279.58218 L 81.018444,162.57399 Z m 13.97201,0 60.568536,104.90807 V 255.38193 L 94.990444,162.57399 Z m 13.971766,0 46.59677,80.70782 v -12.10013 l -39.61077,-68.60769 z m 13.97223,0 32.62454,56.50757 v -12.10013 l -25.63878,-44.40744 z m 13.97176,0 18.65278,32.30731 v -12.10012 l -11.66653,-20.20719 z m 13.97225,0 4.68053,8.10682 v -8.10682 z M 1.1053438,169.36155 v 12.09989 L 72.284144,304.74681 h 6.986 z m 0,24.20025 v 12.09988 l 57.2067902,99.08513 h 6.986 z m 0,24.20025 v 12.09965 l 43.2348002,74.88511 h 6.986 z m 0,24.20001 v 12.10013 l 29.2627902,50.68462 h 6.98601 z m 0,24.2005 v 12.09964 l 15.2908002,26.48461 h 6.98575 z m 0,24.20001 v 12.10037 l 1.31855,2.28387 h 6.98625 z"
         style="color:#000000;display:inline;overflow:visible;visibility:visible;opacity:1;fill:#ffffff;fill-opacity:0.98029552;fill-rule:nonzero;stroke:none;stroke-width:1.93796873;stroke-linecap:round;stroke-linejoin:round;stroke-miterlimit:4;stroke-dasharray:none;stroke-dashoffset:0;stroke-opacity:1;marker:none;enable-background:accumulate" />
      <path
         id="path4685"
         d="m 69.173384,167.9883 c 1.97879,0.65132 -1.72728,1.58276 -2.87896,1.19328 -2.09058,-1.21615 -5.26942,0.53937 -8.38684,0.27811 0.1986,1.01452 2.76858,1.6907 3.46517,2.41849 -1.2889,0.71531 -2.53591,1.73695 -2.97471,3.21849 -2.16733,-0.5195 -5.18346,-0.90481 -7.02343,0.67403 2.54991,-0.0271 -0.85021,1.91659 -0.56126,2.98238 -0.76385,1.08257 -2.02462,3.61419 -3.1669,1.86804 -0.62778,1.47138 0.71268,2.71562 1.57337,3.72815 -1.42636,-0.63157 -3.33923,-1.00714 -4.61838,0.13486 1.7474,0.0914 -0.63592,2.10618 -0.32273,3.11027 0.73256,0.68331 0.12103,0.94754 0.17157,1.42221 -0.73214,-1.15544 -3.37709,1.25259 -3.61466,-0.99893 -1.20752,0.96776 -0.65496,2.84138 0.13605,3.90452 0.29299,0.82477 -0.51083,1.51354 -0.81297,2.21645 -2.34103,3.69727 -5.94383,6.36311 -8.38971,9.98398 -2.51954,3.33542 -4.62879,7.36601 -4.15672,11.63821 0.15375,2.20448 0.10356,4.43847 -0.43095,6.59056 -0.54702,4.34632 1.13307,8.57928 1.27126,12.88669 -1.63779,3.59327 -3.07974,7.67534 -2.03647,11.62094 1.00538,3.15693 3.00321,5.85464 4.78634,8.59657 1.0378,1.07349 2.22206,2.17829 2.49095,3.72216 2.43603,7.26299 5.84188,14.15507 9.31284,20.96879 0.24773,7.36917 1.68478,16.50948 -0.77022,23.54508 0.71291,16.42419 90.897356,24.9501 60.456576,-1.48339 -2.61089,-2.22858 -3.429077,-19.53814 -1.30461,-20.04745 2.74375,-0.65777 8.92049,-5.57565 10.33848,-10.56329 1.76149,-6.04521 1.82183,-12.38839 2.89383,-18.56255 0.72865,-5.17631 1.06568,-10.60172 -0.85279,-15.57777 -0.39999,-1.03389 -0.15918,-2.13768 0.23564,-3.12803 1.21834,-3.96621 2.11912,-8.05697 2.19724,-12.19802 0.0301,-1.39397 0.15517,-2.81119 0.79186,-4.07034 0.27013,-0.72721 0.50786,-1.47491 0.58452,-2.25028 1.99072,-0.88365 0.78172,-4.41522 1.91555,-5.40207 1.66083,-1.45539 2.08534,-3.90622 1.5321,-5.9638 0.13105,-0.86277 -1.03047,-3.79135 1.18969,-2.08975 0.0721,-1.77215 -1.67092,-2.85885 -3.09541,-3.493 -0.57725,-0.086 -1.3057,-0.61276 -0.87535,-1.24728 0.0835,-1.14962 -2.19878,-4.8294 -0.45326,-3.3783 0.0542,-1.42886 -0.78446,-2.42693 -1.69623,-3.09732 1.16254,-1.32864 0.35162,-3.27602 -0.73305,-4.37531 -1.79818,-1.95339 -4.50081,-2.68372 -7.05775,-2.9447 -0.41624,-1.04763 -1.73519,-1.68132 -1.61226,-2.93535 -0.24029,-1.19442 -4.62356,0.20426 -1.9105,-1.59593 -1.09303,-0.0145 -2.92993,0.20469 -4.02282,0.20947 -0.37543,-0.8793 -1.263896,-1.50064 -2.218612,-1.55129 -4.277024,-7.64624 -12.784984,-8.04038 -11.350744,-9.32603 -1.02446,-0.14716 -3.13619,0.31501 -3.93067,1.039 -0.597,-0.10029 -1.30198,0.44946 -1.81742,-0.096 -0.85178,-0.92207 -4.20248,1.019 -2.69251,-1.1477 -0.71765,0.23197 -1.91953,1.28679 -2.50919,1.73487 -0.64644,0.27017 -1.10791,-0.5113 -1.70175,-0.61332 -1.70077,-0.79526 -3.50583,-1.49597 -5.3632,-1.54842 z m 28.890856,14.79168 c 0.02233,-9.3e-4 0.04485,-4.6e-4 0.06744,0.001 1.016115,0.0322 1.098099,1.7347 0.07966,1.84548 -0.973666,0.24165 -1.453616,-1.2758 -0.586196,-1.70079 0.13453,-0.0777 0.28293,-0.14041 0.439103,-0.14589 z"
         style="display:inline;fill:#000000;fill-opacity:1;fill-rule:evenodd;stroke:none;stroke-width:0.1310465px;stroke-linecap:butt;stroke-linejoin:miter;stroke-opacity:1" />
      <path
         style="display:inline;fill:#999999;fill-opacity:1;fill-rule:evenodd;stroke:none;stroke-width:0.1310465px;stroke-linecap:butt;stroke-linejoin:miter;stroke-opacity:1"
         d="m 69.795614,170.07125 c -0.45632,0 -0.12882,0.39767 0.76043,0.9593 1.77849,1.12325 -0.37453,1.02987 -1.7786,0.28103 -1.40407,-0.74883 -0.65501,0.65505 -2.3399,0.0934 -1.68488,-0.56162 -2.80829,-0.65523 -2.80829,-0.65523 0,0 2.15302,1.02962 2.43384,1.59125 0.2808,0.56162 -0.84259,-0.18718 -4.11876,1.68492 -3.27616,1.87209 0.28089,2.43382 -1.87201,3.08906 -2.15291,0.65523 -4.6802,-1.31058 -6.8331,0.1871 2.22173,-0.20875 4.11867,1.77867 2.7146,1.87227 -1.40407,0.0936 -4.86766,1.87202 -4.86766,1.87202 0,0 3.18264,-0.37438 3.36984,0.37446 0.18721,0.74884 -1.21672,1.77834 -2.43358,1.77834 -1.00715,0 -1.08396,-0.80662 -2.06398,-0.94113 0.52669,0.30921 0.65955,0.8672 0.28539,2.0645 -0.46803,1.49767 0.89298,3.63079 -1.87202,1.96569 -1.12911,-0.67995 -1.02362,-0.0631 -2.24648,-0.0937 0,0 3.93125,1.59143 1.12311,2.15306 -2.80813,0.56163 -1.76497,1.87511 -1.76497,1.87511 0,0 -0.85599,1.58804 -1.88565,1.12002 -0.32279,-0.14672 -0.57194,-0.33922 -0.76195,-0.53468 0.38341,0.65493 0.79106,1.48147 0.57486,1.75172 -0.28483,0.35604 -1.54315,2.82109 -2.2946,4.1057 -2.56952,2.61895 -5.78704,6.10444 -8.4699,9.84128 -5.24186,7.30117 -1.77852,10.57737 -2.99538,14.13434 -1.21686,3.55698 0,6.83325 2.62092,24.71174 2.62094,17.87849 15.81926,39.40737 15.81926,39.40737 l 19.46962,5.71 25.4604,-4.86742 16.193716,-42.77746 c 0,0 5.33542,-15.81918 4.86739,-20.31221 -0.46802,-4.49302 1.59129,-4.11842 1.31047,-7.95621 -0.2104,-1.52577 0.2683,-2.24619 0.385,-3.39019 0.81829,1.11285 1.17215,1.63019 0.75911,2.08349 1.75638,-0.60699 0.6386,-2.76573 0.22752,-4.80386 -0.5295,-2.71373 0.46328,-4.10359 1.45612,-2.9122 0.99281,1.1914 0.74753,2.1887 0.74753,2.1887 0,0 1.00956,-1.52795 0.3849,-3.21162 -0.57811,-1.45097 -2.07727,-1.10765 -2.31355,-2.1408 -0.29388,-1.28501 1.94032,-1.37641 1.94032,-1.37641 0,0 -0.68067,-1.17691 -2.13681,-1.04454 -1.45615,0.13238 -2.06416,-1.29911 -2.06416,-1.29911 0,0 0.89364,-0.62461 1.05912,-1.4561 0.28333,-1.4237 -2.31671,-1.98551 -4.03761,-2.38264 -1.7209,-0.39713 -0.0661,-2.18423 1.39006,-1.65472 1.45615,0.52951 2.51497,1.4561 2.51497,1.4561 0,0 -0.0662,-1.45621 -2.44894,-2.84616 -2.38277,-1.38996 -2.25042,-0.331 -2.64754,-1.5224 -0.39714,-1.19139 3.44175,-0.66188 3.44175,-0.66188 0,0 -1.52234,-0.39714 -2.97849,-0.66189 -1.45614,-0.26476 -1.52227,-1.72075 -0.13232,-1.72075 1.38996,0 3.44175,1.78704 3.44175,1.78704 0,0 -0.72788,-2.25042 -5.49345,-2.97849 -4.76557,-0.72807 -1.66813,-0.16043 -2.72714,-1.61658 -1.05903,-1.45615 -1.23886,-1.2817 -2.09932,-1.8774 -0.86045,-0.59569 -2.47186,1.63757 -2.07472,0.64474 0.39713,-0.99282 1.48144,-1.61402 1.48144,-1.61402 0,0 -4.314263,-0.21055 -5.557196,1.3376 -0.033,-0.42913 -0.0977,-0.88669 -0.20654,-1.36627 0.565787,-0.65686 1.31071,-1.31865 0.990261,-1.39877 -0.170612,-0.0427 -0.637731,0.24632 -1.191181,0.65524 -0.0777,-0.24815 -0.16617,-0.50014 -0.27004,-0.75634 -1.40407,-3.46337 -4.40324,-6.37147 -7.08835,-7.55467 -2.82537,-1.24502 -3.80669,-0.84234 -3.80669,-0.84234 0,0 5.60649,1.91921 5.8108,3.59166 0.21639,1.77144 -0.93479,-0.6673 -2.21699,-1.18018 0,0 2.43372,4.86221 0.65523,3.27093 -1.37516,-2.64616 -5.94752,-4.11955 -6.49182,-5.58409 -0.29611,0.76932 0.58794,1.232 1.24996,2.5887 -2.74367,-2.10228 -3.15989,-2.48437 -4.34426,-3.05993 0,0 2.75283,3.99598 0.88074,3.05993 -1.87209,-0.93604 -2.2464,-2.33989 -3.46326,-2.99513 1.01699,1.20632 2.15294,3.55698 0.37445,2.62093 -1.77849,-0.93604 -0.56174,-0.37452 -5.05476,-2.43383 -2.24651,-1.02965 -3.48659,-1.42743 -3.94291,-1.42743 z m 28.24795,13.63984 c -0.01,0.0118 -0.0724,0.0848 -0.11007,0.129 6e-5,-0.002 0,-0.004 0,-0.006 0.0799,-0.0907 0.129739,-0.14713 0.10981,-0.12286 z"
         id="path4687" />
      <path
         style="display:inline;fill:#ffffff;fill-opacity:1;fill-rule:evenodd;stroke:none;stroke-width:0.1310465px;stroke-linecap:butt;stroke-linejoin:miter;stroke-opacity:1"
         d="m 42.236034,303.69163 c 2.91228,-5.75839 3.30942,-18.79753 2.77991,-25.08543 -0.5295,-6.28791 -2.2504,-11.84774 -3.37561,-14.62765 -1.1252,-2.77992 -1.78709,-3.57418 -1.78709,-3.57418 0,0 -2.25041,-1.32377 -2.51517,-1.78709 -0.26475,-0.46332 -2.11802,-2.77992 -3.24323,-3.17705 -1.1252,-0.39713 -5.82458,-8.14118 -6.02314,-10.3254 -0.19858,-2.18422 1.52233,-9.13401 3.24323,-9.99446 1.7209,-0.86045 4.23606,-1.52233 5.36127,-0.99283 1.1252,0.52951 4.10368,2.3166 4.30224,3.11086 0.19858,0.79426 1.1914,1.98565 1.1914,1.98565 l 2.3166,-0.19856 -0.72809,-5.29508 1.32379,2.11803 c 0,0 0.5295,-10.39159 1.52232,-12.37724 0.99284,-1.98566 4.96414,-8.53832 4.96414,-8.53832 0,0 -2.31659,-7.21454 -0.39713,-9.26639 1.91947,-2.05184 14.76003,-12.70818 28.26247,-11.91392 13.50246,0.79426 21.643646,2.91229 26.078276,11.78155 4.43462,8.86926 5.03032,11.51679 4.89794,14.09814 -0.13237,2.58135 0.5957,4.0375 0.39713,6.75123 -0.19856,2.71373 -0.72806,7.01598 0.46332,10.45778 1.1914,3.4418 1.91946,5.09651 1.85329,9.39876 -0.0662,4.30226 -1.52235,12.84057 -1.91947,17.14282 -0.39714,4.30225 -2.07262,11.10361 -4.12445,13.28782 -2.05185,2.18423 -4.60694,3.82502 -7.188296,4.35453 -1.052524,0.40623 -0.963947,1.34502 -1.060362,2.28452 -0.0857,0.83515 -0.996978,13.16737 1.915328,16.87392 2.9123,3.70656 15.09097,11.78154 15.09097,11.78154 0,0 -0.72807,4.63321 -3.11086,6.48648 -2.38278,1.85327 -9.53114,13.70101 -28.990556,13.17151 -19.45941,-0.52951 -33.62374,-9.33259 -37.26411,-12.642 -3.64036,-3.30942 -6.31395,-9.33519 -5.78444,-11.58559 0.5295,-2.2504 1.54838,-3.70395 1.54838,-3.70395 z"
         id="path4689" />
      <path
         style="display:inline;fill:#cccccc;fill-opacity:1;fill-rule:evenodd;stroke:none;stroke-width:0.1310465px;stroke-linecap:butt;stroke-linejoin:miter;stroke-opacity:1"
         d="m 74.813004,209.20655 c -1.91133,0.0187 -3.98987,0.38981 -6.16789,1.35781 -7.74405,3.4418 -9.59716,4.36842 -11.78138,8.07498 -2.18422,3.70655 -1.85334,6.68521 -0.52956,7.21472 1.32377,0.52951 4.89786,-3.37557 5.22881,-1.4561 l 0.79447,3.24314 c 0,0 2.6475,-1.12515 5.42742,-0.79421 2.77991,0.33094 10.12672,-1.1914 12.97283,-2.64755 2.84611,-1.45614 6.42042,-3.90524 6.02328,-5.69233 -0.39714,-1.78709 0.46321,-5.95698 -1.72101,-6.61887 -1.56991,-0.47573 -5.36248,-2.72944 -10.24697,-2.68159 z m 23.352383,2.88021 c -2.051833,1.1252 -2.978543,4.83187 -3.508053,5.03044 -0.52951,0.19856 -1.45625,0.86025 -1.39006,1.85308 0.0662,0.99283 2.32812,2.46648 2.65574,3.63654 0.32761,1.17006 2.480337,4.63332 3.041963,6.08419 0.561626,1.45087 1.715383,3.3184 1.715383,3.3184 0,0 3.77282,2.9123 5.49371,2.97849 1.7209,0.0662 3.83885,-2.25037 3.90504,-3.44176 0.0662,-1.19139 0.26474,-6.35413 -0.99283,-7.61171 -1.25759,-1.25758 -6.08911,-3.17706 -5.62579,-4.96415 0.46331,-1.78709 6.88352,1.91963 6.88352,1.91963 0,0 -4.30232,-6.22175 -6.1556,-6.61888 -1.85328,-0.39713 -6.023023,-2.18427 -6.023023,-2.18427 z"
         id="path4693" />
      <path
         style="display:inline;fill:#b3b3b3;fill-rule:evenodd;stroke:none;stroke-width:0.1310465px;stroke-linecap:butt;stroke-linejoin:miter;stroke-opacity:1"
         d="m 70.088014,212.1231 c -4.53982,0.98285 -6.87994,1.45088 -5.66309,2.15291 1.21688,0.70204 4.72705,0.42122 6.36513,-0.0468 1.63808,-0.46802 2.57412,-0.98285 1.59127,-1.54448 -0.98285,-0.56163 -0.18719,-0.84244 -2.29331,-0.56163 z"
         id="path4695" />
      <path
         style="display:inline;fill:#333333;fill-rule:evenodd;stroke:none;stroke-width:0.1310465px;stroke-linecap:butt;stroke-linejoin:miter;stroke-opacity:1"
         d="m 79.261164,206.81111 c 0,0 1.40411,1.80192 0.86588,1.52111 -0.53822,-0.28081 -2.43362,-1.56792 -4.77373,-1.35731 -2.34012,0.21061 -14.18102,4.28227 -15.30429,7.67544 7.18417,-3.29956 10.20284,-3.53357 12.84717,-3.76759 2.64432,-0.23401 6.50549,-0.53826 6.50549,-0.86587 0,-0.32762 1.63819,1.02968 2.10621,0.70207 0.46803,-0.32762 1.7315,0.79575 2.05912,0.46813 0.32762,-0.32762 -0.6084,-2.29331 -0.6084,-2.29331 l 0.93602,0.70207 -1.82518,-2.3637 c 0,0 0.67864,1.31061 0.16381,1.33401 -0.51483,0.0234 -2.9721,-1.75505 -2.9721,-1.75505 z m 19.947484,3.73559 c -0.17917,0.002 -0.38411,0.0262 -0.618122,0.0788 -1.872092,0.42122 -1.965692,1.7783 -0.982852,2.05912 0.982852,0.28081 2.340153,0.42136 4.961076,1.82543 3.55699,1.91889 7.8628,6.87994 7.8628,6.87994 l 0.0937,-1.40414 c 0,0 -1.45092,-1.68488 -1.68493,-1.9657 -0.23401,-0.28081 0.56155,0.14052 0.56155,0.14052 0,0 -1.49767,-1.87224 -1.63807,-2.15306 -0.14041,-0.28081 -0.93587,-1.82529 -1.73151,-2.29331 -0.79563,-0.46802 0.84233,0 0.84233,0 0,0 -2.05919,-2.52718 -4.44611,-2.76119 -1.66496,-0.16323 -1.96269,0.21954 -1.99104,0.46634 0.0229,0.10955 0.0254,0.1889 0.0254,0.1889 0,0 -0.0376,-0.0819 -0.0254,-0.1889 -0.064,-0.30654 -0.30485,-0.88269 -1.228807,-0.87279 z"
         id="path4697" />
      <path
         style="display:inline;fill:#cccccc;fill-rule:evenodd;stroke:none;stroke-width:0.1310465px;stroke-linecap:butt;stroke-linejoin:miter;stroke-opacity:1"
         d="m 67.467084,220.29011 c 0.93605,-0.86584 3.79099,-1.17006 5.10146,-0.81904 1.31046,0.35102 4.04841,1.87209 3.8846,2.38692 -0.16381,0.51482 -1.7083,-1.70829 -4.35262,-1.75509 -2.64434,-0.0468 -4.35262,0.49142 -4.63344,0.18721 z"
         id="path4699" />
      <path
         style="display:inline;fill:#cccccc;fill-opacity:1;fill-rule:evenodd;stroke:none;stroke-width:0.1310465px;stroke-linecap:butt;stroke-linejoin:miter;stroke-opacity:1"
         d="m 81.221044,235.25275 c -0.26475,-1.38996 0.0331,-6.68504 9.03473,-5.1627 3.35456,0.65711 2.2882,1.15183 4.43462,1.22448 2.14644,0.0727 2.8792,-0.89354 3.408723,-1.62162 0.529503,-0.72807 0.529503,2.44898 1.522327,2.77992 0.992836,0.33094 1.787096,1.65471 1.257586,3.30942 -0.52952,1.65471 -1.059026,3.04467 -3.243246,3.37562 -2.18422,0.33094 -5.31026,0.79634 -8.33974,-0.33095 -2.5495,-0.94869 -7.29404,-4.01346 -8.075,-3.57417 z"
         id="path4701" />
      <path
         style="display:inline;fill:#cccccc;fill-opacity:1;fill-rule:evenodd;stroke:none;stroke-width:0.1310465px;stroke-linecap:butt;stroke-linejoin:miter;stroke-opacity:1"
         d="m 80.757734,234.98799 c 0,0 4.43462,5.55983 5.95695,5.89078 1.52234,0.33094 0.46333,0.72807 2.51516,1.32377 2.05185,0.59569 5.75841,0 7.08217,0.99282 1.32377,0.99283 3.441813,2.11803 3.441813,2.11803 0,0 -4.037503,-6.42028 -2.118043,-6.48647 1.919469,-0.0662 8.869256,11.71537 8.803076,13.30389 -0.0662,1.58852 1.38996,4.10368 -0.66189,4.10368 -2.05185,0 -4.23606,-0.72807 -3.64037,0.26476 0.5957,0.99282 4.89796,4.16987 3.24323,4.83176 -1.65471,0.66188 -5.29507,-5.49365 -6.685028,-4.6332 -1.389958,0.86046 -3.772738,3.24324 -1.853278,4.6332 1.919469,1.38996 6.155536,2.91229 5.162716,3.90512 -0.99284,0.99283 -3.706563,-0.52951 -7.876436,-0.0662 0,0 -17.53995,1.78709 -20.31986,1.19139 -2.77992,-0.59569 -5.62603,-9.00163 -10.45779,-10.45778 -4.83176,-1.45614 -12.17868,-2.77992 -12.84057,-4.76557 -0.66187,-1.98565 -4.83176,-9.39876 -6.55265,-9.13401 -1.7209,0.26476 -0.66189,14.76003 2.97848,20.58462 3.64036,5.82458 6.02314,10.65635 10.52396,11.71536 4.50082,1.05901 37.50061,6.45625 40.49288,5.85975 3.164626,-0.63086 7.590916,-2.67897 8.682446,-5.78018 1.55387,-4.41475 2.69413,-8.12225 3.09475,-12.04269 0.40541,-3.96717 1.76166,-13.87233 1.76166,-13.87233 0.23401,-1.76987 -7.6998,-12.22293 -10.61208,-12.75243 -2.912296,-0.52951 -19.260846,-1.58853 -19.260846,-1.58853 z"
         id="path4691" />
      <path
         style="display:inline;fill:url(#radialGradient4827);fill-opacity:1;fill-rule:evenodd;stroke:none;stroke-width:0.1310465px;stroke-linecap:butt;stroke-linejoin:miter;stroke-opacity:1"
         d="m 82.490744,226.51493 c 0,0 -3.34651,1.02957 -3.29971,2.19963 0.0468,1.17006 0.53827,2.10611 0.37446,2.62093 -0.16381,0.51483 -0.81894,2.38677 0.46812,3.25262 1.28708,0.86584 1.96958,1.53661 3.98207,1.39953 0,0 -1.31282,-0.34796 -2.36754,-1.16534 -1.04763,-0.8119 -1.6381,-2.15294 -1.35729,-2.99538 0.28082,-0.84245 -0.51472,-2.57428 -0.35091,-2.9721 0.16381,-0.39782 2.5508,-2.33989 2.5508,-2.33989 z m -6.78652,9.33706 c 0,0 -5.74795,4.06302 -7.10521,7.33918 -1.35728,3.27617 0.55288,7.63749 0.55288,7.63749 -0.32761,-4.58663 -0.26319,-5.80068 1.74931,-9.35765 2.0125,-3.55698 4.80302,-5.61902 4.80302,-5.61902 z m 9.64139,6.27129 c -2.71454,-0.0936 -6.50557,2.94858 -8.89247,4.30585 -2.38692,1.35727 -3.88464,4.30596 -3.97825,5.1016 -0.0936,0.79564 3.69747,0.65523 3.69747,0.65523 3.88458,0 10.76442,-0.28096 14.27459,-0.18735 3.51017,0.0936 6.87673,0.40765 7.999984,0.64166 1.123252,0.23401 3.607112,3.8047 3.607112,3.8047 0,0 1.78608,0.05 2.2073,-0.18402 0.42122,-0.23402 -1.97344,-3.37299 -2.72228,-3.79421 -0.74884,-0.42122 -1.591164,-4.96109 -3.13564,-6.92678 -1.544486,-1.9657 -5.101496,-1.31058 -7.254406,-1.7786 -2.1529,-0.46802 -3.08887,-1.54447 -5.80341,-1.63808 z"
         id="path4703" />
      <path
         style="display:inline;fill:#999999;fill-rule:evenodd;stroke:none;stroke-width:0.1310465px;stroke-linecap:butt;stroke-linejoin:miter;stroke-opacity:1"
         d="m 71.046434,215.91142 c -4.92095,0.022 -8.82132,5.01048 -8.82132,5.01048 0.0936,-0.0936 4.51662,-5.14833 9.07984,-4.51649 4.56322,0.63183 6.4118,3.27616 6.4118,3.27616 0,0 -1.40409,-3.62719 -6.43535,-3.76759 -0.0786,-0.002 -0.15685,-0.003 -0.23497,-0.002 z m 1.5805,2.0755 c -3.52166,-0.0285 -7.99716,1.94332 -9.84,3.21576 -1.9657,1.35727 -1.87228,1.96569 -1.87228,1.96569 0,0 2.5742,-1.49756 4.02507,-1.49756 1.05803,0.0298 2.10494,0.17898 3.27616,0.28078 0,0 -3.53361,-0.32755 -2.50396,-1.21679 1.02966,-0.88924 5.28999,-2.3117 7.50625,-1.73969 2.31473,0.59742 4.77932,3.70539 4.40491,4.033 -0.37443,0.32762 -1.49756,0.1871 -1.49756,0.1871 0,0 3.18248,0.702 3.18248,0.28078 0,-0.42122 -2.38674,-5.14818 -5.99052,-5.4758 -0.22523,-0.0205 -0.45578,-0.0314 -0.69055,-0.0333 z m 28.393836,2.74967 c -2.626655,0.0824 -3.530066,2.36165 -3.530066,2.36165 0,0 1.872169,-2.9251 5.663166,-1.42743 2.87367,1.13529 4.22595,3.18231 4.71306,4.10775 -0.42541,-0.24436 -0.97845,-0.54678 -1.19631,-0.58639 -0.36404,-0.0662 -0.69517,-0.49654 -0.69517,-0.49654 l 1.32379,0.36421 c 0,0 -0.2317,-0.52955 -1.42309,-0.8605 -1.1914,-0.33094 -1.75398,-0.59577 -1.22448,-0.62887 0.52952,-0.0331 0.13246,-0.2979 -2.01867,-0.19862 -2.15112,0.0993 -5.791376,1.35705 -5.791376,1.35705 l 0.89351,1.58843 c 0,-0.76117 4.169726,-2.5813 6.254666,-1.78704 2.08493,0.79426 3.01163,3.77257 2.84616,4.26899 -0.16548,0.49641 -1.35679,0.56258 -1.35679,0.56258 0,0 1.02597,0.69508 1.52239,0.39723 0.49642,-0.29785 0.59559,-0.56268 1.25749,-0.29792 0.66187,0.26475 1.19144,0.33094 1.19144,0.33094 0,0 -1.2908,-0.72802 -1.48938,-1.12516 -0.19856,-0.39713 -0.19861,-0.46327 -0.19861,-0.46327 l 0.72818,0.56258 c 0,0 -0.82744,-1.35697 -0.95982,-1.39007 -0.13237,-0.0331 0,-0.33094 0,-0.33094 l 1.48938,-0.36396 c 0,0 -0.79438,1e-4 -1.39006,-0.26465 -0.5957,-0.26476 -0.72793,-0.79421 -0.72793,-0.79421 0,0 0.49629,-0.13251 0.82724,0.16534 0.076,0.0684 0.1517,0.11963 0.22369,0.16023 0.095,0.19427 0.13822,0.30944 0.13822,0.30944 0,0 -0.0418,-0.11509 -0.11979,-0.29793 0.23313,0.12617 0.41977,0.12619 0.41977,0.12619 0,0 -0.22281,-0.1331 -0.49092,-0.28769 -0.50854,-1.12508 -2.08778,-4.0062 -5.23802,-4.85256 -0.60983,-0.16384 -1.15525,-0.22412 -1.64167,-0.20886 z"
         id="path4709" />
      <path
         style="display:inline;fill:#808080;fill-rule:evenodd;stroke:none;stroke-width:0.1310465px;stroke-linecap:butt;stroke-linejoin:miter;stroke-opacity:1"
         d="m 86.513484,234.16632 c 3.3813,-0.0117 3.84901,0.15019 4.44863,-0.93399 0.54551,-0.98635 -0.42455,-2.10667 -2.67496,-2.04048 -2.25041,0.0662 -3.75669,0.35434 -3.88906,1.67811 -0.13238,1.32377 2.11539,1.29636 2.11539,1.29636 z"
         id="path4711" />
      <path
         style="display:inline;fill:#808080;fill-rule:evenodd;stroke:none;stroke-width:0.1310465px;stroke-linecap:butt;stroke-linejoin:miter;stroke-opacity:1"
         d="m 96.507934,233.11394 c 1.42747,-0.0234 2.527325,2.94855 2.199707,3.43998 -0.327614,0.49142 -2.176317,0.60843 -2.503927,0.37442 -0.32762,-0.23402 -1.45087,-1.38067 -1.21686,-2.15291 0.23401,-0.77224 0.88924,-1.68488 1.52108,-1.66149 z"
         id="path4713" />
      <path
         style="display:inline;fill:#cccccc;fill-opacity:1;fill-rule:evenodd;stroke:none;stroke-width:0.12682688px;stroke-linecap:butt;stroke-linejoin:miter;stroke-opacity:1"
         d="m 81.320574,301.89797 c 8.33081,-6.13717 16.38081,-21.56773 16.38081,-21.56773 0,0 7.113956,-2.32335 6.926756,-3.68229 -0.18721,-1.35895 -2.27313,-9.48122 -9.246666,-9.96343 -6.97355,-0.4822 -31.89894,7.11269 -38.38541,5.50083 -6.48648,-1.61186 -12.57581,-14.32076 -12.57581,-18.59839 -0.0468,4.57741 0.99281,5.33153 -0.99282,5.95148 -1.98566,0.61995 12.17867,13.63882 12.64198,15.49866 0.46333,1.85984 1.52234,11.655 3.30943,11.28302 1.78709,-0.37195 6.02316,-1.92183 7.61168,-0.18598 1.58852,1.73585 1.39045,21.29852 14.33005,15.76383 z"
         id="path4715" />
      <path
         id="rect5178"
         d="m 90.706084,267.01823 -2.24909,0.42448 8.36717,14.49221 c 0.55948,-0.99851 0.87727,-1.6048 0.87727,-1.6048 0,0 0.24604,-0.083 0.576365,-0.19748 z m -4.49842,0.84895 -2.24908,0.42424 10.34319,17.91491 c 0.46634,-0.75185 0.895,-1.46157 1.27704,-2.10799 z m 7.50598,0.0401 6.617686,11.4621 c 0.65832,-0.26171 1.35253,-0.55715 1.99377,-0.86696 l -5.603626,-9.70611 z m -12.00438,0.80865 -2.24908,0.42447 12.1961,21.1243 c 0.46649,-0.68009 0.91319,-1.34979 1.33823,-2.00241 z m -4.34483,1.11458 -2.09527,0.69011 13.60775,23.56965 c 0.48198,-0.62303 0.95153,-1.25187 1.40804,-1.88075 z m 22.911466,0.80264 3.90211,6.75853 c 0.13551,-0.11677 0.24327,-0.23097 0.32082,-0.34193 l -1.00852,-2.20062 -2.1939,-3.55418 z m -27.102486,0.57781 -2.09576,0.69011 14.85144,25.72371 c 0.5071,-0.55827 1.00707,-1.13578 1.49802,-1.7255 z m -4.19151,1.38046 -2.09575,0.6901 15.86163,27.47346 c 0.54585,-0.46982 1.08862,-0.97298 1.62592,-1.50427 z m -4.19174,1.38021 -2.36475,0.22411 16.45001,28.4923 c 0.66246,-0.13808 1.36673,-0.35282 2.11662,-0.65411 z m -4.72972,0.44799 -2.36498,0.22411 6.18864,10.71896 c 1.06777,-0.0959 2.07408,-0.009 2.77049,0.47822 z m -3.69025,2.24884 c 0.29036,1.7519 0.68963,4.34579 1.22089,6.43435 l 1.84931,3.20338 c 0.55589,-0.11989 1.32687,-0.34151 2.17974,-0.5447 z m 11.07241,10.53755 c 0.42753,1.5397 0.83259,4.35859 1.65856,7.19284 l 4.17567,7.23244 c 0.89842,0.66975 1.95285,1.11047 3.19929,1.22136 z"
         style="color:#000000;display:inline;overflow:visible;visibility:visible;opacity:1;fill:url(#linearGradient5446);fill-opacity:1;fill-rule:nonzero;stroke:none;stroke-width:1.28653038;stroke-linecap:round;stroke-linejoin:round;stroke-miterlimit:4;stroke-dasharray:none;stroke-dashoffset:0;stroke-opacity:1;marker:none;enable-background:accumulate" />
      <path
         style="display:inline;fill:#808080;fill-rule:evenodd;stroke:none;stroke-width:0.1310465px;stroke-linecap:butt;stroke-linejoin:miter;stroke-opacity:1"
         d="m 84.993794,261.66195 c 0.72807,-0.0662 3.30943,-1.85328 7.21455,-1.19139 3.90511,0.66188 5.36125,1.05901 5.626,0.39713 0.264773,-0.66189 2.779936,-1.65471 2.316606,-2.64754 -0.463315,-0.99283 -0.21371,-2.08436 -2.729326,-2.91229 -2.61445,-0.86045 -1.80458,-0.13238 -6.80182,-0.33095 -4.99362,-0.19842 -10.06065,-0.38227 -10.06065,-0.38227 -1.21694,0.5679 3.20609,1.11445 4.6332,2.16936 1.38387,1.02295 -2.18421,3.77274 -0.19856,4.89795 z"
         id="path4717" />
      <path
         style="display:inline;fill:#999999;fill-opacity:1;fill-rule:evenodd;stroke:none;stroke-width:0.1310465px;stroke-linecap:butt;stroke-linejoin:miter;stroke-opacity:1"
         d="m 42.500784,251.40274 c 0,0 0.72807,-2.11803 -0.5957,-2.9123 -1.32376,-0.79426 -1.91946,-3.30942 -1.7209,-3.77274 0.19856,-0.46332 -0.79426,-3.30943 -1.1914,-3.30943 -0.39712,0 -2.58133,-6.22171 -5.0965,-5.09651 -2.51516,1.1252 -5.1627,5.09651 -4.69938,7.01598 0.46332,1.91947 1.78708,4.23606 2.51516,4.63319 0.72807,0.39713 0.33094,-11.25204 2.2504,-8.47212 1.91948,2.77992 3.44181,0.66188 3.17705,1.98565 -0.26475,1.32377 -5.29507,4.76557 -3.17705,7.08217 2.11804,2.3166 4.83176,-0.19857 6.02316,1.19139 1.1914,1.38996 2.25041,2.84611 2.51516,1.65472 z"
         id="path4719" />
      <path
         style="display:inline;fill:#e6e6e6;fill-rule:evenodd;stroke:none;stroke-width:0.1310465px;stroke-linecap:butt;stroke-linejoin:miter;stroke-opacity:1"
         d="m 84.461294,246.54201 c -0.66222,0.019 -1.44274,0.32271 -1.98258,0.65779 -0.95973,0.59569 -0.23164,2.84616 -0.23164,2.84616 0,0 -0.56278,-0.99291 -1.0261,-1.6217 -0.46332,-0.62879 -1.88618,-0.16555 -2.18402,0.6949 -0.29785,0.86046 0.76094,2.87919 0.76094,2.87919 0,0 1.98573,-0.23153 2.61453,-0.16534 0.62879,0.0662 0.0663,-0.82749 0.0663,-0.82749 0,0 0.33084,0.19862 0.59559,0.52956 0.26476,0.33094 3.14401,0.13251 3.40876,0.1656 0.26475,0.0331 0.066,-0.56258 0.066,-0.56258 0,0 0.29798,0.23151 0.49654,0.39698 0.19857,0.16547 3.21026,0.39705 3.70667,0.36396 0.49642,-0.0331 0.62862,-0.5956 0.62862,-0.5956 0,0 0.19861,0.33093 0.52956,0.56259 0.33094,0.23165 2.87929,0.29785 3.27641,0.33094 0.39714,0.0331 0.39698,-1.48925 0.39698,-1.32378 0,0.16547 -0.52956,0.69491 -0.52956,0.69491 l 0.0993,-0.56258 c 0.23166,-0.36404 0.0994,-1.38996 -0.72793,-2.31661 -0.82735,-0.92663 -1.55545,-0.69492 -2.41591,-0.46327 -0.55099,0.14835 -0.63953,0.94459 -0.6327,1.50064 0.0102,0.27932 0.0371,0.55132 0.0371,0.55132 0,0 -0.0333,-0.23903 -0.0371,-0.55132 -0.005,-0.14686 -0.008,-0.29446 0.004,-0.40849 0.0331,-0.33095 -0.33077,-1.15836 -0.95956,-1.85334 -0.62879,-0.69498 -3.30949,-0.79411 -3.839,-0.72792 -0.5295,0.0662 -0.43025,2.08497 -0.43025,2.08497 0,0 -0.0662,-0.66208 -0.52956,-1.68799 -0.2027,-0.44885 -0.64618,-0.60627 -1.16126,-0.5915 z m -7.71101,3.74608 c -0.33122,-0.006 -0.62791,0.0267 -0.82441,0.0888 -0.62879,0.19856 0.26491,1.65471 0.26491,1.65471 l 3.0778,0.066 c 0,0 -6e-5,-0.36407 -0.52956,-1.09214 -0.36404,-0.50055 -1.26004,-0.70374 -1.98874,-0.71743 z"
         id="path4721" />
      <path
         id="path4735"
         d="m 43.628524,252.50749 c 0,0 4.21951,12.03803 7.81852,16.3196 3.599,4.28157 6.45337,5.02619 11.4175,4.28157 4.96414,-0.74462 26.32058,-7.76087 32.94946,-5.77081 6.356916,1.90842 8.314926,8.93545 8.314926,8.93545 0,0 -2.7424,-6.00587 -7.197986,-7.198 -10.02196,-2.68145 -33.69408,8.00467 -39.7131,6.76364 -6.01902,-1.24104 -10.36264,-10.42469 -13.58932,-23.33145 z"
         style="display:inline;fill:#808080;fill-rule:evenodd;stroke:none;stroke-width:0.12285609px;stroke-linecap:butt;stroke-linejoin:miter;stroke-opacity:1;fill-opacity:1" />
      <path
         id="path5516"
         d="m 69.795574,170.07133 c -0.45631,0 -0.12884,0.39771 0.76042,0.95933 1.77849,1.12326 -0.37446,1.02983 -1.77854,0.28099 -0.0152,-0.008 -0.0268,-0.0125 -0.0415,-0.0202 l 13.05899,22.6192 c 1.03205,0.0779 2.02773,0.16753 2.99293,0.26946 l -13.73901,-23.79689 c -0.61935,-0.21551 -1.03111,-0.31193 -1.25328,-0.31193 z m -6.16632,0.67835 c 0,0 2.15303,1.02974 2.43386,1.59137 0.20807,0.41617 -0.35762,0.11514 -1.99618,0.69178 l 11.98111,20.75189 c 0.92824,-0.069 1.86357,-0.0917 2.80313,-0.059 l -12.99155,-22.50163 c -1.35832,-0.40075 -2.23037,-0.47438 -2.23037,-0.47438 z m 17.37215,0.49718 c 0,0 2.75272,3.99593 0.88064,3.05988 -0.0275,-0.0137 -0.0536,-0.0278 -0.0804,-0.0417 l 12.58818,21.80312 c 1.3646,0.45728 2.62528,0.99862 3.785996,1.64344 L 84.118144,173.36282 c -1.62644,-1.25257 -2.15005,-1.64614 -3.11675,-2.11591 z m 5.79655,0.31122 c -0.32148,0.005 -0.45951,0.0617 -0.45951,0.0617 0,0 1.68547,0.57854 3.24202,1.37565 l -0.56654,-0.98093 c -1.09647,-0.38271 -1.80702,-0.46294 -2.21597,-0.45639 z m -11.98255,0.43456 13.03379,22.57528 c 1.10659,0.16681 2.16346,0.35975 3.17338,0.58237 l -12.25946,-21.23395 c -1.52375,-0.8031 -1.00734,-0.5754 -3.94771,-1.9237 z m 15.11682,2.03864 c 0,0 2.4338,4.86208 0.65532,3.2708 -0.60021,-1.15493 -1.80966,-2.08628 -3.02726,-2.89119 l 16.802016,29.10177 c 0.35675,0.55249 0.69416,1.13701 1.01308,1.75454 l 8.69232,15.05563 c 0.16975,-1.40352 0.70028,-2.09848 1.04427,-3.10547 L 90.288324,174.22132 c -1e-4,-6e-5 0,-1.8e-4 0,-2.4e-4 -0.11679,-0.0768 -0.23574,-0.14176 -0.35585,-0.1898 z m -28.09301,0.0576 c -2.71612,1.60299 -0.37432,2.22678 -1.22353,2.79474 l 10.25274,17.75846 c 0.83163,-0.21034 1.67575,-0.38955 2.5291,-0.53365 z m 31.49219,0.4895 4.53176,7.84912 c -0.0369,-0.29336 -0.0876,-0.59684 -0.15884,-0.91087 0.565785,-0.65687 1.310723,-1.31881 0.990278,-1.39892 -0.170611,-0.0427 -0.637658,0.24639 -1.191128,0.65531 -0.0777,-0.24815 -0.16608,-0.50014 -0.26995,-0.75633 -0.85383,-2.10612 -2.29786,-4.00589 -3.90212,-5.43831 z m -38.20344,2.14663 c -0.0905,0.001 -0.1807,0.006 -0.27067,0.0132 l 0.60684,1.05123 c 0.8349,0.46884 1.24492,1.12419 0.76569,1.32598 l 9.86616,17.089 c 0.76462,-0.30566 1.54657,-0.59256 2.34362,-0.85496 l -10.51331,-18.20982 c -0.92704,-0.15892 -1.87576,-0.42696 -2.79833,-0.41463 z m -1.33487,3.08435 c -0.91879,0.36826 -1.75769,0.76827 -2.25315,1.01189 l 0.10102,0.17492 c 0.91905,-0.0687 2.67719,-0.12704 2.81512,0.42472 0.14604,0.58409 -0.67658,1.3367 -1.62281,1.64056 l 8.78927,15.2236 c 0.71026,-0.37637 1.446,-0.74397 2.20396,-1.09731 z m 49.230986,1.72839 0.1279,0.22196 c 0.18394,-0.13637 0.31626,-0.21452 0.31626,-0.21452 0,0 -0.18737,-0.006 -0.44416,-0.007 z m -2.70811,0.22388 c -0.894553,0.1705 -1.763242,0.46492 -2.273796,0.97565 l 17.392296,30.12446 c 0.10843,-0.5719 0.27943,-1.07062 0.34312,-1.69503 0.8183,1.11284 1.17225,1.63021 0.75922,2.08351 0.84596,-0.29236 1.02425,-0.94514 0.93678,-1.77061 z m 3.39294,0.65027 c -0.0549,9.3e-4 -0.11108,0.009 -0.16797,0.0216 l 13.35796,23.13606 c 0.30381,-0.57702 0.81229,-0.64622 1.32143,-0.0353 0.9928,1.19139 0.74744,2.18862 0.74744,2.18862 0,0 0.74603,-1.13063 0.55741,-2.51831 l -0.94949,-1.64465 c -0.63952,-0.42042 -1.37662,-0.49071 -1.53641,-1.18945 -0.0932,-0.40748 0.0682,-0.6946 0.33161,-0.89718 l -0.87895,-1.5225 c -1.20326,-0.10133 -1.71326,-1.30031 -1.71326,-1.30031 0,0 0.3259,-0.2289 0.62052,-0.59268 l -1.56954,-2.7182 c -0.67335,-0.21906 -1.40828,-0.38453 -2.02953,-0.52789 -1.45563,-0.33592 -0.49589,-1.66588 0.71578,-1.74759 l -1.21896,-2.1111 c -0.39929,-0.0744 -0.47083,-0.0565 -0.68818,-0.70858 -0.0535,-0.1606 -0.0281,-0.289 0.0525,-0.39257 l -2.26181,-3.91748 c -3.94691,-0.59789 -1.22458,-0.14791 -2.23875,-1.54241 -1.05904,-1.45615 -1.23891,-1.28171 -2.09936,-1.8774 -0.10756,-0.0745 -0.22685,-0.10482 -0.35248,-0.1027 z m -53.315226,1.33822 c -0.0351,0.17293 -0.0843,0.36229 -0.14998,0.57253 -0.40277,1.28883 0.54678,3.04593 -0.94206,2.4504 l 8.09196,14.01519 c 0.6552,-0.42981 1.3552,-0.86553 2.08687,-1.2991 z m -4.2683,2.4444 c 0,0 0.007,0.003 0.007,0.003 l -0.002,-0.003 c -0.002,-4e-5 -0.003,5e-5 -0.005,0 z m 65.590756,0.57037 0.43649,0.75561 c 1.13254,0.51386 2.22868,1.4666 2.22868,1.4666 0,0 -0.41545,-1.28048 -2.66517,-2.22221 z m -64.357156,1.55754 c -0.0371,0.008 -0.0708,0.0172 -0.11061,0.0252 -1.6065,0.3213 -1.95104,0.88793 -1.95298,1.31471 l 8.0989,14.02767 c 0.5701,-0.4595 1.23189,-0.96693 1.97026,-1.50163 z m 65.866946,1.05723 0.0729,0.12646 c 0.43591,0.0339 0.75152,0.0765 0.75152,0.0765 0,0 -0.34108,-0.0878 -0.82447,-0.20301 z m -70.390066,1.42845 c 0.38342,0.65493 0.79113,1.48141 0.57493,1.75166 -0.15047,0.18808 -0.57442,0.96777 -1.05002,1.84812 l 8.05042,13.94368 c 0.015,-1.12012 0.21968,-2.1073 0.76018,-2.68508 0.0867,-0.0927 0.20338,-0.20848 0.33377,-0.33449 l -8.15025,-14.11669 c -0.2082,-0.12312 -0.37989,-0.26409 -0.51903,-0.4072 z m -1.9009,6.04418 c -0.56574,0.57873 -1.15822,1.19445 -1.77062,1.84764 l 10.85981,18.8097 c 0.75712,-1.26999 1.33522,-2.23084 1.44476,-2.41177 z m -3.51028,3.74855 c -0.56568,0.63449 -1.13583,1.29158 -1.70222,1.96642 l 11.45321,19.83742 c 0.39269,-0.70821 0.88837,-1.57089 1.4126,-2.46792 z m -3.35815,4.01226 c -0.48483,0.62206 -0.96087,1.25382 -1.42028,1.89371 -0.0609,0.0848 -0.11949,0.16847 -0.17804,0.25219 l 13.09425,22.67991 c 0.14268,-1.44173 0.31603,-2.87734 0.51974,-4.01394 z m -3.05076,4.54448 c -0.55522,1.09594 -0.89981,2.08684 -1.10667,2.99725 l 14.28466,24.74159 -0.43551,-3.16595 1.32382,2.11807 c 0,0 0.0467,-0.87012 0.12957,-2.10319 z m -1.22977,7.69818 c 0.14559,1.34674 0.28721,2.55084 -0.13509,3.78526 -0.0668,0.19541 -0.12551,0.39044 -0.1778,0.58693 l 7.54677,13.07145 c 1.29165,0.66959 3.77754,2.21506 3.95851,2.93895 0.19857,0.79426 1.19137,1.98562 1.19137,1.98562 l 0.50558,-0.0432 z m 80.636796,2.0684 c 0.002,0.23898 -10e-4,0.47475 -0.0127,0.7081 -0.0984,1.91889 0.27818,3.21665 0.39664,4.87081 l 2.45737,4.25629 c 0.30376,-1.34576 0.54882,-2.61413 0.69562,-3.7092 z m -81.113576,6.93417 c 0.16606,1.62566 0.48816,3.70196 0.94733,6.55528 l 1.45461,2.51927 c 0.73722,-0.33316 1.57569,-0.62056 2.37528,-0.79976 z m 81.293776,3.20625 c -0.10007,1.56622 -0.14538,3.31504 0.0593,5.01671 l 0.82568,1.43036 c 0.31195,-1.07419 0.62562,-2.18581 0.92479,-3.3128 z m -75.835316,26.76176 c 1.31879,4.17675 2.94944,8.28826 4.61214,12.04637 l 5.52349,9.56718 c -0.27817,-2.56575 -0.74276,-4.97984 -1.26481,-7.10526 l -7.8455,-13.58879 c -0.33612,-0.34484 -0.69066,-0.67215 -1.02532,-0.9195 z"
         style="color:#000000;display:inline;overflow:visible;visibility:visible;opacity:1;fill:url(#linearGradient5534);fill-opacity:1;fill-rule:nonzero;stroke:none;stroke-width:1.37214792;stroke-linecap:round;stroke-linejoin:round;stroke-miterlimit:4;stroke-dasharray:none;stroke-dashoffset:0;stroke-opacity:1;marker:none;enable-background:accumulate" />
    </g>
  </g>
</svg>
