<svg xmlns="http://www.w3.org/2000/svg" viewBox="0 0 532 532">
    <rect x="-1" y="-1" width="534" height="534" ry="0" style="fill:rgb(30,30,30);stroke:none;fill-opacity:1;stroke-opacity:1;" />"
    <rect x="10" y="120" width="512" height="402" ry="0" style="fill:rgb(50,50,50);stroke:rgb(0,0,0);stroke-width:1;fill-opacity:1;stroke-opacity:1;" />"
    <rect x="10" y="10" width="110" height="110" ry="0" style="fill:rgb(70,70,180);stroke:rgb(0,0,0);stroke-width:1;fill-opacity:1;stroke-opacity:1;" />"
    <rect x="120" y="10" width="95" height="95" ry="0" style="fill:rgb(70,70,180);stroke:rgb(0,0,0);stroke-width:1;fill-opacity:1;stroke-opacity:1;" />"
    <rect x="215" y="10" width="85" height="85" ry="0" style="fill:rgb(70,70,180);stroke:rgb(0,0,0);stroke-width:1;fill-opacity:1;stroke-opacity:1;" />"
    <rect x="300" y="10" width="75" height="75" ry="0" style="fill:rgb(70,70,180);stroke:rgb(0,0,0);stroke-width:1;fill-opacity:1;stroke-opacity:1;" />"
    <rect x="375" y="10" width="60" height="60" ry="0" style="fill:rgb(70,70,180);stroke:rgb(0,0,0);stroke-width:1;fill-opacity:1;stroke-opacity:1;" />"
    <rect x="375" y="70" width="50" height="50" ry="0" style="fill:rgb(70,70,180);stroke:rgb(0,0,0);stroke-width:1;fill-opacity:1;stroke-opacity:1;" />"
    <rect x="435" y="50" width="87" height="70" ry="0" style="fill:rgb(50,50,50);stroke:rgb(0,0,0);stroke-width:1;fill-opacity:1;stroke-opacity:1;" />"
    <rect x="435" y="10" width="40" height="40" ry="0" style="fill:rgb(70,70,180);stroke:rgb(0,0,0);stroke-width:1;fill-opacity:1;stroke-opacity:1;" />"
    <rect x="475" y="10" width="47" height="40" ry="0" style="fill:rgb(50,50,50);stroke:rgb(0,0,0);stroke-width:1;fill-opacity:1;stroke-opacity:1;" />"
    <rect x="300" y="85" width="35" height="35" ry="0" style="fill:rgb(70,70,180);stroke:rgb(0,0,0);stroke-width:1;fill-opacity:1;stroke-opacity:1;" />"
    <rect x="335" y="85" width="30" height="30" ry="0" style="fill:rgb(70,70,180);stroke:rgb(0,0,0);stroke-width:1;fill-opacity:1;stroke-opacity:1;" />"
    <rect x="335" y="115" width="30" height="5" ry="0" style="fill:rgb(50,50,50);stroke:rgb(0,0,0);stroke-width:1;fill-opacity:1;stroke-opacity:1;" />"
    <rect x="215" y="95" width="25" height="25" ry="0" style="fill:rgb(70,70,180);stroke:rgb(0,0,0);stroke-width:1;fill-opacity:1;stroke-opacity:1;" />"
    <rect x="240" y="95" width="20" height="20" ry="0" style="fill:rgb(70,70,180);stroke:rgb(0,0,0);stroke-width:1;fill-opacity:1;stroke-opacity:1;" />"
    <rect x="240" y="115" width="20" height="5" ry="0" style="fill:rgb(50,50,50);stroke:rgb(0,0,0);stroke-width:1;fill-opacity:1;stroke-opacity:1;" />"
    <rect x="277.5" y="95" width="22.5" height="25" ry="0" style="fill:rgb(50,50,50);stroke:rgb(0,0,0);stroke-width:1;fill-opacity:1;stroke-opacity:1;" />"
    <rect x="260" y="95" width="17.5" height="17.5" ry="0" style="fill:rgb(70,70,180);stroke:rgb(0,0,0);stroke-width:1;fill-opacity:1;stroke-opacity:1;" />"
    <rect x="120" y="105" width="15" height="15" ry="0" style="fill:rgb(70,70,180);stroke:rgb(0,0,0);stroke-width:1;fill-opacity:1;stroke-opacity:1;" />"
    <rect x="147.5" y="105" width="67.5" height="15" ry="0" style="fill:rgb(50,50,50);stroke:rgb(0,0,0);stroke-width:1;fill-opacity:1;stroke-opacity:1;" />"
    <rect x="135" y="105" width="12.5" height="12.5" ry="0" style="fill:rgb(70,70,180);stroke:rgb(0,0,0);stroke-width:1;fill-opacity:1;stroke-opacity:1;" />"
    <rect x="135" y="117.5" width="12.5" height="2.5" ry="0" style="fill:rgb(50,50,50);stroke:rgb(0,0,0);stroke-width:1;fill-opacity:1;stroke-opacity:1;" />"
    <rect x="425" y="80" width="10" height="40" ry="0" style="fill:rgb(50,50,50);stroke:rgb(0,0,0);stroke-width:1;fill-opacity:1;stroke-opacity:1;" />"
    <rect x="425" y="70" width="10" height="10" ry="0" style="fill:rgb(70,70,180);stroke:rgb(0,0,0);stroke-width:1;fill-opacity:1;stroke-opacity:1;" />"
    <rect x="365" y="94" width="10" height="26" ry="0" style="fill:rgb(50,50,50);stroke:rgb(0,0,0);stroke-width:1;fill-opacity:1;stroke-opacity:1;" />"
    <rect x="365" y="85" width="9" height="9" ry="0" style="fill:rgb(70,70,180);stroke:rgb(0,0,0);stroke-width:1;fill-opacity:1;stroke-opacity:1;" />"
    <rect x="374" y="85" width="1" height="9" ry="0" style="fill:rgb(50,50,50);stroke:rgb(0,0,0);stroke-width:1;fill-opacity:1;stroke-opacity:1;" />"
    <rect x="260" y="112.5" width="7" height="7" ry="0" style="fill:rgb(70,70,180);stroke:rgb(0,0,0);stroke-width:1;fill-opacity:1;stroke-opacity:1;" />"
    <rect x="260" y="119.5" width="7" height="0.5" ry="0" style="fill:rgb(50,50,50);stroke:rgb(0,0,0);stroke-width:1;fill-opacity:1;stroke-opacity:1;" />"
    <rect x="272" y="112.5" width="5.5" height="7.5" ry="0" style="fill:rgb(50,50,50);stroke:rgb(0,0,0);stroke-width:1;fill-opacity:1;stroke-opacity:1;" />"
    <rect x="267" y="112.5" width="5" height="5" ry="0" style="fill:rgb(70,70,180);stroke:rgb(0,0,0);stroke-width:1;fill-opacity:1;stroke-opacity:1;" />"
    <rect x="267" y="117.5" width="5" height="2.5" ry="0" style="fill:rgb(50,50,50);stroke:rgb(0,0,0);stroke-width:1;fill-opacity:1;stroke-opacity:1;" />"
</svg>
