<svg xmlns="http://www.w3.org/2000/svg" viewBox="0 0 532 532">
    <rect x="-1" y="-1" width="534" height="534" ry="0" style="fill:rgb(30,30,30);stroke:none;fill-opacity:1;stroke-opacity:1;" />"
    <rect x="10" y="120" width="512" height="402" ry="0" style="fill:rgb(50,50,50);stroke:rgb(0,0,0);stroke-width:1;fill-opacity:1;stroke-opacity:1;" />"
    <rect x="10" y="10" width="110" height="110" ry="0" style="fill:rgb(70,70,180);stroke:rgb(0,0,0);stroke-width:1;fill-opacity:1;stroke-opacity:1;" />"
    <rect x="120" y="10" width="95" height="95" ry="0" style="fill:rgb(70,70,180);stroke:rgb(0,0,0);stroke-width:1;fill-opacity:1;stroke-opacity:1;" />"
    <rect x="120" y="105" width="95" height="15" ry="0" style="fill:rgb(50,50,50);stroke:rgb(0,0,0);stroke-width:1;fill-opacity:1;stroke-opacity:1;" />"
    <rect x="215" y="10" width="85" height="85" ry="0" style="fill:rgb(70,70,180);stroke:rgb(0,0,0);stroke-width:1;fill-opacity:1;stroke-opacity:1;" />"
    <rect x="215" y="95" width="85" height="25" ry="0" style="fill:rgb(50,50,50);stroke:rgb(0,0,0);stroke-width:1;fill-opacity:1;stroke-opacity:1;" />"
    <rect x="300" y="10" width="75" height="75" ry="0" style="fill:rgb(70,70,180);stroke:rgb(0,0,0);stroke-width:1;fill-opacity:1;stroke-opacity:1;" />"
    <rect x="375" y="10" width="60" height="60" ry="0" style="fill:rgb(70,70,180);stroke:rgb(0,0,0);stroke-width:1;fill-opacity:1;stroke-opacity:1;" />"
    <rect x="425" y="70" width="10" height="50" ry="0" style="fill:rgb(50,50,50);stroke:rgb(0,0,0);stroke-width:1;fill-opacity:1;stroke-opacity:1;" />"
    <rect x="375" y="70" width="50" height="50" ry="0" style="fill:rgb(70,70,180);stroke:rgb(0,0,0);stroke-width:1;fill-opacity:1;stroke-opacity:1;" />"
    <rect x="435" y="50" width="87" height="70" ry="0" style="fill:rgb(50,50,50);stroke:rgb(0,0,0);stroke-width:1;fill-opacity:1;stroke-opacity:1;" />"
    <rect x="435" y="10" width="40" height="40" ry="0" style="fill:rgb(70,70,180);stroke:rgb(0,0,0);stroke-width:1;fill-opacity:1;stroke-opacity:1;" />"
    <rect x="475" y="10" width="47" height="40" ry="0" style="fill:rgb(50,50,50);stroke:rgb(0,0,0);stroke-width:1;fill-opacity:1;stroke-opacity:1;" />"
    <rect x="335" y="85" width="40" height="35" ry="0" style="fill:rgb(50,50,50);stroke:rgb(0,0,0);stroke-width:1;fill-opacity:1;stroke-opacity:1;" />"
    <rect x="300" y="85" width="35" height="35" ry="0" style="fill:rgb(70,70,180);stroke:rgb(0,0,0);stroke-width:1;fill-opacity:1;stroke-opacity:1;" />"
</svg>
