<svg xmlns="http://www.w3.org/2000/svg" viewBox="0 0 532 532">
    <rect x="-1" y="-1" width="534" height="534" ry="0" style="fill:rgb(30,30,30);stroke:none;fill-opacity:1;stroke-opacity:1;" />"
    <rect x="10" y="10" width="30" height="30" ry="0" style="fill:rgb(70,70,180);stroke:rgb(0,0,0);stroke-width:1;fill-opacity:1;stroke-opacity:1;" />"
    <rect x="40" y="10" width="9" height="9" ry="0" style="fill:rgb(70,70,180);stroke:rgb(0,0,0);stroke-width:1;fill-opacity:1;stroke-opacity:1;" />"
    <rect x="40" y="19" width="7" height="7" ry="0" style="fill:rgb(70,70,180);stroke:rgb(0,0,0);stroke-width:1;fill-opacity:1;stroke-opacity:1;" />"
    <rect x="47" y="19" width="2" height="7" ry="0" style="fill:rgb(50,50,50);stroke:rgb(0,0,0);stroke-width:1;fill-opacity:1;stroke-opacity:1;" />"
    <rect x="10" y="40" width="50" height="50" ry="0" style="fill:rgb(70,70,180);stroke:rgb(0,0,0);stroke-width:1;fill-opacity:1;stroke-opacity:1;" />"
    <rect x="40" y="31" width="9" height="9" ry="0" style="fill:rgb(50,50,50);stroke:rgb(0,0,0);stroke-width:1;fill-opacity:1;stroke-opacity:1;" />"
    <rect x="40" y="26" width="5" height="5" ry="0" style="fill:rgb(70,70,180);stroke:rgb(0,0,0);stroke-width:1;fill-opacity:1;stroke-opacity:1;" />"
    <rect x="45" y="26" width="4" height="5" ry="0" style="fill:rgb(50,50,50);stroke:rgb(0,0,0);stroke-width:1;fill-opacity:1;stroke-opacity:1;" />"
    <rect x="10" y="90" width="35" height="35" ry="0" style="fill:rgb(70,70,180);stroke:rgb(0,0,0);stroke-width:1;fill-opacity:1;stroke-opacity:1;" />"
    <rect x="45" y="100" width="15" height="25" ry="0" style="fill:rgb(50,50,50);stroke:rgb(0,0,0);stroke-width:1;fill-opacity:1;stroke-opacity:1;" />"
    <rect x="45" y="90" width="10" height="10" ry="0" style="fill:rgb(70,70,180);stroke:rgb(0,0,0);stroke-width:1;fill-opacity:1;stroke-opacity:1;" />"
    <rect x="55" y="90" width="5" height="10" ry="0" style="fill:rgb(50,50,50);stroke:rgb(0,0,0);stroke-width:1;fill-opacity:1;stroke-opacity:1;" />"
    <rect x="49" y="10" width="25" height="25" ry="0" style="fill:rgb(70,70,180);stroke:rgb(0,0,0);stroke-width:1;fill-opacity:1;stroke-opacity:1;" />"
    <rect x="49" y="35" width="25" height="5" ry="0" style="fill:rgb(50,50,50);stroke:rgb(0,0,0);stroke-width:1;fill-opacity:1;stroke-opacity:1;" />"
    <rect x="60" y="40" width="85" height="85" ry="0" style="fill:rgb(70,70,180);stroke:rgb(0,0,0);stroke-width:1;fill-opacity:1;stroke-opacity:1;" />"
    <rect x="170" y="125" width="352" height="397" ry="0" style="fill:rgb(50,50,50);stroke:rgb(0,0,0);stroke-width:1;fill-opacity:1;stroke-opacity:1;" />"
    <rect x="60" y="125" width="110" height="110" ry="0" style="fill:rgb(70,70,180);stroke:rgb(0,0,0);stroke-width:1;fill-opacity:1;stroke-opacity:1;" />"
    <rect x="91.5" y="10" width="430.5" height="30" ry="0" style="fill:rgb(50,50,50);stroke:rgb(0,0,0);stroke-width:1;fill-opacity:1;stroke-opacity:1;" />"
    <rect x="74" y="10" width="17.5" height="17.5" ry="0" style="fill:rgb(70,70,180);stroke:rgb(0,0,0);stroke-width:1;fill-opacity:1;stroke-opacity:1;" />"
    <rect x="74" y="27.5" width="17.5" height="12.5" ry="0" style="fill:rgb(50,50,50);stroke:rgb(0,0,0);stroke-width:1;fill-opacity:1;stroke-opacity:1;" />"
    <rect x="60" y="330" width="110" height="192" ry="0" style="fill:rgb(50,50,50);stroke:rgb(0,0,0);stroke-width:1;fill-opacity:1;stroke-opacity:1;" />"
    <rect x="60" y="235" width="95" height="95" ry="0" style="fill:rgb(70,70,180);stroke:rgb(0,0,0);stroke-width:1;fill-opacity:1;stroke-opacity:1;" />"
    <rect x="155" y="235" width="15" height="95" ry="0" style="fill:rgb(50,50,50);stroke:rgb(0,0,0);stroke-width:1;fill-opacity:1;stroke-opacity:1;" />"
    <rect x="205" y="40" width="317" height="85" ry="0" style="fill:rgb(50,50,50);stroke:rgb(0,0,0);stroke-width:1;fill-opacity:1;stroke-opacity:1;" />"
    <rect x="145" y="40" width="60" height="60" ry="0" style="fill:rgb(70,70,180);stroke:rgb(0,0,0);stroke-width:1;fill-opacity:1;stroke-opacity:1;" />"
    <rect x="145" y="100" width="60" height="25" ry="0" style="fill:rgb(50,50,50);stroke:rgb(0,0,0);stroke-width:1;fill-opacity:1;stroke-opacity:1;" />"
    <rect x="10" y="165" width="50" height="357" ry="0" style="fill:rgb(50,50,50);stroke:rgb(0,0,0);stroke-width:1;fill-opacity:1;stroke-opacity:1;" />"
    <rect x="10" y="125" width="40" height="40" ry="0" style="fill:rgb(70,70,180);stroke:rgb(0,0,0);stroke-width:1;fill-opacity:1;stroke-opacity:1;" />"
    <rect x="50" y="125" width="10" height="40" ry="0" style="fill:rgb(50,50,50);stroke:rgb(0,0,0);stroke-width:1;fill-opacity:1;stroke-opacity:1;" />"
</svg>
