<svg xmlns="http://www.w3.org/2000/svg" viewBox="0 0 532 532">
    <rect x="-1" y="-1" width="534" height="534" ry="0" style="fill:rgb(30,30,30);stroke:none;fill-opacity:1;stroke-opacity:1;" />"
    <rect x="10" y="10" width="5" height="5" ry="0" style="fill:rgb(70,70,180);stroke:rgb(0,0,0);stroke-width:1;fill-opacity:1;stroke-opacity:1;" />"
    <rect x="15" y="10" width="507" height="5" ry="0" style="fill:rgb(50,50,50);stroke:rgb(0,0,0);stroke-width:1;fill-opacity:1;stroke-opacity:1;" />"
    <rect x="10" y="15" width="7" height="7" ry="0" style="fill:rgb(70,70,180);stroke:rgb(0,0,0);stroke-width:1;fill-opacity:1;stroke-opacity:1;" />"
    <rect x="10" y="22" width="7" height="500" ry="0" style="fill:rgb(50,50,50);stroke:rgb(0,0,0);stroke-width:1;fill-opacity:1;stroke-opacity:1;" />"
    <rect x="17" y="15" width="9" height="9" ry="0" style="fill:rgb(70,70,180);stroke:rgb(0,0,0);stroke-width:1;fill-opacity:1;stroke-opacity:1;" />"
    <rect x="26" y="15" width="496" height="9" ry="0" style="fill:rgb(50,50,50);stroke:rgb(0,0,0);stroke-width:1;fill-opacity:1;stroke-opacity:1;" />"
    <rect x="17" y="24" width="10" height="10" ry="0" style="fill:rgb(70,70,180);stroke:rgb(0,0,0);stroke-width:1;fill-opacity:1;stroke-opacity:1;" />"
    <rect x="17" y="34" width="10" height="488" ry="0" style="fill:rgb(50,50,50);stroke:rgb(0,0,0);stroke-width:1;fill-opacity:1;stroke-opacity:1;" />"
    <rect x="27" y="24" width="12.5" height="12.5" ry="0" style="fill:rgb(70,70,180);stroke:rgb(0,0,0);stroke-width:1;fill-opacity:1;stroke-opacity:1;" />"
    <rect x="39.5" y="24" width="482.5" height="12.5" ry="0" style="fill:rgb(50,50,50);stroke:rgb(0,0,0);stroke-width:1;fill-opacity:1;stroke-opacity:1;" />"
    <rect x="27" y="36.5" width="15" height="15" ry="0" style="fill:rgb(70,70,180);stroke:rgb(0,0,0);stroke-width:1;fill-opacity:1;stroke-opacity:1;" />"
    <rect x="27" y="51.5" width="15" height="470.5" ry="0" style="fill:rgb(50,50,50);stroke:rgb(0,0,0);stroke-width:1;fill-opacity:1;stroke-opacity:1;" />"
    <rect x="42" y="36.5" width="17.5" height="17.5" ry="0" style="fill:rgb(70,70,180);stroke:rgb(0,0,0);stroke-width:1;fill-opacity:1;stroke-opacity:1;" />"
    <rect x="59.5" y="36.5" width="462.5" height="17.5" ry="0" style="fill:rgb(50,50,50);stroke:rgb(0,0,0);stroke-width:1;fill-opacity:1;stroke-opacity:1;" />"
    <rect x="42" y="54" width="20" height="20" ry="0" style="fill:rgb(70,70,180);stroke:rgb(0,0,0);stroke-width:1;fill-opacity:1;stroke-opacity:1;" />"
    <rect x="42" y="74" width="20" height="448" ry="0" style="fill:rgb(50,50,50);stroke:rgb(0,0,0);stroke-width:1;fill-opacity:1;stroke-opacity:1;" />"
    <rect x="62" y="54" width="25" height="25" ry="0" style="fill:rgb(70,70,180);stroke:rgb(0,0,0);stroke-width:1;fill-opacity:1;stroke-opacity:1;" />"
    <rect x="87" y="54" width="435" height="25" ry="0" style="fill:rgb(50,50,50);stroke:rgb(0,0,0);stroke-width:1;fill-opacity:1;stroke-opacity:1;" />"
    <rect x="62" y="79" width="30" height="30" ry="0" style="fill:rgb(70,70,180);stroke:rgb(0,0,0);stroke-width:1;fill-opacity:1;stroke-opacity:1;" />"
    <rect x="62" y="109" width="30" height="413" ry="0" style="fill:rgb(50,50,50);stroke:rgb(0,0,0);stroke-width:1;fill-opacity:1;stroke-opacity:1;" />"
    <rect x="92" y="79" width="35" height="35" ry="0" style="fill:rgb(70,70,180);stroke:rgb(0,0,0);stroke-width:1;fill-opacity:1;stroke-opacity:1;" />"
    <rect x="127" y="79" width="395" height="35" ry="0" style="fill:rgb(50,50,50);stroke:rgb(0,0,0);stroke-width:1;fill-opacity:1;stroke-opacity:1;" />"
    <rect x="92" y="114" width="40" height="40" ry="0" style="fill:rgb(70,70,180);stroke:rgb(0,0,0);stroke-width:1;fill-opacity:1;stroke-opacity:1;" />"
    <rect x="92" y="154" width="40" height="368" ry="0" style="fill:rgb(50,50,50);stroke:rgb(0,0,0);stroke-width:1;fill-opacity:1;stroke-opacity:1;" />"
    <rect x="132" y="114" width="50" height="50" ry="0" style="fill:rgb(70,70,180);stroke:rgb(0,0,0);stroke-width:1;fill-opacity:1;stroke-opacity:1;" />"
    <rect x="182" y="114" width="340" height="50" ry="0" style="fill:rgb(50,50,50);stroke:rgb(0,0,0);stroke-width:1;fill-opacity:1;stroke-opacity:1;" />"
    <rect x="132" y="164" width="60" height="60" ry="0" style="fill:rgb(70,70,180);stroke:rgb(0,0,0);stroke-width:1;fill-opacity:1;stroke-opacity:1;" />"
    <rect x="132" y="224" width="60" height="298" ry="0" style="fill:rgb(50,50,50);stroke:rgb(0,0,0);stroke-width:1;fill-opacity:1;stroke-opacity:1;" />"
    <rect x="192" y="164" width="75" height="75" ry="0" style="fill:rgb(70,70,180);stroke:rgb(0,0,0);stroke-width:1;fill-opacity:1;stroke-opacity:1;" />"
    <rect x="267" y="164" width="255" height="75" ry="0" style="fill:rgb(50,50,50);stroke:rgb(0,0,0);stroke-width:1;fill-opacity:1;stroke-opacity:1;" />"
    <rect x="192" y="239" width="85" height="85" ry="0" style="fill:rgb(70,70,180);stroke:rgb(0,0,0);stroke-width:1;fill-opacity:1;stroke-opacity:1;" />"
    <rect x="192" y="324" width="85" height="198" ry="0" style="fill:rgb(50,50,50);stroke:rgb(0,0,0);stroke-width:1;fill-opacity:1;stroke-opacity:1;" />"
    <rect x="277" y="239" width="95" height="95" ry="0" style="fill:rgb(70,70,180);stroke:rgb(0,0,0);stroke-width:1;fill-opacity:1;stroke-opacity:1;" />"
    <rect x="372" y="239" width="150" height="95" ry="0" style="fill:rgb(50,50,50);stroke:rgb(0,0,0);stroke-width:1;fill-opacity:1;stroke-opacity:1;" />"
    <rect x="387" y="334" width="135" height="188" ry="0" style="fill:rgb(50,50,50);stroke:rgb(0,0,0);stroke-width:1;fill-opacity:1;stroke-opacity:1;" />"
    <rect x="277" y="334" width="110" height="110" ry="0" style="fill:rgb(70,70,180);stroke:rgb(0,0,0);stroke-width:1;fill-opacity:1;stroke-opacity:1;" />"
    <rect x="277" y="444" width="110" height="78" ry="0" style="fill:rgb(50,50,50);stroke:rgb(0,0,0);stroke-width:1;fill-opacity:1;stroke-opacity:1;" />"
</svg>
