<svg xmlns="http://www.w3.org/2000/svg" viewBox="0 0 1024 1024">
    <rect x="0" y="0" width="400" height="300" ry="0" style="fill:rgb(70,70,180);stroke:rgb(0,0,0);stroke-width:1;fill-opacity:1;stroke-opacity:1;" />"
    <rect x="400" y="0" width="200" height="300" ry="0" style="fill:rgb(70,70,180);stroke:rgb(0,0,0);stroke-width:1;fill-opacity:1;stroke-opacity:1;" />"
    <rect x="0" y="300" width="200" height="100" ry="0" style="fill:rgb(70,70,180);stroke:rgb(0,0,0);stroke-width:1;fill-opacity:1;stroke-opacity:1;" />"
    <rect x="200" y="300" width="100" height="100" ry="0" style="fill:rgb(70,70,180);stroke:rgb(0,0,0);stroke-width:1;fill-opacity:1;stroke-opacity:1;" />"
    <rect x="0" y="400" width="100" height="270" ry="0" style="fill:rgb(70,70,180);stroke:rgb(0,0,0);stroke-width:1;fill-opacity:1;stroke-opacity:1;" />"
    <rect x="0" y="670" width="100" height="354" ry="0" style="fill:rgb(50,50,50);stroke:rgb(0,0,0);stroke-width:1;fill-opacity:1;stroke-opacity:1;" />"
    <rect x="100" y="400" width="400" height="400" ry="0" style="fill:rgb(70,70,180);stroke:rgb(0,0,0);stroke-width:1;fill-opacity:1;stroke-opacity:1;" />"
    <rect x="100" y="800" width="400" height="224" ry="0" style="fill:rgb(50,50,50);stroke:rgb(0,0,0);stroke-width:1;fill-opacity:1;stroke-opacity:1;" />"
    <rect x="600" y="0" width="424" height="300" ry="0" style="fill:rgb(50,50,50);stroke:rgb(0,0,0);stroke-width:1;fill-opacity:1;stroke-opacity:1;" />"
    <rect x="300" y="300" width="724" height="100" ry="0" style="fill:rgb(50,50,50);stroke:rgb(0,0,0);stroke-width:1;fill-opacity:1;stroke-opacity:1;" />"
    <rect x="500" y="550" width="524" height="474" ry="0" style="fill:rgb(50,50,50);stroke:rgb(0,0,0);stroke-width:1;fill-opacity:1;stroke-opacity:1;" />"
    <rect x="500" y="400" width="150" height="150" ry="0" style="fill:rgb(70,70,180);stroke:rgb(0,0,0);stroke-width:1;fill-opacity:1;stroke-opacity:1;" />"
    <rect x="650" y="400" width="374" height="150" ry="0" style="fill:rgb(50,50,50);stroke:rgb(0,0,0);stroke-width:1;fill-opacity:1;stroke-opacity:1;" />"
</svg>
