<?xml version="1.0" encoding="UTF-8" standalone="no"?>
<!-- Created with Inkscape (http://www.inkscape.org/) -->

<svg
   xmlns:dc="http://purl.org/dc/elements/1.1/"
   xmlns:cc="http://creativecommons.org/ns#"
   xmlns:rdf="http://www.w3.org/1999/02/22-rdf-syntax-ns#"
   xmlns:svg="http://www.w3.org/2000/svg"
   xmlns="http://www.w3.org/2000/svg"
   xmlns:sodipodi="http://sodipodi.sourceforge.net/DTD/sodipodi-0.dtd"
   xmlns:inkscape="http://www.inkscape.org/namespaces/inkscape"
   width="211.7858mm"
   height="130.28845mm"
   viewBox="0 0 211.7858 130.28845"
   version="1.1"
   id="svg1102"
   sodipodi:docname="gpu-mem-02.svg"
   inkscape:version="0.92.3 (2405546, 2018-03-11)">
  <defs
     id="defs1096" />
  <sodipodi:namedview
     id="base"
     pagecolor="#ffffff"
     bordercolor="#666666"
     borderopacity="1.0"
     inkscape:pageopacity="0.0"
     inkscape:pageshadow="2"
     inkscape:zoom="1.979899"
     inkscape:cx="355.04577"
     inkscape:cy="278.47933"
     inkscape:document-units="mm"
     inkscape:current-layer="layer1"
     showgrid="false"
     fit-margin-top="10"
     fit-margin-left="10"
     fit-margin-right="10"
     fit-margin-bottom="10"
     inkscape:window-width="2560"
     inkscape:window-height="1311"
     inkscape:window-x="0"
     inkscape:window-y="55"
     inkscape:window-maximized="1" />
  <metadata
     id="metadata1099">
    <rdf:RDF>
      <cc:Work
         rdf:about="">
        <dc:format>image/svg+xml</dc:format>
        <dc:type
           rdf:resource="http://purl.org/dc/dcmitype/StillImage" />
        <dc:title></dc:title>
      </cc:Work>
    </rdf:RDF>
  </metadata>
  <g
     inkscape:label="Layer 1"
     inkscape:groupmode="layer"
     id="layer1"
     transform="translate(4.38734,1.196655)">
    <path
       sodipodi:nodetypes="ccc"
       inkscape:connector-curvature="0"
       id="path848"
       d="m 13.195953,66.23294 c 0,-8.01809 52.469626,-0.06485 52.603262,-8.483839 2.405424,8.15173 105.005615,1.749319 105.080085,7.336479"
       style="fill:none;fill-rule:evenodd;stroke:#000000;stroke-width:1;stroke-linecap:round;stroke-linejoin:round;stroke-miterlimit:4;stroke-dasharray:none;stroke-opacity:1" />
    <path
       style="fill:none;fill-rule:evenodd;stroke:#9d93ac;stroke-width:2;stroke-linecap:round;stroke-linejoin:miter;stroke-miterlimit:4;stroke-dasharray:none;stroke-opacity:1"
       d="M 5.61266,33.472246 H 184.41598"
       id="path1694"
       inkscape:connector-curvature="0" />
    <rect
       style="color:#000000;overflow:visible;opacity:1;fill:#b3b3b3;fill-opacity:0.96466435;stroke:#808080;stroke-width:1;stroke-linecap:round;stroke-linejoin:round;stroke-miterlimit:4;stroke-dasharray:none;stroke-dashoffset:0;stroke-opacity:1"
       id="rect1647"
       width="157.1545"
       height="19.243404"
       x="14.068009"
       y="73.320915" />
    <rect
       y="73.320915"
       x="14.068009"
       height="19.243401"
       width="83.82711"
       id="rect1649"
       style="color:#000000;overflow:visible;opacity:1;fill:#2a7fff;fill-opacity:0.96466435;stroke:#0066ff;stroke-width:1;stroke-linecap:round;stroke-linejoin:round;stroke-miterlimit:4;stroke-dasharray:none;stroke-dashoffset:0;stroke-opacity:1" />
    <rect
       y="73.320915"
       x="141.257"
       height="19.243401"
       width="29.965498"
       id="rect1651"
       style="color:#000000;overflow:visible;opacity:1;fill:#80b3ff;fill-opacity:0.96466435;stroke:#0055d4;stroke-width:1;stroke-linecap:round;stroke-linejoin:round;stroke-miterlimit:4;stroke-dasharray:none;stroke-dashoffset:0;stroke-opacity:1" />
    <rect
       style="color:#000000;overflow:visible;opacity:1;fill:#80b3ff;fill-opacity:1;stroke:#0066ff;stroke-width:1;stroke-linecap:round;stroke-linejoin:round;stroke-miterlimit:4;stroke-dasharray:none;stroke-dashoffset:0;stroke-opacity:1"
       id="rect1663"
       width="9.4602861"
       height="19.243401"
       x="76.633957"
       y="73.320915" />
    <rect
       y="22.672106"
       x="121.15358"
       height="19.243401"
       width="9.4602861"
       id="rect1665"
       style="color:#000000;overflow:visible;opacity:1;fill:#80b3ff;fill-opacity:1;stroke:#0066ff;stroke-width:1;stroke-linecap:round;stroke-linejoin:round;stroke-miterlimit:4;stroke-dasharray:none;stroke-dashoffset:0;stroke-opacity:1" />
    <path
       sodipodi:nodetypes="cccccc"
       inkscape:connector-curvature="0"
       id="path851"
       d="m 125.42989,44.5882 c 4.61108,17.208767 -50.141039,1.0233 -45.182396,19.529209 0.526622,2.457875 -1.581952,1.759855 -1.581952,1.759855 l 3.136108,5.318882 0.724917,-6.465609 -1.141449,0.843307"
       style="fill:none;fill-rule:evenodd;stroke:#000000;stroke-width:1;stroke-linecap:round;stroke-linejoin:round;stroke-miterlimit:4;stroke-dasharray:none;stroke-opacity:1" />
    <rect
       style="color:#000000;overflow:visible;opacity:1;fill:#b3b3b3;fill-opacity:0.96470588;stroke:#535d6c;stroke-width:1;stroke-linecap:round;stroke-linejoin:round;stroke-miterlimit:4;stroke-dasharray:none;stroke-dashoffset:0;stroke-opacity:1"
       id="rect1686"
       width="19.193178"
       height="19.243399"
       x="151.55687"
       y="22.672106" />
    <rect
       style="color:#000000;overflow:visible;opacity:1;fill:#80b3ff;fill-opacity:1;stroke:#0066ff;stroke-width:1;stroke-linecap:round;stroke-linejoin:round;stroke-miterlimit:4;stroke-dasharray:none;stroke-dashoffset:0;stroke-opacity:1"
       id="rect1688"
       width="30.307304"
       height="19.243399"
       x="130.70984"
       y="22.672106" />
    <path
       sodipodi:nodetypes="cccccc"
       inkscape:connector-curvature="0"
       id="path1692"
       d="m 161.01715,43.251854 c 9.10391,6.841122 8.52996,15.99529 6.79397,21.614697 -0.8328,2.371696 1.34704,1.945538 1.34704,1.945538 l -3.78268,4.880272 0.0974,-6.505395 1.02581,0.9807"
       style="fill:none;fill-rule:evenodd;stroke:#000000;stroke-width:1;stroke-linecap:round;stroke-linejoin:round;stroke-miterlimit:4;stroke-dasharray:none;stroke-opacity:1" />
    <g
       aria-label="CPU"
       transform="rotate(-9.1538664)"
       style="font-style:normal;font-weight:normal;font-size:4.38979626px;line-height:5.48724508px;font-family:Sans;letter-spacing:0px;word-spacing:0px;fill:#4d4d4d;fill-opacity:1;stroke:none;stroke-width:0.2194898px;stroke-linecap:butt;stroke-linejoin:miter;stroke-opacity:1"
       id="text1698">
      <path
         d="m 15.85135,23.525456 q 0,0.140474 -0.199004,0.526776 -0.187298,0.386302 -0.561894,0.889665 -0.36289,0.503363 -0.819429,0.971608 -0.444833,0.456539 -1.041845,0.772604 -0.597012,0.316066 -1.170612,0.316066 -1.416441,0 -2.2944005,-1.802743 -0.1170613,-0.234123 -0.1170613,-1.592033 0,-2.44658 0.2341225,-3.266008 0.2926533,-1.076964 1.4398533,-1.884686 1.1472,-0.819429 2.177339,-0.819429 0.538481,0 0.983314,0.351184 0.456539,0.339477 0.456539,0.760898 0,0.152179 -0.175592,0.152179 -0.128767,0 -0.269241,-0.08194 -0.140473,-0.08194 -0.21071,-0.210711 -0.117061,-0.257534 -0.36289,-0.257534 -0.608718,0 -1.474971,0.409714 -0.854547,0.409714 -1.311086,0.913078 -0.386302,0.42142 -0.585306,1.299379 -0.199004,0.877959 -0.199004,2.65729 0,0.842841 0.222416,1.369617 0.222416,0.526775 0.643837,0.854547 0.42142,0.327771 0.866253,0.327771 0.304359,0 0.854547,-0.257535 0.550188,-0.257534 0.772604,-0.503363 l 0.597012,-0.597012 q 0.280947,-0.269241 0.585306,-0.690661 0.316066,-0.433127 0.503364,-0.690662 0.199004,-0.257534 0.327771,-0.257534 0.128768,0 0.128768,0.339477 z"
         style="font-style:normal;font-variant:normal;font-weight:normal;font-stretch:normal;font-size:11.70612335px;font-family:Purisa;-inkscape-font-specification:Purisa;fill:#4d4d4d;stroke-width:0.2194898px"
         id="path923" />
      <path
         d="m 19.416595,17.812868 q 0.374596,0 0.913078,-0.09365 0.550188,-0.105355 0.901372,-0.105355 0.152179,0 0.21071,0.01171 0.468245,0.05853 0.678955,0.09365 0.21071,0.03512 0.538482,0.117061 0.339477,0.07024 0.479951,0.175592 0.152179,0.105355 0.316065,0.280947 0.175592,0.175592 0.234123,0.433127 0.05853,0.245828 0.05853,0.597012 0,0.515069 -0.140473,1.076963 -0.140474,0.550188 -0.280947,0.550188 -0.15218,0 -0.15218,0.222416 0,0.269241 -0.702367,0.913078 -0.702368,0.643837 -1.100376,0.72578 -0.479951,0.128767 -0.550188,0.257534 -0.08194,0.15218 -0.760898,0.15218 h -0.690661 l 0.117061,2.107102 q 0.04683,0.807723 0.04683,1.416441 0,0.749192 -0.128768,0.93649 -0.199004,0.234122 -0.339477,0.234122 -0.257535,0 -0.327772,-0.526775 -0.117061,-0.901372 -0.292653,-3.418188 -0.175592,-2.516817 -0.175592,-3.38307 v -1.252555 l -0.351183,0.245829 q -0.234123,0.163885 -0.409715,0.163885 -0.07024,0 -0.152179,-0.08194 -0.07024,-0.08194 -0.07024,-0.199004 0,-0.327771 0.667249,-1.030139 0.374596,-0.398008 0.561894,-0.526775 0.187298,-0.128767 0.386302,-0.128767 0.05853,0 0.199004,0.02341 0.140474,0.01171 0.316065,0.01171 z m 2.551935,0.877959 q -0.620424,-0.140473 -0.854547,-0.140473 -0.234122,0 -1.076963,0.175592 -0.620425,0.128767 -0.772604,0.316065 -0.15218,0.187298 -0.15218,0.854547 0,0.678955 0.08194,1.474971 0.08194,0.796017 0.175592,0.901372 0.04682,0.05853 0.269241,0.05853 0.374596,0 1.006726,-0.163886 0.632131,-0.175592 1.018433,-0.386302 0.234123,-0.128768 0.398008,-0.304359 0.163886,-0.187298 0.175592,-0.327772 0.03512,-0.257535 0.409715,-0.749192 0.386302,-0.503363 0.386302,-0.819428 0,-0.655543 -1.065258,-0.889666 z"
         style="font-style:normal;font-variant:normal;font-weight:normal;font-stretch:normal;font-size:11.70612335px;font-family:Purisa;-inkscape-font-specification:Purisa;fill:#4d4d4d;stroke-width:0.2194898px"
         id="path925" />
      <path
         d="m 31.700891,21.043758 q -0.01171,1.217437 -0.234123,2.23587 -0.21071,1.018432 -0.561894,1.662269 -0.351183,0.643837 -0.760898,1.123788 -0.398008,0.479951 -0.819428,0.72578 -0.421421,0.234122 -0.737486,0.339477 -0.304359,0.117061 -0.515069,0.117061 -0.351184,0 -0.819429,-0.187298 -0.468245,-0.187298 -0.72578,-0.433126 -0.503363,-0.491657 -0.78431,-3.090417 -0.280947,-2.598759 -0.280947,-4.179086 0,-0.714073 0.187298,-0.866253 0.163886,-0.128767 0.257535,-0.128767 0.140473,0 0.21071,0.304359 0.07024,0.292653 0.128767,1.076963 0.140474,1.896392 0.444833,3.980082 0.304359,2.071984 0.491657,2.341225 0.222417,0.36289 0.643837,0.36289 0.433127,0 1.053551,-0.398008 0.690661,-0.433127 1.08867,-1.08867 0.409714,-0.667249 0.690661,-1.814449 0.245828,-0.983314 0.245828,-1.732506 0,-0.819429 -0.316065,-1.802743 -0.304359,-0.995021 -0.304359,-1.08867 0,-0.163886 0.140473,-0.234122 0.15218,-0.07024 0.257535,-0.07024 0.234123,0 0.386302,0.339478 0.163886,0.327771 0.280947,0.772604 0.128767,0.433126 0.234123,0.550188 0.117061,0.117061 0.117061,1.182318 z"
         style="font-style:normal;font-variant:normal;font-weight:normal;font-stretch:normal;font-size:11.70612335px;font-family:Purisa;-inkscape-font-specification:Purisa;fill:#4d4d4d;stroke-width:0.2194898px"
         id="path927" />
    </g>
    <g
       aria-label="GPU"
       transform="rotate(8.6316292)"
       style="font-style:normal;font-weight:normal;font-size:4.38979626px;line-height:5.48724508px;font-family:Sans;letter-spacing:0px;word-spacing:0px;fill:#4d4d4d;fill-opacity:1;stroke:none;stroke-width:0.2194898px;stroke-linecap:butt;stroke-linejoin:miter;stroke-opacity:1"
       id="text826">
      <path
         d="m 22.683055,43.421252 q -0.374596,0 -0.737486,-0.140474 -0.362889,-0.140473 -0.362889,-0.456538 0,-0.199005 0.175591,-0.30436 0.175592,-0.105355 0.398009,-0.175592 0.222416,-0.07024 0.280947,-0.175591 0.05853,-0.09365 0.409714,-0.09365 0.456539,0 1.076963,0.140473 0.620425,0.140474 0.819429,0.304359 0.339477,0.280947 0.515069,1.416441 0.187298,1.135494 0.187298,2.610466 0,0.772604 -0.21071,0.913077 -0.09365,0.08194 -0.21071,0.08194 -0.117061,0 -0.245829,-0.117061 -0.234122,-0.222416 -0.234122,-1.521796 v -1.334498 l -0.374596,0.620424 q -0.667249,1.100376 -1.51009,1.720801 -0.842841,0.608718 -1.627151,0.608718 -0.456539,0 -0.854547,-0.222416 -0.304359,-0.163886 -0.456539,-0.386302 -0.140473,-0.234123 -0.292653,-0.807723 -0.175592,-0.608718 -0.175592,-1.112082 0,-0.351183 0.07024,-0.924783 0.117061,-0.93649 0.327771,-1.474972 0.222417,-0.538482 0.854547,-1.474971 0.444833,-0.655543 0.971608,-1.123788 0.526776,-0.468245 0.901372,-0.643837 0.386302,-0.175592 0.690661,-0.327772 0.316066,-0.163885 0.386302,-0.280947 0.117062,-0.199004 0.597013,-0.199004 0.515069,0 0.842841,0.222417 0.339477,0.21071 0.339477,0.433126 0,0.140474 -0.140473,0.421421 -0.140474,0.269241 -0.292653,0.269241 -0.128768,0 -0.210711,-0.269241 -0.08194,-0.280947 -0.257534,-0.280947 -0.175592,0 -0.444833,0.07024 -0.269241,0.07024 -0.690661,0.292653 -0.409715,0.222416 -0.831135,0.550187 -0.409714,0.327772 -0.889666,0.924784 -0.479951,0.585306 -0.866253,1.334498 -0.351183,0.678955 -0.433126,1.018433 -0.08194,0.339478 -0.08194,1.135494 0,1.1472 0.199004,1.56862 0.199004,0.409715 0.749192,0.409715 1.170612,0 1.93151,-1.006727 0.374596,-0.503363 0.643837,-1.088669 0.269241,-0.585306 0.269241,-0.889666 0,-0.187298 -0.15218,-0.327771 -0.140473,-0.15218 -0.292653,-0.15218 -0.09365,0 -0.257535,0.128768 -0.152179,0.117061 -0.503363,0.117061 z"
         style="font-style:normal;font-variant:normal;font-weight:normal;font-stretch:normal;font-size:11.70612335px;font-family:Purisa;-inkscape-font-specification:Purisa;fill:#4d4d4d;stroke-width:0.2194898px"
         id="path930" />
      <path
         d="m 29.123983,38.14179 q 0.374596,0 0.913078,-0.09365 0.550188,-0.105355 0.901372,-0.105355 0.152179,0 0.21071,0.01171 0.468245,0.05853 0.678955,0.09365 0.21071,0.03512 0.538482,0.117061 0.339477,0.07024 0.479951,0.175592 0.152179,0.105355 0.316065,0.280947 0.175592,0.175592 0.234122,0.433127 0.05853,0.245828 0.05853,0.597012 0,0.51507 -0.140473,1.076963 -0.140474,0.550188 -0.280947,0.550188 -0.15218,0 -0.15218,0.222417 0,0.26924 -0.702367,0.913077 -0.702368,0.643837 -1.100376,0.72578 -0.479951,0.128767 -0.550188,0.257535 -0.08194,0.152179 -0.760898,0.152179 h -0.690661 l 0.117061,2.107102 q 0.04682,0.807723 0.04682,1.416441 0,0.749192 -0.128768,0.93649 -0.199004,0.234123 -0.339477,0.234123 -0.257535,0 -0.327772,-0.526776 -0.117061,-0.901371 -0.292653,-3.418188 -0.175592,-2.516816 -0.175592,-3.38307 V 39.663586 L 27.6256,39.909415 q -0.234123,0.163886 -0.409715,0.163886 -0.07024,0 -0.152179,-0.08194 -0.07024,-0.08194 -0.07024,-0.199004 0,-0.327772 0.667249,-1.030139 0.374596,-0.398008 0.561894,-0.526776 0.187298,-0.128767 0.386302,-0.128767 0.05853,0 0.199004,0.02341 0.140474,0.01171 0.316065,0.01171 z m 2.551935,0.877959 q -0.620424,-0.140473 -0.854547,-0.140473 -0.234122,0 -1.076963,0.175592 -0.620425,0.128767 -0.772604,0.316065 -0.15218,0.187298 -0.15218,0.854547 0,0.678955 0.08194,1.474972 0.08194,0.796016 0.175592,0.901371 0.04682,0.05853 0.269241,0.05853 0.374596,0 1.006726,-0.163886 0.632131,-0.175592 1.018433,-0.386302 0.234123,-0.128767 0.398008,-0.304359 0.163886,-0.187298 0.175592,-0.327772 0.03512,-0.257534 0.409714,-0.749192 0.386303,-0.503363 0.386303,-0.819428 0,-0.655543 -1.065258,-0.889666 z"
         style="font-style:normal;font-variant:normal;font-weight:normal;font-stretch:normal;font-size:11.70612335px;font-family:Purisa;-inkscape-font-specification:Purisa;fill:#4d4d4d;stroke-width:0.2194898px"
         id="path932" />
      <path
         d="m 41.40828,41.37268 q -0.01171,1.217437 -0.234123,2.23587 -0.21071,1.018433 -0.561894,1.662269 -0.351183,0.643837 -0.760898,1.123788 -0.398008,0.479951 -0.819428,0.72578 -0.421421,0.234122 -0.737486,0.339477 -0.304359,0.117062 -0.51507,0.117062 -0.351183,0 -0.819428,-0.187298 -0.468245,-0.187298 -0.72578,-0.433127 -0.503363,-0.491657 -0.78431,-3.090416 -0.280947,-2.59876 -0.280947,-4.179087 0,-0.714073 0.187298,-0.866253 0.163886,-0.128767 0.257535,-0.128767 0.140473,0 0.21071,0.304359 0.07024,0.292653 0.128767,1.076964 0.140474,1.896392 0.444833,3.980081 0.304359,2.071984 0.491657,2.341225 0.222416,0.36289 0.643837,0.36289 0.433126,0 1.053551,-0.398008 0.690661,-0.433127 1.088669,-1.08867 0.409715,-0.667249 0.690662,-1.814449 0.245828,-0.983314 0.245828,-1.732506 0,-0.819429 -0.316065,-1.802743 -0.304359,-0.995021 -0.304359,-1.08867 0,-0.163885 0.140473,-0.234122 0.15218,-0.07024 0.257535,-0.07024 0.234122,0 0.386302,0.339478 0.163886,0.327771 0.280947,0.772604 0.128767,0.433127 0.234122,0.550188 0.117062,0.117061 0.117062,1.182318 z"
         style="font-style:normal;font-variant:normal;font-weight:normal;font-stretch:normal;font-size:11.70612335px;font-family:Purisa;-inkscape-font-specification:Purisa;fill:#4d4d4d;stroke-width:0.2194898px"
         id="path934" />
    </g>
    <g
       aria-label="Staging buffer"
       transform="rotate(4.0450806)"
       style="font-style:normal;font-variant:normal;font-weight:normal;font-stretch:normal;font-size:5.29166651px;line-height:6.61458302px;font-family:Purisa;-inkscape-font-specification:Purisa;letter-spacing:0px;word-spacing:0px;fill:#0055d4;fill-opacity:1;stroke:none;stroke-width:0.26458332px;stroke-linecap:butt;stroke-linejoin:miter;stroke-opacity:1"
       id="text834">
      <path
         d="m 137.63398,4.7125486 q 0,0.1552222 -0.11641,0.2794 -0.11642,0.1164167 -0.11642,0.1940278 0,0.085372 0.0543,0.2017889 0.0776,0.1707444 0.19402,0.20955 0.12418,0.038806 0.59761,0.038806 0.40358,0 0.60537,-0.046567 0.20179,-0.046567 0.38805,-0.1862667 0.30269,-0.2173111 0.37254,-0.3414889 0.0776,-0.1319389 0.0776,-0.4423833 0,-0.2328334 -0.0854,-0.3259667 -0.0854,-0.1008944 -0.4579,-0.2716389 -0.53552,-0.2483555 -0.69074,-0.2483555 -0.33373,0 -1.02447,-0.5820834 -0.68297,-0.5820833 -0.68297,-0.8692444 0,-0.4113389 0.4191,-0.9390945 0.4191,-0.53551669 0.93909,-0.78387225 0.26388,-0.13193889 1.00118,-0.13193889 0.32597,0 0.48895,0.0465667 0.16299,0.0465667 0.34925,0.20178889 0.13194,0.10865556 0.23284,0.25611667 0.10089,0.13970001 0.10089,0.21731111 0,0.1862667 -0.0621,0.1862667 -0.0621,0 -0.16298,-0.077611 -0.1009,-0.077611 -0.20955,-0.1629834 -0.10866,-0.093133 -0.31045,-0.17074442 -0.20178,-0.0776111 -0.44238,-0.0776111 -0.65193,0 -1.19521,0.47342783 -0.53552,0.4734277 -0.53552,1.0244666 0,0.4501445 1.59879,0.9623778 1.2573,0.3958167 1.2573,1.2340167 0,0.1707445 -0.0621,0.3958167 -0.1785,0.6053667 -0.60536,0.8382 -0.42686,0.2328334 -1.49014,0.3026834 l -0.6985,0.046567 -0.20955,-0.4346222 q -0.16298,-0.3182056 -0.16298,-0.6364111 0,-0.2638778 0.12418,-0.4268611 0.12418,-0.1629834 0.34925,-0.1629834 0.17074,0 0.17074,0.20955 z"
         style="font-style:normal;font-variant:normal;font-weight:normal;font-stretch:normal;font-size:7.76111126px;font-family:Purisa;-inkscape-font-specification:Purisa;fill:#0055d4;stroke-width:0.26458332px"
         id="path898" />
      <path
         d="m 142.57878,0.77766521 q 0,-0.28716112 -0.0543,-0.72954446 -0.0543,-0.44238334 -0.0543,-0.73730557 0,-0.14746111 0.008,-0.19402778 0.0233,-0.1241778 0.0854,-0.1940278 0.0698,-0.077611 0.1397,-0.077611 0.0931,0 0.13194,0.085372 0.0233,0.054328 0.0699,0.57432226 0.0466,0.51999446 0.0854,1.01670558 0.0388,0.49671116 0.0543,0.51223336 0.008,0.00776 0.0233,0.00776 0.0621,0 0.35701,-0.0620889 0.30268,-0.06985 0.49671,-0.06985 0.38806,0 0.38806,0.1707444 0,0.1707445 -0.85372,0.3802945 l -0.38806,0.093133 0.0466,1.3116278 q 0.0388,1.1564056 0.14746,2.1653501 0.10865,1.0011833 0.10865,1.1331222 0,0.2405945 -0.1785,0.2405945 -0.1397,0 -0.23284,-0.2483556 -0.0854,-0.2483555 -0.0854,-0.6441722 0,-0.2871611 -0.0233,-0.5820834 -0.0233,-0.3026833 -0.0854,-0.9313333 -0.0543,-0.6364111 -0.10866,-1.3038667 -0.0233,-0.3570111 -0.0388,-0.5510389 -0.008,-0.1940278 -0.0233,-0.2871611 -0.0155,-0.093133 -0.0233,-0.1086556 -0.008,-0.023283 -0.031,-0.023283 -0.12417,0 -0.5976,0.085372 -0.47343,0.085372 -0.58985,0.085372 -0.22507,0 -0.22507,-0.1862666 0,-0.1319389 0.2794,-0.2250723 0.28716,-0.093133 0.64417,-0.1629833 0.35702,-0.077611 0.44239,-0.1319389 0.0854,-0.062089 0.0854,-0.41133889 z"
         style="font-style:normal;font-variant:normal;font-weight:normal;font-stretch:normal;font-size:7.76111126px;font-family:Purisa;-inkscape-font-specification:Purisa;fill:#0055d4;stroke-width:0.26458332px"
         id="path900" />
      <path
         d="m 147.60434,2.3066041 q -0.35701,0 -0.76059,0.1474611 -0.39581,0.1474612 -0.70626,0.3026834 -0.31044,0.1474611 -0.45014,0.1474611 -0.0931,0 -0.0931,-0.077611 0,-0.1086556 0.0466,-0.1862667 0.0466,-0.077611 0.17074,-0.1474611 0.12418,-0.06985 0.23284,-0.1164167 0.11641,-0.046567 0.36477,-0.1319389 0.24836,-0.093133 0.42686,-0.1707444 0.4191,-0.1629833 0.70626,-0.1629833 0.51224,0 0.7994,0.5588 0.1397,0.2716389 0.16298,0.5044722 0.0233,0.2250722 0.0388,1.2805834 0.008,0.5898444 0.0233,0.9934222 0.0155,0.3958167 0.031,0.5044722 l 0.0155,0.1008945 q 0,0.1086555 -0.1009,0.2328333 -0.0931,0.1241778 -0.1397,0.1241778 -0.15522,0 -0.24059,-0.48895 -0.0854,-0.4967111 -0.0931,-0.4967111 -0.0233,0 -0.0699,0.085372 -0.15522,0.2561167 -0.62865,0.5665611 -0.46566,0.3026833 -0.78387,0.3026833 -0.19403,0 -0.4579,-0.06985 -0.25612,-0.077611 -0.37254,-0.1629833 -0.0854,-0.06985 -0.14746,-0.2794 -0.0543,-0.20955 -0.0543,-0.4268611 0,-0.3259667 0.17075,-0.5588 0.1785,-0.2405945 0.62865,-0.48895 0.48895,-0.2871612 0.94685,-0.2871612 0.18627,0 0.31045,0.062089 0.12418,0.062089 0.18626,0.1319389 0.0621,0.062089 0.1009,0.062089 0.031,0 0.14746,0.085372 0.11642,0.077611 0.12418,0.077611 0.031,0 0.031,-0.1707445 0,-1.0399889 -0.14746,-1.4435667 -0.1397,-0.4035778 -0.4191,-0.4035778 z m 0.34925,2.4059445 q 0,-0.031044 -0.0233,-0.06985 -0.0155,-0.046567 -0.0776,-0.1008944 -0.0543,-0.062089 -0.14746,-0.1086556 -0.0854,-0.054328 -0.2406,-0.085372 -0.15522,-0.038806 -0.34925,-0.038806 -0.33373,0 -0.58984,0.1164167 -0.24836,0.1164167 -0.37254,0.2949222 -0.12417,0.1785056 -0.18626,0.3337278 -0.0543,0.1474611 -0.0543,0.2638778 0,0.1940278 0.031,0.2638778 0.0388,0.06985 0.17851,0.1474611 0.17074,0.085372 0.31044,0.085372 0.26388,0 0.65194,-0.1862667 0.39581,-0.1940277 0.39581,-0.2794 0,-0.062089 0.23284,-0.2949222 0.24059,-0.2405944 0.24059,-0.3414889 z"
         style="font-style:normal;font-variant:normal;font-weight:normal;font-stretch:normal;font-size:7.76111126px;font-family:Purisa;-inkscape-font-specification:Purisa;fill:#0055d4;stroke-width:0.26458332px"
         id="path902" />
      <path
         d="m 153.08866,7.6384876 q 0.0699,0 0.12418,-0.015522 0.0621,-0.00776 0.10089,-0.031044 0.0388,-0.023283 0.0699,-0.046567 0.031,-0.023283 0.0466,-0.062089 0.0155,-0.031044 0.0233,-0.062089 0.0155,-0.023283 0.0155,-0.062089 0,-0.031044 0,-0.054328 0,-0.015522 0,-0.038806 v -0.023283 q 0,-0.7450667 -0.10089,-1.4125223 L 153.2594,5.154932 q -0.0543,-0.7916334 -0.10865,-0.7916334 -0.031,0 -0.11642,0.1397 -0.19403,0.2871611 -0.62865,0.6441722 -0.43462,0.3570112 -0.72178,0.4656667 -0.33373,0.1319389 -0.73731,0.1319389 -0.24835,0 -0.39582,-0.062089 -0.1397,-0.062089 -0.37253,-0.2638778 -0.22507,-0.2017888 -0.3182,-0.3570111 -0.0931,-0.1552222 -0.14747,-0.4423833 -0.0543,-0.2871611 -0.0543,-0.48895 0,-0.1474611 0.0233,-0.2173111 0.0543,-0.20955 0.28716,-0.6519334 0.23283,-0.4423833 0.42686,-0.6907389 0.16299,-0.2173111 0.60537,-0.5044722 0.45014,-0.2949222 0.79163,-0.4035778 0.36477,-0.1164167 0.81492,-0.1164167 0.57432,0 0.95462,0.2017889 0.38029,0.1940278 0.38029,0.6053667 0,0.2328333 -0.11642,0.5743222 -0.10865,0.3414889 -0.10865,0.5976056 0,0.2794 0.1785,2.5689278 l 0.11642,1.6065501 -0.27164,0.2173111 q -0.21731,0.1785055 -0.44238,0.1785055 -0.41134,0 -1.00119,-0.20955 -0.58984,-0.2017889 -1.0167,-0.4734278 -0.42686,-0.2638777 -0.42686,-0.4346222 0,-0.2017889 0.20955,-0.4967111 0.21731,-0.2949222 0.36477,-0.2949222 0.17074,0 0.17074,0.1164166 0,0.06985 -0.0699,0.20955 -0.0699,0.1397 -0.0699,0.2716389 0,0.2173111 0.28717,0.3802945 0.28716,0.1629833 0.48895,0.1629833 0.11641,0 0.38029,0.1552222 0.27164,0.1552223 0.47343,0.1552223 z m -2.94922,-3.5235445 q 0,0.4501444 0.23283,0.8226777 0.23283,0.3725334 0.58208,0.3725334 0.47343,0 1.01671,-0.4268611 0.55104,-0.4346223 0.89253,-1.0787945 0.18626,-0.3647722 0.3182,-0.8304389 0.1397,-0.4734278 0.1397,-0.7450667 0,-0.1552222 -0.0543,-0.1862667 -0.1785,-0.093133 -0.56656,-0.093133 -0.35701,0 -0.61313,0.077611 -0.67521,0.1940278 -1.31162,0.90805 -0.63641,0.7140223 -0.63641,1.179689 z"
         style="font-style:normal;font-variant:normal;font-weight:normal;font-stretch:normal;font-size:7.76111126px;font-family:Purisa;-inkscape-font-specification:Purisa;fill:#0055d4;stroke-width:0.26458332px"
         id="path904" />
      <path
         d="m 155.45677,1.7478041 q 0.10865,-0.093133 0.18626,-0.093133 0.16299,0 0.23284,0.5199944 0.0776,0.5122334 0.1397,1.9790834 0.031,0.6829778 0.031,1.2340167 0,0.5510389 -0.0466,0.6053667 -0.0931,0.1164166 -0.23283,0.1164166 -0.19403,0 -0.24059,-0.1629833 -0.0388,-0.1008944 -0.11642,-1.5677445 -0.0776,-1.4746111 -0.0776,-2.0489333 0,-0.4811889 0.12418,-0.5820834 z m -0.0466,-1.82386113 q 0,-0.10865556 0.0854,-0.21731111 0.0931,-0.10865556 0.16299,-0.10865556 0.0776,0 0.20955,0.10865556 0.1397,0.10089444 0.1397,0.26387778 0,0.11641667 -0.0699,0.20178889 -0.0621,0.0776111 -0.17075,0.0776111 -0.12418,0 -0.24059,-0.0931333 -0.11642,-0.09313334 -0.11642,-0.23283334 z"
         style="font-style:normal;font-variant:normal;font-weight:normal;font-stretch:normal;font-size:7.76111126px;font-family:Purisa;-inkscape-font-specification:Purisa;fill:#0055d4;stroke-width:0.26458332px"
         id="path906" />
      <path
         d="m 157.7024,1.9728763 q 0,-0.2638777 0.15522,-0.2638777 0.10089,0 0.14746,0.2328333 0.0466,0.2250722 0.17074,1.3504334 0.15523,1.2573 0.16299,1.2728222 0.008,0.00776 0.0621,-0.1474611 0.0621,-0.1629833 0.16298,-0.4811889 0.15522,-0.5122334 0.26388,-0.7373056 0.10865,-0.2328333 0.38805,-0.6364111 0.56656,-0.7838722 0.87701,-0.7838722 0.20179,0 0.38029,0.2716389 0.2406,0.3570111 0.29493,0.7062611 0.0543,0.34925 0.0776,1.6531167 0.0155,0.8382 0.0155,0.9934222 0,0.3880556 -0.031,0.5665611 -0.0233,0.1707445 -0.0776,0.20955 -0.0466,0.046567 -0.17074,0.054328 -0.0699,0 -0.0931,-0.062089 -0.0233,-0.054328 -0.0233,-0.2638777 0,-0.1164167 0.0155,-0.4967112 0.0155,-0.3880555 0.0155,-0.6519333 0,-0.6596945 -0.0543,-1.2883445 -0.0466,-0.6364111 -0.11642,-0.8149167 -0.0388,-0.1008944 -0.12418,-0.20955 -0.0854,-0.1086555 -0.16298,-0.1086555 -0.16298,0 -0.51999,0.5588 -0.35701,0.5510389 -0.61313,1.1641667 -0.2406,0.5588 -0.32597,0.8614833 -0.0776,0.2949223 -0.13194,0.8071556 -0.0854,0.7916333 -0.12417,0.7916333 -0.0621,0 -0.17851,-0.1319388 -0.0854,-0.085372 -0.11642,-0.3647723 -0.031,-0.2871611 -0.0854,-1.1253611 -0.0543,-0.8459611 -0.14746,-1.7074445 -0.0931,-0.8925278 -0.0931,-1.2184945 z"
         style="font-style:normal;font-variant:normal;font-weight:normal;font-stretch:normal;font-size:7.76111126px;font-family:Purisa;-inkscape-font-specification:Purisa;fill:#0055d4;stroke-width:0.26458332px"
         id="path908" />
      <path
         d="m 165.5034,7.6384876 q 0.0699,0 0.12418,-0.015522 0.0621,-0.00776 0.1009,-0.031044 0.0388,-0.023283 0.0699,-0.046567 0.031,-0.023283 0.0466,-0.062089 0.0155,-0.031044 0.0233,-0.062089 0.0155,-0.023283 0.0155,-0.062089 0,-0.031044 0,-0.054328 0,-0.015522 0,-0.038806 v -0.023283 q 0,-0.7450667 -0.1009,-1.4125223 L 165.67415,5.154932 q -0.0543,-0.7916334 -0.10866,-0.7916334 -0.031,0 -0.11641,0.1397 -0.19403,0.2871611 -0.62865,0.6441722 -0.43463,0.3570112 -0.72179,0.4656667 -0.33373,0.1319389 -0.7373,0.1319389 -0.24836,0 -0.39582,-0.062089 -0.1397,-0.062089 -0.37253,-0.2638778 -0.22508,-0.2017888 -0.31821,-0.3570111 -0.0931,-0.1552222 -0.14746,-0.4423833 -0.0543,-0.2871611 -0.0543,-0.48895 0,-0.1474611 0.0233,-0.2173111 0.0543,-0.20955 0.28716,-0.6519334 0.23283,-0.4423833 0.42686,-0.6907389 0.16298,-0.2173111 0.60536,-0.5044722 0.45015,-0.2949222 0.79164,-0.4035778 0.36477,-0.1164167 0.81491,-0.1164167 0.57433,0 0.95462,0.2017889 0.3803,0.1940278 0.3803,0.6053667 0,0.2328333 -0.11642,0.5743222 -0.10866,0.3414889 -0.10866,0.5976056 0,0.2794 0.17851,2.5689278 l 0.11642,1.6065501 -0.27164,0.2173111 q -0.21731,0.1785055 -0.44239,0.1785055 -0.41134,0 -1.00118,-0.20955 -0.58984,-0.2017889 -1.01671,-0.4734278 -0.42686,-0.2638777 -0.42686,-0.4346222 0,-0.2017889 0.20955,-0.4967111 0.21731,-0.2949222 0.36478,-0.2949222 0.17074,0 0.17074,0.1164166 0,0.06985 -0.0699,0.20955 -0.0699,0.1397 -0.0699,0.2716389 0,0.2173111 0.28716,0.3802945 0.28716,0.1629833 0.48895,0.1629833 0.11642,0 0.3803,0.1552222 0.27163,0.1552223 0.47342,0.1552223 z m -2.94922,-3.5235445 q 0,0.4501444 0.23283,0.8226777 0.23284,0.3725334 0.58209,0.3725334 0.47343,0 1.0167,-0.4268611 0.55104,-0.4346223 0.89253,-1.0787945 0.18627,-0.3647722 0.31821,-0.8304389 0.1397,-0.4734278 0.1397,-0.7450667 0,-0.1552222 -0.0543,-0.1862667 -0.17851,-0.093133 -0.56656,-0.093133 -0.35701,0 -0.61313,0.077611 -0.67522,0.1940278 -1.31163,0.90805 -0.63641,0.7140223 -0.63641,1.179689 z"
         style="font-style:normal;font-variant:normal;font-weight:normal;font-stretch:normal;font-size:7.76111126px;font-family:Purisa;-inkscape-font-specification:Purisa;fill:#0055d4;stroke-width:0.26458332px"
         id="path910" />
      <path
         d="m 175.68295,1.9651152 q 0.10866,0 0.24836,0.06985 0.14746,0.062089 0.31044,0.2017889 0.16298,0.1319389 0.27164,0.4113389 0.10866,0.2716389 0.10866,0.6364111 0,0.5432778 -0.24836,1.1331223 -0.24059,0.5820833 -0.67522,1.0167056 -0.32596,0.3259666 -0.86148,0.6208889 -0.52776,0.2949222 -0.78387,0.2949222 -0.25612,0 -0.57432,-0.1785056 -0.31821,-0.1785055 -0.35702,-0.3337277 -0.0233,-0.085372 -0.0854,-1.5677445 -0.0621,-1.4901334 -0.16298,-2.1110223 -0.20955,-1.3193889 -0.20955,-2.11102225 0,-0.28716112 0.10865,-0.39581667 0.11642,-0.11641667 0.18627,-0.11641667 0.11642,0 0.15522,0.28716111 0.0466,0.28716112 0.0931,0.94685558 0.0466,0.6596945 0.12417,1.1564056 0.1009,0.6519333 0.1397,1.0710333 l 0.0388,0.4268611 0.60537,-0.5976055 q 0.60536,-0.6053667 1.0167,-0.7373056 0.39582,-0.1241778 0.55104,-0.1241778 z m 0.48895,1.3581945 q 0,-0.8614833 -0.51223,-0.8614833 -0.13194,0 -0.3803,0.046567 -0.16298,0.031045 -0.54327,0.3725334 -0.3803,0.3337277 -0.69074,0.7217833 -0.19403,0.2483556 -0.31045,0.6596945 -0.10865,0.4113389 -0.10865,0.8071555 0,0.4423834 0.13194,0.6519334 0.13193,0.2017889 0.29492,0.2017889 0.0854,0 0.38805,-0.093133 0.34149,-0.1086555 0.71403,-0.4346222 0.38029,-0.3259667 0.65969,-0.7528278 0.35701,-0.5510389 0.35701,-1.3193889 z"
         style="font-style:normal;font-variant:normal;font-weight:normal;font-stretch:normal;font-size:7.76111126px;font-family:Purisa;-inkscape-font-specification:Purisa;fill:#0055d4;stroke-width:0.26458332px"
         id="path912" />
      <path
         d="m 177.6721,3.4397264 q 0,-1.4513278 0.21731,-1.4513278 0.0388,0 0.0776,0.015522 0.0466,0.015522 0.10865,0.1164167 0.0621,0.093133 0.0621,0.2638777 0,0.077611 -0.0155,0.2638778 -0.0155,0.1785056 -0.0155,0.4035778 0,0.62865 0.0699,1.5289389 0.0699,0.9002889 0.14746,1.1796889 0.0776,0.3026834 0.26388,0.3026834 0.1785,0 0.54328,-0.3182056 0.45014,-0.3958167 0.86148,-1.2340167 0.4191,-0.8382 0.58208,-1.6764 0.15522,-0.8226778 0.25612,-0.8770056 0.0776,-0.054328 0.16298,-0.054328 0.18627,0 0.18627,0.2173112 0,0.1086555 -0.11642,0.90805 -0.10865,0.7993944 -0.10865,1.1486444 0,0.4889501 0.19402,1.2184945 0.20179,0.7217834 0.20179,0.8226778 0,0.077611 -0.0621,0.1241778 -0.0621,0.046567 -0.10865,0.054328 -0.0388,0.015522 -0.0621,0.015522 -0.1397,0 -0.2794,-0.3958167 -0.13194,-0.3958167 -0.24059,-0.7916333 -0.1009,-0.3958167 -0.17851,-0.3958167 -0.0155,0 -0.031,0.00776 -0.0155,0.00776 -0.0388,0.031044 -0.0155,0.015522 -0.031,0.038806 -0.0155,0.023283 -0.0466,0.062089 -0.0233,0.038806 -0.0466,0.06985 -0.0155,0.031044 -0.0543,0.093133 -0.0388,0.062089 -0.0621,0.1008945 -0.34149,0.5355166 -0.76059,0.8925278 -0.41134,0.3570111 -0.6985,0.3570111 -0.32597,0 -0.48895,-0.1474611 -0.16299,-0.1397 -0.26388,-0.5122334 -0.0931,-0.3725333 -0.17075,-1.1796889 -0.0543,-0.5122333 -0.0543,-1.2029722 z"
         style="font-style:normal;font-variant:normal;font-weight:normal;font-stretch:normal;font-size:7.76111126px;font-family:Purisa;-inkscape-font-specification:Purisa;fill:#0055d4;stroke-width:0.26458332px"
         id="path914" />
      <path
         d="m 183.51209,2.9585375 q -0.0931,0 -0.39581,0.085372 -0.29493,0.077611 -0.47343,0.077611 -0.34149,0 -0.34149,-0.2173111 0,-0.085372 0.12418,-0.1552222 0.13194,-0.06985 0.50447,-0.1785056 l 0.62865,-0.1862667 0.0155,-0.9546166 q 0.0155,-0.72178339 0.10866,-1.59102785 0.0699,-0.64417224 0.12417,-0.81491668 0.0543,-0.17074447 0.2406,-0.35701117 0.15522,-0.1552222 0.24835,-0.2017888 0.1009,-0.046567 0.2794,-0.046567 0.13194,0 0.5588,0.038805 0.32597,0.031045 0.46567,0.093133 0.1397,0.054328 0.31821,0.2328333 0.26387,0.2638778 0.26387,0.48118891 0,0.15522223 -0.12417,0.32596668 -0.11642,0.16298333 -0.17851,0.16298333 -0.0931,0 -0.0931,-0.26387778 0,-0.24835556 -0.1397,-0.38029445 -0.13194,-0.13969999 -0.52,-0.26387779 -0.25611,-0.077611 -0.39581,-0.077611 -0.33373,0 -0.52,0.38805556 -0.0699,0.15522222 -0.13194,1.01670557 -0.0543,0.86148337 -0.0543,1.49789447 0,0.4423833 0.031,0.5588 0.0388,0.1086556 0.19403,0.1086556 0.26388,0 0.877,-0.1397 0.20179,-0.046567 0.31045,-0.038806 0.11641,0 0.56656,-0.1474611 l 0.62865,-0.1862667 0.0155,-0.3958166 q 0.0388,-0.96237784 0.10866,-1.59102785 0.0699,-0.64417224 0.12417,-0.81491668 0.0543,-0.17074447 0.2406,-0.35701117 0.15522,-0.1552222 0.24835,-0.2017888 0.1009,-0.046567 0.2794,-0.046567 0.13194,0 0.5588,0.038805 0.32597,0.031045 0.46567,0.093133 0.1397,0.054328 0.31821,0.2328333 0.26387,0.2638778 0.26387,0.48118891 0,0.15522223 -0.12417,0.32596668 -0.11642,0.16298333 -0.17851,0.16298333 -0.0931,0 -0.0931,-0.26387778 0,-0.24835556 -0.1397,-0.38029445 -0.13194,-0.13969999 -0.52,-0.26387779 -0.25611,-0.077611 -0.39581,-0.077611 -0.33373,0 -0.52,0.38805556 -0.0776,0.16298333 -0.13194,0.76835001 -0.0543,0.60536668 -0.0543,1.18745003 0,0.4423833 0.031,0.5588 0.0388,0.1086556 0.19403,0.1086556 0.0931,0 0.38805,-0.054328 0.29493,-0.054328 0.48895,-0.054328 0.10866,0 0.17851,0.038806 0.0699,0.031044 0.0699,0.077611 0,0.1319389 -0.66746,0.3337278 l -0.66745,0.1940277 -0.0233,1.5134167 q 0,0.093133 -0.008,0.2561167 0,0.1552222 0,0.2173111 0,0.5820834 0.0543,0.9002889 0.0543,0.3182056 0.10866,0.4579056 0.0543,0.1397 0.0543,0.3026833 0,0.2328334 -0.21731,0.2328334 -0.41134,0 -0.41134,-2.1653501 0,-1.5755056 -0.0466,-1.6220722 -0.008,-0.00776 -0.0388,-0.00776 -0.34149,0 -1.05551,0.1552222 -0.71402,0.1474611 -0.82268,0.1552222 -0.12417,0.00776 -0.29492,0.054328 -0.16298,0.038806 -0.27164,0.06985 l -0.10089,0.038806 -0.0233,0.9546167 q -0.008,0.1785056 -0.008,0.4734278 0,0.5820834 0.0543,0.9002889 0.0543,0.3182056 0.10866,0.4579056 0.0543,0.1397 0.0543,0.3026833 0,0.2328334 -0.21731,0.2328334 -0.41134,0 -0.41134,-2.1653501 0,-1.0167055 -0.0466,-1.0632722 -0.008,-0.00776 -0.0388,-0.00776 z"
         style="font-style:normal;font-variant:normal;font-weight:normal;font-stretch:normal;font-size:7.76111126px;font-family:Purisa;-inkscape-font-specification:Purisa;fill:#0055d4;stroke-width:0.26458332px"
         id="path916" />
      <path
         d="m 194.10237,4.5029986 q 0.0388,0 0.0388,0.062089 0,0.1397 -0.20955,0.4501445 -0.20179,0.3104444 -0.43462,0.5122333 -0.81492,0.7217833 -1.62984,0.7217833 -0.31044,0 -0.62089,-0.1397 -0.30268,-0.1474611 -0.56656,-0.4113389 -0.26388,-0.2638777 -0.42686,-0.7062611 -0.16298,-0.4423833 -0.16298,-0.9856611 0,-0.3337278 0.0776,-0.5665611 0.15522,-0.4734278 0.65969,-1.0011834 0.51224,-0.5277555 0.96238,-0.5277555 0.12418,0 0.37253,0.023283 0.37254,0.031044 0.52,0.077611 0.15522,0.046567 0.34925,0.1940278 0.24835,0.1862667 0.42686,0.4811889 0.18627,0.2871611 0.18627,0.4811889 0,0.2483555 -0.19403,0.3802944 -0.19403,0.1241778 -0.75283,0.2483556 -0.72178,0.1629833 -1.42804,0.2017889 l -0.72179,0.038806 v 0.3104445 q 0,0.5743222 0.53552,1.0865556 0.40358,0.3880555 0.8382,0.3880555 0.33373,0 0.70626,-0.2017889 0.3803,-0.20955 0.64417,-0.4579055 0.26388,-0.2483556 0.50448,-0.4501445 0.24059,-0.20955 0.32596,-0.20955 z m -1.24954,-1.8937111 q -0.24059,-0.2173111 -0.36477,-0.2716389 -0.11642,-0.062089 -0.31044,-0.062089 -0.38806,0 -0.58209,0.077611 -0.18626,0.06985 -0.38029,0.2949222 -0.58985,0.6752167 -0.58985,0.9002889 0,0.1008945 0.18627,0.1008945 0.70626,0 2.00237,-0.2949223 0.38805,-0.093133 0.38805,-0.3259666 0,-0.1086556 -0.34925,-0.4191 z"
         style="font-style:normal;font-variant:normal;font-weight:normal;font-stretch:normal;font-size:7.76111126px;font-family:Purisa;-inkscape-font-specification:Purisa;fill:#0055d4;stroke-width:0.26458332px"
         id="path918" />
      <path
         d="m 197.69722,2.3997375 q 0.13194,0 0.23283,0.085372 0.1009,0.077611 0.1009,0.1319389 0,0.093133 -0.29492,0.20955 -0.48119,0.1940278 -0.98567,0.9390944 -0.49671,0.7373056 -0.60536,1.4280445 -0.12418,0.7838723 -0.20179,1.0244667 -0.0776,0.2483556 -0.20179,0.2483556 -0.10866,0 -0.17075,-0.077611 -0.0543,-0.077611 -0.0776,-0.1707445 -0.0155,-0.093133 -0.0388,-0.3414889 -0.008,-0.046567 -0.008,-0.06985 -0.18627,-1.9558 -0.18627,-3.0889223 0,-0.4035778 0.031,-0.4967111 0.0854,-0.2483556 0.21732,-0.2483556 0.12417,0 0.12417,0.20955 0,0.3492501 0.10866,1.1253612 0.10865,0.7761111 0.16298,0.7761111 0.0699,0 0.28716,-0.4268611 0.27164,-0.5044722 0.72179,-0.8770056 0.4579,-0.3802944 0.78387,-0.3802944 z"
         style="font-style:normal;font-variant:normal;font-weight:normal;font-stretch:normal;font-size:7.76111126px;font-family:Purisa;-inkscape-font-specification:Purisa;fill:#0055d4;stroke-width:0.26458332px"
         id="path920" />
    </g>
    <path
       style="fill:none;fill-rule:evenodd;stroke:#000000;stroke-width:1;stroke-linecap:round;stroke-linejoin:round;stroke-miterlimit:4;stroke-dasharray:none;stroke-opacity:1"
       d="m 14.03165,96.815123 c 0,8.018087 30.735995,-1.069078 30.869631,7.349907 2.405424,-8.151721 52.844892,-0.4264 52.919364,-6.01356"
       id="path836"
       inkscape:connector-curvature="0"
       sodipodi:nodetypes="ccc" />
    <path
       sodipodi:nodetypes="ccc"
       inkscape:connector-curvature="0"
       id="path838"
       d="m 171.97818,98.148927 c 0,8.018083 -10.28013,-2.429744 -10.41377,5.989243 -2.40542,-8.151723 -20.41842,0.18642 -20.49289,-5.400741"
       style="fill:none;fill-rule:evenodd;stroke:#000000;stroke-width:1;stroke-linecap:round;stroke-linejoin:round;stroke-miterlimit:4;stroke-dasharray:none;stroke-opacity:1" />
    <g
       aria-label="static data"
       transform="rotate(4.0450806)"
       style="font-style:normal;font-variant:normal;font-weight:normal;font-stretch:normal;font-size:5.29166651px;line-height:6.61458302px;font-family:Purisa;-inkscape-font-specification:Purisa;letter-spacing:0px;word-spacing:0px;fill:#0055d4;fill-opacity:1;stroke:none;stroke-width:0.26458332px;stroke-linecap:butt;stroke-linejoin:miter;stroke-opacity:1"
       id="text842">
      <path
         d="m 29.158459,112.05711 q -0.116416,0 -0.496711,-0.2794 -0.380294,-0.28717 -0.380294,-0.58209 0,-0.2794 0.395817,-0.76835 0.395816,-0.49671 0.954616,-0.63641 0.248356,-0.0698 0.675217,-0.0698 0.178506,0 0.263878,0.0466 0.08537,0.0466 0.232833,0.20955 0.240595,0.27164 0.240595,0.37253 0,0.0931 -0.100895,0.0931 -0.124178,0 -0.20955,-0.0854 -0.08537,-0.0931 -0.20955,-0.18626 -0.124178,-0.0931 -0.333728,-0.0931 -0.271639,0 -0.582083,0.14746 -0.310445,0.14746 -0.551039,0.41134 -0.341489,0.36477 -0.341489,0.49671 0,0.13194 0.201789,0.31821 0.201789,0.1785 0.675217,0.34149 0.745066,0.25611 1.008944,0.48119 0.263878,0.22507 0.263878,0.60536 0,0.35701 -0.124178,0.65194 -0.08537,0.22507 -0.364772,0.50447 -0.2794,0.2794 -0.551039,0.2794 -0.20955,0 -0.543278,-0.0699 -0.333728,-0.0621 -0.504472,-0.14746 -0.1397,-0.0699 -0.256117,-0.27164 -0.116416,-0.20955 -0.116416,-0.37253 0,-0.0854 0.0388,-0.14747 0.04657,-0.0699 0.108656,-0.0699 0.116416,0 0.217311,0.21732 0.09313,0.19402 0.372533,0.34925 0.287161,0.15522 0.535517,0.15522 0.333728,0 0.589844,-0.39582 0.256117,-0.40358 0.256117,-0.62865 0,-0.0543 -0.03104,-0.13194 -0.02328,-0.0854 -0.131939,-0.20179 -0.108656,-0.11641 -0.2794,-0.1785 -0.162984,-0.0543 -0.380295,-0.14746 -0.217311,-0.0931 -0.364772,-0.15523 -0.1397,-0.0621 -0.178506,-0.0621 z"
         style="font-style:normal;font-variant:normal;font-weight:normal;font-stretch:normal;font-size:7.76111126px;font-family:Purisa;-inkscape-font-specification:Purisa;fill:#0055d4;stroke-width:0.26458332px"
         id="path854" />
      <path
         d="m 33.38972,108.48699 q 0,-0.28716 -0.05433,-0.72954 -0.05433,-0.44238 -0.05433,-0.73731 0,-0.14746 0.0078,-0.19402 0.02328,-0.12418 0.08537,-0.19403 0.06985,-0.0776 0.1397,-0.0776 0.09313,0 0.131939,0.0854 0.02328,0.0543 0.06985,0.57432 0.04657,0.52 0.08537,1.01671 0.03881,0.49671 0.05433,0.51223 0.0078,0.008 0.02328,0.008 0.06209,0 0.357011,-0.0621 0.302684,-0.0698 0.496712,-0.0698 0.388055,0 0.388055,0.17075 0,0.17074 -0.853722,0.38029 l -0.388056,0.0931 0.04657,1.31163 q 0.03881,1.15641 0.147461,2.16535 0.108656,1.00119 0.108656,1.13313 0,0.24059 -0.178506,0.24059 -0.1397,0 -0.232833,-0.24836 -0.08537,-0.24835 -0.08537,-0.64417 0,-0.28716 -0.02328,-0.58208 -0.02328,-0.30268 -0.08537,-0.93133 -0.05433,-0.63642 -0.108656,-1.30387 -0.02328,-0.35701 -0.03881,-0.55104 -0.0078,-0.19403 -0.02328,-0.28716 -0.01552,-0.0931 -0.02328,-0.10866 -0.0078,-0.0233 -0.03104,-0.0233 -0.124178,0 -0.597606,0.0854 -0.473428,0.0854 -0.589844,0.0854 -0.225072,0 -0.225072,-0.18626 0,-0.13194 0.2794,-0.22508 0.287161,-0.0931 0.644172,-0.16298 0.357011,-0.0776 0.442383,-0.13194 0.08537,-0.0621 0.08537,-0.41134 z"
         style="font-style:normal;font-variant:normal;font-weight:normal;font-stretch:normal;font-size:7.76111126px;font-family:Purisa;-inkscape-font-specification:Purisa;fill:#0055d4;stroke-width:0.26458332px"
         id="path856" />
      <path
         d="m 38.415282,110.01593 q -0.357011,0 -0.760589,0.14746 -0.395816,0.14747 -0.706261,0.30269 -0.310444,0.14746 -0.450144,0.14746 -0.09313,0 -0.09313,-0.0776 0,-0.10866 0.04657,-0.18627 0.04657,-0.0776 0.170745,-0.14746 0.124177,-0.0699 0.232833,-0.11642 0.116417,-0.0466 0.364772,-0.13194 0.248356,-0.0931 0.426861,-0.17074 0.4191,-0.16298 0.706261,-0.16298 0.512234,0 0.799395,0.5588 0.1397,0.27164 0.162983,0.50447 0.02328,0.22507 0.03881,1.28058 0.0078,0.58985 0.02328,0.99342 0.01552,0.39582 0.03104,0.50448 l 0.01552,0.10089 q 0,0.10866 -0.100895,0.23283 -0.09313,0.12418 -0.1397,0.12418 -0.155222,0 -0.240594,-0.48895 -0.08537,-0.49671 -0.09313,-0.49671 -0.02328,0 -0.06985,0.0854 -0.155223,0.25612 -0.62865,0.56656 -0.465667,0.30269 -0.783873,0.30269 -0.194027,0 -0.457905,-0.0699 -0.256117,-0.0776 -0.372534,-0.16299 -0.08537,-0.0699 -0.147461,-0.2794 -0.05433,-0.20955 -0.05433,-0.42686 0,-0.32596 0.170744,-0.5588 0.178506,-0.24059 0.62865,-0.48895 0.48895,-0.28716 0.946856,-0.28716 0.186266,0 0.310444,0.0621 0.124178,0.0621 0.186267,0.13194 0.06209,0.0621 0.100894,0.0621 0.03104,0 0.147461,0.0854 0.116417,0.0776 0.124178,0.0776 0.03104,0 0.03104,-0.17074 0,-1.03999 -0.147461,-1.44357 -0.1397,-0.40358 -0.4191,-0.40358 z m 0.34925,2.40595 q 0,-0.0311 -0.02328,-0.0699 -0.01552,-0.0466 -0.07761,-0.1009 -0.05433,-0.0621 -0.147461,-0.10865 -0.08537,-0.0543 -0.240595,-0.0854 -0.155222,-0.0388 -0.34925,-0.0388 -0.333727,0 -0.589844,0.11642 -0.248356,0.11641 -0.372533,0.29492 -0.124178,0.1785 -0.186267,0.33373 -0.05433,0.14746 -0.05433,0.26387 0,0.19403 0.03104,0.26388 0.03881,0.0698 0.178505,0.14746 0.170745,0.0854 0.310445,0.0854 0.263877,0 0.651933,-0.18627 0.395817,-0.19403 0.395817,-0.2794 0,-0.0621 0.232833,-0.29492 0.240594,-0.2406 0.240594,-0.34149 z"
         style="font-style:normal;font-variant:normal;font-weight:normal;font-stretch:normal;font-size:7.76111126px;font-family:Purisa;-inkscape-font-specification:Purisa;fill:#0055d4;stroke-width:0.26458332px"
         id="path858" />
      <path
         d="m 41.74201,108.48699 q 0,-0.28716 -0.05433,-0.72954 -0.05433,-0.44238 -0.05433,-0.73731 0,-0.14746 0.0078,-0.19402 0.02328,-0.12418 0.08537,-0.19403 0.06985,-0.0776 0.1397,-0.0776 0.09313,0 0.131939,0.0854 0.02328,0.0543 0.06985,0.57432 0.04657,0.52 0.08537,1.01671 0.03881,0.49671 0.05433,0.51223 0.0078,0.008 0.02328,0.008 0.06209,0 0.357011,-0.0621 0.302683,-0.0698 0.496711,-0.0698 0.388056,0 0.388056,0.17075 0,0.17074 -0.853722,0.38029 l -0.388056,0.0931 0.04657,1.31163 q 0.03881,1.15641 0.147461,2.16535 0.108655,1.00119 0.108655,1.13313 0,0.24059 -0.178505,0.24059 -0.1397,0 -0.232834,-0.24836 -0.08537,-0.24835 -0.08537,-0.64417 0,-0.28716 -0.02328,-0.58208 -0.02328,-0.30268 -0.08537,-0.93133 -0.05433,-0.63642 -0.108656,-1.30387 -0.02328,-0.35701 -0.0388,-0.55104 -0.0078,-0.19403 -0.02328,-0.28716 -0.01552,-0.0931 -0.02328,-0.10866 -0.0078,-0.0233 -0.03104,-0.0233 -0.124177,0 -0.597605,0.0854 -0.473428,0.0854 -0.589845,0.0854 -0.225072,0 -0.225072,-0.18626 0,-0.13194 0.2794,-0.22508 0.287161,-0.0931 0.644172,-0.16298 0.357012,-0.0776 0.442384,-0.13194 0.08537,-0.0621 0.08537,-0.41134 z"
         style="font-style:normal;font-variant:normal;font-weight:normal;font-stretch:normal;font-size:7.76111126px;font-family:Purisa;-inkscape-font-specification:Purisa;fill:#0055d4;stroke-width:0.26458332px"
         id="path860" />
      <path
         d="m 44.842816,109.45713 q 0.108656,-0.0931 0.186267,-0.0931 0.162983,0 0.232833,0.51999 0.07761,0.51224 0.1397,1.97909 0.03105,0.68298 0.03105,1.23401 0,0.55104 -0.04657,0.60537 -0.09313,0.11642 -0.232833,0.11642 -0.194028,0 -0.240595,-0.16299 -0.03881,-0.10089 -0.116416,-1.56774 -0.07761,-1.47461 -0.07761,-2.04893 0,-0.48119 0.124177,-0.58209 z m -0.04657,-1.82386 q 0,-0.10865 0.08537,-0.21731 0.09313,-0.10866 0.162983,-0.10866 0.07761,0 0.20955,0.10866 0.1397,0.10089 0.1397,0.26388 0,0.11641 -0.06985,0.20179 -0.06209,0.0776 -0.170744,0.0776 -0.124178,0 -0.240595,-0.0931 -0.116416,-0.0931 -0.116416,-0.23283 z"
         style="font-style:normal;font-variant:normal;font-weight:normal;font-stretch:normal;font-size:7.76111126px;font-family:Purisa;-inkscape-font-specification:Purisa;fill:#0055d4;stroke-width:0.26458332px"
         id="path862" />
      <path
         d="m 50.029907,110.761 q 0,0.13194 -0.06209,0.21731 -0.05433,0.0854 -0.131938,0.0854 -0.147462,0 -0.186267,-0.22507 -0.01552,-0.1785 -0.256117,-0.45014 -0.100894,-0.10866 -0.162983,-0.15523 -0.06209,-0.0466 -0.294922,-0.10089 -0.225073,-0.0543 -0.597606,-0.0543 -0.302683,0 -0.465667,0.10866 -0.155222,0.10865 -0.388055,0.44238 -0.5588,0.79163 -0.5588,1.42805 0,0.32596 0.06985,0.55103 0.06985,0.21732 0.131939,0.29493 0.06985,0.0699 0.225072,0.22507 0.225072,0.21731 0.341489,0.2794 0.124178,0.0543 0.341489,0.0543 0.675216,0 1.474611,-0.91581 0.4191,-0.46567 0.605367,-0.46567 0.100894,0 0.100894,0.14746 0,0.1397 -0.372533,0.59761 -0.364773,0.4579 -0.62865,0.64417 -0.613128,0.44238 -1.094317,0.44238 -0.34925,0 -0.76835,-0.20955 -0.426861,-0.20955 -0.620889,-0.56656 -0.186267,-0.35701 -0.225072,-1.03999 -0.02328,-0.26388 -0.02328,-0.4191 0,-0.30268 0.20955,-0.69074 0.217312,-0.4191 0.62865,-0.80715 0.4191,-0.38806 0.721784,-0.47343 0.232833,-0.0543 0.504472,-0.0543 0.589845,0 1.032228,0.3803 0.450144,0.37253 0.450144,0.72954 z"
         style="font-style:normal;font-variant:normal;font-weight:normal;font-stretch:normal;font-size:7.76111126px;font-family:Purisa;-inkscape-font-specification:Purisa;fill:#0055d4;stroke-width:0.26458332px"
         id="path864" />
      <path
         d="m 60.513956,113.95858 q 0,0.17074 -0.06985,0.26388 -0.06209,0.10089 -0.116417,0.11641 -0.04657,0.0233 -0.08537,0.0233 -0.100895,0 -0.170745,-0.0699 -0.06985,-0.0621 -0.108655,-0.23284 -0.03881,-0.16298 -0.05433,-0.24835 -0.0078,-0.0854 -0.03104,-0.31821 -0.05433,-0.78387 -0.124178,-0.78387 -0.08537,0 -0.271639,0.22507 -0.869244,1.02447 -1.831622,1.02447 -0.287161,0 -0.574322,-0.10866 -0.993423,-0.37253 -0.993423,-1.52118 0,-0.49671 0.162984,-0.94685 0.170744,-0.45791 0.426861,-0.76835 0.263878,-0.31045 0.527755,-0.52 0.263878,-0.20955 0.504473,-0.29492 0.302683,-0.11642 0.4191,-0.11642 0.201788,0 0.675216,0.26388 0.481189,0.26388 0.667456,0.51224 0.20955,0.2794 0.318205,0.2794 0.0078,0 0.0078,0 0,-0.008 0.0078,-0.008 0.08537,-0.0543 0.08537,-2.02566 0,-1.94803 0.09313,-2.21191 0.100895,-0.2406 0.302683,-0.2406 h 0.20955 l -0.06209,3.18982 q -0.02328,1.18745 -0.02328,2.11878 0,1.26507 0.05433,1.80834 0.05433,0.54328 0.05433,0.58985 z m -1.8161,-3.43817 q -0.457906,-0.30269 -0.636411,-0.30269 -0.155223,0 -0.6985,0.52776 -0.543278,0.52775 -0.644173,0.77611 -0.07761,0.18627 -0.07761,0.67522 0,0.5976 0.100895,0.77611 0.07761,0.1397 0.372533,0.30268 0.302683,0.16298 0.597606,0.16298 0.527755,0 1.334911,-0.77611 0.636411,-0.61313 0.636411,-0.79939 0,-0.25612 -0.325967,-0.68298 -0.318205,-0.42686 -0.659694,-0.65969 z"
         style="font-style:normal;font-variant:normal;font-weight:normal;font-stretch:normal;font-size:7.76111126px;font-family:Purisa;-inkscape-font-specification:Purisa;fill:#0055d4;stroke-width:0.26458332px"
         id="path866" />
      <path
         d="m 63.896587,110.01593 q -0.357011,0 -0.760589,0.14746 -0.395817,0.14747 -0.706261,0.30269 -0.310444,0.14746 -0.450144,0.14746 -0.09313,0 -0.09313,-0.0776 0,-0.10866 0.04657,-0.18627 0.04657,-0.0776 0.170744,-0.14746 0.124178,-0.0699 0.232834,-0.11642 0.116416,-0.0466 0.364772,-0.13194 0.248355,-0.0931 0.426861,-0.17074 0.4191,-0.16298 0.706261,-0.16298 0.512233,0 0.799395,0.5588 0.1397,0.27164 0.162983,0.50447 0.02328,0.22507 0.0388,1.28058 0.0078,0.58985 0.02328,0.99342 0.01552,0.39582 0.03104,0.50448 l 0.01552,0.10089 q 0,0.10866 -0.100894,0.23283 -0.09313,0.12418 -0.1397,0.12418 -0.155222,0 -0.240594,-0.48895 -0.08537,-0.49671 -0.09313,-0.49671 -0.02328,0 -0.06985,0.0854 -0.155222,0.25612 -0.62865,0.56656 -0.465666,0.30269 -0.783872,0.30269 -0.194028,0 -0.457906,-0.0699 -0.256116,-0.0776 -0.372533,-0.16299 -0.08537,-0.0699 -0.147461,-0.2794 -0.05433,-0.20955 -0.05433,-0.42686 0,-0.32596 0.170745,-0.5588 0.178505,-0.24059 0.62865,-0.48895 0.48895,-0.28716 0.946855,-0.28716 0.186267,0 0.310445,0.0621 0.124177,0.0621 0.186266,0.13194 0.06209,0.0621 0.100895,0.0621 0.03104,0 0.147461,0.0854 0.116417,0.0776 0.124178,0.0776 0.03104,0 0.03104,-0.17074 0,-1.03999 -0.147461,-1.44357 -0.1397,-0.40358 -0.4191,-0.40358 z m 0.34925,2.40595 q 0,-0.0311 -0.02328,-0.0699 -0.01552,-0.0466 -0.07761,-0.1009 -0.05433,-0.0621 -0.147462,-0.10865 -0.08537,-0.0543 -0.240594,-0.0854 -0.155222,-0.0388 -0.34925,-0.0388 -0.333728,0 -0.589844,0.11642 -0.248356,0.11641 -0.372534,0.29492 -0.124178,0.1785 -0.186266,0.33373 -0.05433,0.14746 -0.05433,0.26387 0,0.19403 0.03104,0.26388 0.03881,0.0698 0.178506,0.14746 0.170744,0.0854 0.310444,0.0854 0.263878,0 0.651934,-0.18627 0.395816,-0.19403 0.395816,-0.2794 0,-0.0621 0.232834,-0.29492 0.240594,-0.2406 0.240594,-0.34149 z"
         style="font-style:normal;font-variant:normal;font-weight:normal;font-stretch:normal;font-size:7.76111126px;font-family:Purisa;-inkscape-font-specification:Purisa;fill:#0055d4;stroke-width:0.26458332px"
         id="path868" />
      <path
         d="m 67.223313,108.48699 q 0,-0.28716 -0.05433,-0.72954 -0.05433,-0.44238 -0.05433,-0.73731 0,-0.14746 0.0078,-0.19402 0.02328,-0.12418 0.08537,-0.19403 0.06985,-0.0776 0.1397,-0.0776 0.09313,0 0.131939,0.0854 0.02328,0.0543 0.06985,0.57432 0.04657,0.52 0.08537,1.01671 0.03881,0.49671 0.05433,0.51223 0.0078,0.008 0.02328,0.008 0.06209,0 0.357011,-0.0621 0.302684,-0.0698 0.496711,-0.0698 0.388056,0 0.388056,0.17075 0,0.17074 -0.853722,0.38029 l -0.388056,0.0931 0.04657,1.31163 q 0.0388,1.15641 0.147461,2.16535 0.108656,1.00119 0.108656,1.13313 0,0.24059 -0.178506,0.24059 -0.1397,0 -0.232833,-0.24836 -0.08537,-0.24835 -0.08537,-0.64417 0,-0.28716 -0.02328,-0.58208 -0.02328,-0.30268 -0.08537,-0.93133 -0.05433,-0.63642 -0.108656,-1.30387 -0.02328,-0.35701 -0.0388,-0.55104 -0.0078,-0.19403 -0.02328,-0.28716 -0.01552,-0.0931 -0.02328,-0.10866 -0.0078,-0.0233 -0.03104,-0.0233 -0.124178,0 -0.597606,0.0854 -0.473428,0.0854 -0.589844,0.0854 -0.225073,0 -0.225073,-0.18626 0,-0.13194 0.2794,-0.22508 0.287162,-0.0931 0.644173,-0.16298 0.357011,-0.0776 0.442383,-0.13194 0.08537,-0.0621 0.08537,-0.41134 z"
         style="font-style:normal;font-variant:normal;font-weight:normal;font-stretch:normal;font-size:7.76111126px;font-family:Purisa;-inkscape-font-specification:Purisa;fill:#0055d4;stroke-width:0.26458332px"
         id="path870" />
      <path
         d="m 72.248878,110.01593 q -0.357011,0 -0.760589,0.14746 -0.395816,0.14747 -0.706261,0.30269 -0.310444,0.14746 -0.450144,0.14746 -0.09313,0 -0.09313,-0.0776 0,-0.10866 0.04657,-0.18627 0.04657,-0.0776 0.170744,-0.14746 0.124178,-0.0699 0.232834,-0.11642 0.116416,-0.0466 0.364772,-0.13194 0.248356,-0.0931 0.426861,-0.17074 0.4191,-0.16298 0.706261,-0.16298 0.512234,0 0.799395,0.5588 0.1397,0.27164 0.162983,0.50447 0.02328,0.22507 0.03881,1.28058 0.0078,0.58985 0.02328,0.99342 0.01552,0.39582 0.03104,0.50448 l 0.01552,0.10089 q 0,0.10866 -0.100895,0.23283 -0.09313,0.12418 -0.1397,0.12418 -0.155222,0 -0.240594,-0.48895 -0.08537,-0.49671 -0.09313,-0.49671 -0.02328,0 -0.06985,0.0854 -0.155222,0.25612 -0.62865,0.56656 -0.465666,0.30269 -0.783872,0.30269 -0.194028,0 -0.457905,-0.0699 -0.256117,-0.0776 -0.372534,-0.16299 -0.08537,-0.0699 -0.147461,-0.2794 -0.05433,-0.20955 -0.05433,-0.42686 0,-0.32596 0.170745,-0.5588 0.178505,-0.24059 0.62865,-0.48895 0.48895,-0.28716 0.946855,-0.28716 0.186267,0 0.310445,0.0621 0.124178,0.0621 0.186266,0.13194 0.06209,0.0621 0.100895,0.0621 0.03104,0 0.147461,0.0854 0.116417,0.0776 0.124178,0.0776 0.03104,0 0.03104,-0.17074 0,-1.03999 -0.147461,-1.44357 -0.1397,-0.40358 -0.4191,-0.40358 z m 0.34925,2.40595 q 0,-0.0311 -0.02328,-0.0699 -0.01552,-0.0466 -0.07761,-0.1009 -0.05433,-0.0621 -0.147461,-0.10865 -0.08537,-0.0543 -0.240595,-0.0854 -0.155222,-0.0388 -0.34925,-0.0388 -0.333728,0 -0.589844,0.11642 -0.248356,0.11641 -0.372534,0.29492 -0.124177,0.1785 -0.186266,0.33373 -0.05433,0.14746 -0.05433,0.26387 0,0.19403 0.03104,0.26388 0.03881,0.0698 0.178506,0.14746 0.170744,0.0854 0.310444,0.0854 0.263878,0 0.651934,-0.18627 0.395816,-0.19403 0.395816,-0.2794 0,-0.0621 0.232834,-0.29492 0.240594,-0.2406 0.240594,-0.34149 z"
         style="font-style:normal;font-variant:normal;font-weight:normal;font-stretch:normal;font-size:7.76111126px;font-family:Purisa;-inkscape-font-specification:Purisa;fill:#0055d4;stroke-width:0.26458332px"
         id="path872" />
    </g>
    <g
       aria-label="dynamic data"
       transform="rotate(-1.6301808)"
       style="font-style:normal;font-variant:normal;font-weight:normal;font-stretch:normal;font-size:5.29166651px;line-height:6.61458302px;font-family:Purisa;-inkscape-font-specification:Purisa;letter-spacing:0px;word-spacing:0px;fill:#0055d4;fill-opacity:1;stroke:none;stroke-width:0.26458332px;stroke-linecap:butt;stroke-linejoin:miter;stroke-opacity:1"
       id="text846">
      <path
         d="m 137.96715,121.24405 q 0,0.17075 -0.0699,0.26388 -0.0621,0.1009 -0.11642,0.11642 -0.0466,0.0233 -0.0854,0.0233 -0.10089,0 -0.17074,-0.0699 -0.0699,-0.0621 -0.10866,-0.23283 -0.0388,-0.16298 -0.0543,-0.24836 -0.008,-0.0854 -0.031,-0.3182 -0.0543,-0.78387 -0.12418,-0.78387 -0.0854,0 -0.27164,0.22507 -0.86924,1.02446 -1.83162,1.02446 -0.28716,0 -0.57432,-0.10865 -0.99342,-0.37253 -0.99342,-1.52118 0,-0.49671 0.16298,-0.94685 0.17074,-0.45791 0.42686,-0.76835 0.26388,-0.31045 0.52776,-0.52 0.26387,-0.20955 0.50447,-0.29492 0.30268,-0.11642 0.4191,-0.11642 0.20179,0 0.67522,0.26388 0.48118,0.26388 0.66745,0.51223 0.20955,0.2794 0.31821,0.2794 0.008,0 0.008,0 0,-0.008 0.008,-0.008 0.0854,-0.0543 0.0854,-2.02565 0,-1.94804 0.0931,-2.21192 0.1009,-0.24059 0.30269,-0.24059 h 0.20955 l -0.0621,3.18982 q -0.0233,1.18745 -0.0233,2.11878 0,1.26506 0.0543,1.80834 0.0543,0.54328 0.0543,0.58984 z m -1.8161,-3.43817 q -0.4579,-0.30268 -0.63641,-0.30268 -0.15522,0 -0.6985,0.52775 -0.54328,0.52776 -0.64417,0.77612 -0.0776,0.18626 -0.0776,0.67521 0,0.59761 0.10089,0.77611 0.0776,0.1397 0.37253,0.30269 0.30269,0.16298 0.59761,0.16298 0.52776,0 1.33491,-0.77611 0.63641,-0.61313 0.63641,-0.7994 0,-0.25611 -0.32596,-0.68297 -0.31821,-0.42686 -0.6597,-0.6597 z"
         style="font-style:normal;font-variant:normal;font-weight:normal;font-stretch:normal;font-size:7.76111126px;font-family:Purisa;-inkscape-font-specification:Purisa;fill:#0055d4;stroke-width:0.26458332px"
         id="path875" />
      <path
         d="m 139.53368,118.93124 q 0,0.60537 0.0543,0.90029 0.0543,0.28716 0.20955,0.28716 0.14746,0 0.48119,-0.36477 0.34149,-0.36477 0.48119,-0.68298 0.1785,-0.38805 0.28716,-0.93133 0.10866,-0.55104 0.19403,-0.8382 0.0854,-0.28716 0.25611,-0.28716 0.0854,0 0.15523,0.0699 0.0699,0.0698 0.0699,0.1785 0,0.12418 -0.17851,0.81492 -0.17074,0.69074 -0.17074,1.45133 0,0.25612 0.0233,0.47343 l 0.0543,0.22507 0.24835,-0.12418 q 0.19403,-0.0854 0.30269,-0.0854 0.20179,0 0.20179,0.14746 0,0.18627 -0.32597,0.35701 l -0.31821,0.16298 0.0388,0.86925 q -0.0466,1.37372 -0.1009,1.45133 -0.0543,0.0931 -0.19402,0.0931 -0.16299,0 -0.48895,-0.1397 -0.18627,-0.0854 -0.29493,-0.18627 -0.10089,-0.10089 -0.19402,-0.29492 -0.21731,-0.44238 -0.21731,-0.79163 0,-0.12418 0.0233,-0.19403 0.0233,-0.0621 0.11642,-0.20955 0.0931,-0.1397 0.17074,-0.2794 0.0699,-0.13194 0.22507,-0.21731 0.16299,-0.0931 0.20179,-0.1397 0.0621,-0.0621 0.11642,-0.1009 0.0621,-0.0388 0.0776,-0.0543 0.0155,-0.0155 0.0155,-0.0543 0,-0.0931 -0.0466,-0.34925 -0.0466,-0.26388 -0.11641,-0.26388 -0.0466,0 -0.20955,0.19403 -0.16299,0.18627 -0.41134,0.38029 -0.24836,0.18627 -0.49671,0.18627 -0.31045,0 -0.51224,-0.36477 -0.10089,-0.18627 -0.13193,-0.42686 -0.0233,-0.2406 -0.0233,-1.01671 0.008,-0.877 0.0621,-1.19521 0.0621,-0.32597 0.22507,-0.32597 0.0931,0 0.12418,0.10866 0.031,0.10089 0.031,0.47343 0,0.14746 -0.008,0.50447 -0.008,0.35701 -0.008,0.58984 z m 1.02447,3.08116 q 0,0.1397 0.20955,0.36478 0.21731,0.23283 0.32597,0.23283 0.11641,0 0.11641,-0.54328 -0.008,-0.14746 -0.0543,-0.36477 -0.0388,-0.21731 -0.0466,-0.30268 l -0.0466,-0.46567 -0.21731,0.33373 q -0.28716,0.45014 -0.28716,0.74506 z"
         style="font-style:normal;font-variant:normal;font-weight:normal;font-stretch:normal;font-size:7.76111126px;font-family:Purisa;-inkscape-font-specification:Purisa;fill:#0055d4;stroke-width:0.26458332px"
         id="path877" />
      <path
         d="m 143.59578,116.96768 q 0,-0.26388 0.15522,-0.26388 0.10089,0 0.14746,0.23284 0.0466,0.22507 0.17074,1.35043 0.15523,1.2573 0.16299,1.27282 0.008,0.008 0.0621,-0.14746 0.0621,-0.16298 0.16298,-0.48119 0.15522,-0.51223 0.26388,-0.7373 0.10865,-0.23284 0.38805,-0.63641 0.56656,-0.78388 0.87701,-0.78388 0.20179,0 0.38029,0.27164 0.2406,0.35701 0.29493,0.70626 0.0543,0.34925 0.0776,1.65312 0.0155,0.8382 0.0155,0.99342 0,0.38806 -0.031,0.56656 -0.0233,0.17075 -0.0776,0.20955 -0.0466,0.0466 -0.17074,0.0543 -0.0699,0 -0.0931,-0.0621 -0.0233,-0.0543 -0.0233,-0.26387 0,-0.11642 0.0155,-0.49672 0.0155,-0.38805 0.0155,-0.65193 0,-0.65969 -0.0543,-1.28834 -0.0466,-0.63641 -0.11642,-0.81492 -0.0388,-0.10089 -0.12418,-0.20955 -0.0854,-0.10866 -0.16298,-0.10866 -0.16298,0 -0.51999,0.5588 -0.35702,0.55104 -0.61313,1.16417 -0.2406,0.5588 -0.32597,0.86148 -0.0776,0.29493 -0.13194,0.80716 -0.0854,0.79163 -0.12418,0.79163 -0.0621,0 -0.1785,-0.13194 -0.0854,-0.0854 -0.11642,-0.36477 -0.031,-0.28716 -0.0854,-1.12536 -0.0543,-0.84596 -0.14746,-1.70744 -0.0931,-0.89253 -0.0931,-1.2185 z"
         style="font-style:normal;font-variant:normal;font-weight:normal;font-stretch:normal;font-size:7.76111126px;font-family:Purisa;-inkscape-font-specification:Purisa;fill:#0055d4;stroke-width:0.26458332px"
         id="path879" />
      <path
         d="m 150.23262,117.30141 q -0.35701,0 -0.76059,0.14746 -0.39582,0.14746 -0.70626,0.30268 -0.31045,0.14747 -0.45015,0.14747 -0.0931,0 -0.0931,-0.0776 0,-0.10865 0.0466,-0.18626 0.0466,-0.0776 0.17074,-0.14746 0.12418,-0.0699 0.23283,-0.11642 0.11642,-0.0466 0.36478,-0.13194 0.24835,-0.0931 0.42686,-0.17074 0.4191,-0.16299 0.70626,-0.16299 0.51223,0 0.79939,0.5588 0.1397,0.27164 0.16299,0.50448 0.0233,0.22507 0.0388,1.28058 0.008,0.58984 0.0233,0.99342 0.0155,0.39582 0.031,0.50447 l 0.0155,0.1009 q 0,0.10865 -0.10089,0.23283 -0.0931,0.12418 -0.1397,0.12418 -0.15522,0 -0.2406,-0.48895 -0.0854,-0.49671 -0.0931,-0.49671 -0.0233,0 -0.0699,0.0854 -0.15522,0.25612 -0.62865,0.56656 -0.46567,0.30268 -0.78387,0.30268 -0.19403,0 -0.45791,-0.0699 -0.25611,-0.0776 -0.37253,-0.16298 -0.0854,-0.0699 -0.14746,-0.2794 -0.0543,-0.20955 -0.0543,-0.42686 0,-0.32597 0.17074,-0.5588 0.17851,-0.24059 0.62865,-0.48895 0.48895,-0.28716 0.94686,-0.28716 0.18627,0 0.31044,0.0621 0.12418,0.0621 0.18627,0.13194 0.0621,0.0621 0.1009,0.0621 0.031,0 0.14746,0.0854 0.11641,0.0776 0.12417,0.0776 0.031,0 0.031,-0.17075 0,-1.03998 -0.14746,-1.44356 -0.1397,-0.40358 -0.4191,-0.40358 z m 0.34925,2.40594 q 0,-0.031 -0.0233,-0.0699 -0.0155,-0.0466 -0.0776,-0.10089 -0.0543,-0.0621 -0.14746,-0.10866 -0.0854,-0.0543 -0.24059,-0.0854 -0.15522,-0.0388 -0.34925,-0.0388 -0.33373,0 -0.58985,0.11641 -0.24835,0.11642 -0.37253,0.29493 -0.12418,0.1785 -0.18627,0.33372 -0.0543,0.14746 -0.0543,0.26388 0,0.19403 0.031,0.26388 0.0388,0.0699 0.17851,0.14746 0.17074,0.0854 0.31044,0.0854 0.26388,0 0.65193,-0.18626 0.39582,-0.19403 0.39582,-0.2794 0,-0.0621 0.23283,-0.29493 0.2406,-0.24059 0.2406,-0.34149 z"
         style="font-style:normal;font-variant:normal;font-weight:normal;font-stretch:normal;font-size:7.76111126px;font-family:Purisa;-inkscape-font-specification:Purisa;fill:#0055d4;stroke-width:0.26458332px"
         id="path881" />
      <path
         d="m 152.86084,117.2626 q 0,-0.45014 0.12418,-0.45014 0.1009,0 0.21731,0.70626 0.12418,0.70626 0.17075,0.70626 0.0155,0 0.0543,-0.0931 0.0388,-0.1009 0.0854,-0.21731 0.0466,-0.12418 0.0776,-0.15522 0.0776,-0.1009 0.20955,-0.3803 0.16298,-0.33373 0.24835,-0.40358 0.0854,-0.0776 0.30269,-0.0776 0.24059,0 0.52775,0.33373 0.18627,0.21731 0.24836,0.40358 0.0699,0.1785 0.14746,0.65193 l 0.12418,0.72955 0.13194,-0.46567 q 0.19402,-0.67522 0.5588,-1.16417 0.36477,-0.48895 0.67521,-0.48895 0.19403,0 0.35701,0.22507 0.16299,0.21732 0.23284,0.5588 0.0699,0.31821 0.0699,1.40477 0,0.81491 -0.008,1.2573 -0.008,0.44238 -0.0388,0.64417 -0.0233,0.19403 -0.0466,0.22507 -0.0233,0.0388 -0.0854,0.0466 -0.0233,0.008 -0.0543,0.008 -0.0699,0 -0.0854,-0.21731 -0.0155,-0.21731 -0.0233,-1.2185 0,-2.44475 -0.37253,-2.44475 -0.20179,0 -0.52776,0.66746 -0.27164,0.55104 -0.45791,1.34267 -0.18626,0.79163 -0.22507,1.59879 -0.008,0.19403 -0.0466,0.26388 -0.031,0.0699 -0.10866,0.0699 -0.0931,0 -0.12418,-0.16299 -0.0233,-0.15522 -0.0543,-0.8382 -0.0543,-1.2573 -0.15522,-1.76177 -0.10089,-0.51223 -0.37253,-0.92357 -0.20179,-0.28716 -0.29492,-0.28716 -0.10866,0 -0.2406,0.27164 -0.13194,0.26387 -0.43462,1.0167 -0.1397,0.36477 -0.1397,0.66746 0,0.1785 -0.0699,0.39581 -0.0621,0.20955 -0.0854,1.04775 -0.0155,0.78388 -0.0621,0.89253 -0.031,0.0931 -0.12418,0.0931 -0.12418,0 -0.17074,-0.37254 -0.0388,-0.37253 -0.0388,-1.49013 0,-0.90029 -0.0621,-1.65312 -0.0543,-0.75283 -0.0543,-0.96238 z"
         style="font-style:normal;font-variant:normal;font-weight:normal;font-stretch:normal;font-size:7.76111126px;font-family:Purisa;-inkscape-font-specification:Purisa;fill:#0055d4;stroke-width:0.26458332px"
         id="path883" />
      <path
         d="m 159.17645,116.74261 q 0.10866,-0.0931 0.18627,-0.0931 0.16298,0 0.23283,0.51999 0.0776,0.51223 0.1397,1.97908 0.031,0.68298 0.031,1.23402 0,0.55104 -0.0466,0.60537 -0.0931,0.11641 -0.23284,0.11641 -0.19402,0 -0.24059,-0.16298 -0.0388,-0.10089 -0.11642,-1.56774 -0.0776,-1.47461 -0.0776,-2.04894 0,-0.48119 0.12418,-0.58208 z m -0.0466,-1.82386 q 0,-0.10866 0.0854,-0.21731 0.0931,-0.10866 0.16298,-0.10866 0.0776,0 0.20955,0.10866 0.1397,0.10089 0.1397,0.26387 0,0.11642 -0.0699,0.20179 -0.0621,0.0776 -0.17075,0.0776 -0.12417,0 -0.24059,-0.0931 -0.11642,-0.0931 -0.11642,-0.23283 z"
         style="font-style:normal;font-variant:normal;font-weight:normal;font-stretch:normal;font-size:7.76111126px;font-family:Purisa;-inkscape-font-specification:Purisa;fill:#0055d4;stroke-width:0.26458332px"
         id="path885" />
      <path
         d="m 164.36354,118.04648 q 0,0.13194 -0.0621,0.21731 -0.0543,0.0854 -0.13194,0.0854 -0.14746,0 -0.18627,-0.22507 -0.0155,-0.17851 -0.25611,-0.45015 -0.1009,-0.10865 -0.16299,-0.15522 -0.0621,-0.0466 -0.29492,-0.10089 -0.22507,-0.0543 -0.5976,-0.0543 -0.30269,0 -0.46567,0.10865 -0.15522,0.10866 -0.38806,0.44239 -0.5588,0.79163 -0.5588,1.42804 0,0.32597 0.0699,0.55104 0.0699,0.21731 0.13194,0.29492 0.0699,0.0699 0.22508,0.22508 0.22507,0.21731 0.34148,0.2794 0.12418,0.0543 0.34149,0.0543 0.67522,0 1.47461,-0.91581 0.4191,-0.46566 0.60537,-0.46566 0.1009,0 0.1009,0.14746 0,0.1397 -0.37254,0.5976 -0.36477,0.45791 -0.62865,0.64417 -0.61313,0.44239 -1.09431,0.44239 -0.34925,0 -0.76835,-0.20955 -0.42687,-0.20955 -0.62089,-0.56656 -0.18627,-0.35701 -0.22508,-1.03999 -0.0233,-0.26388 -0.0233,-0.4191 0,-0.30269 0.20955,-0.69074 0.21731,-0.4191 0.62865,-0.80716 0.4191,-0.38805 0.72178,-0.47342 0.23284,-0.0543 0.50448,-0.0543 0.58984,0 1.03222,0.38029 0.45015,0.37254 0.45015,0.72955 z"
         style="font-style:normal;font-variant:normal;font-weight:normal;font-stretch:normal;font-size:7.76111126px;font-family:Purisa;-inkscape-font-specification:Purisa;fill:#0055d4;stroke-width:0.26458332px"
         id="path887" />
      <path
         d="m 174.84759,121.24405 q 0,0.17075 -0.0699,0.26388 -0.0621,0.1009 -0.11642,0.11642 -0.0466,0.0233 -0.0854,0.0233 -0.1009,0 -0.17075,-0.0699 -0.0699,-0.0621 -0.10865,-0.23283 -0.0388,-0.16298 -0.0543,-0.24836 -0.008,-0.0854 -0.031,-0.3182 -0.0543,-0.78387 -0.12418,-0.78387 -0.0854,0 -0.27164,0.22507 -0.86924,1.02446 -1.83162,1.02446 -0.28716,0 -0.57432,-0.10865 -0.99343,-0.37253 -0.99343,-1.52118 0,-0.49671 0.16299,-0.94685 0.17074,-0.45791 0.42686,-0.76835 0.26388,-0.31045 0.52775,-0.52 0.26388,-0.20955 0.50448,-0.29492 0.30268,-0.11642 0.4191,-0.11642 0.20178,0 0.67521,0.26388 0.48119,0.26388 0.66746,0.51223 0.20955,0.2794 0.3182,0.2794 0.008,0 0.008,0 0,-0.008 0.008,-0.008 0.0854,-0.0543 0.0854,-2.02565 0,-1.94804 0.0931,-2.21192 0.1009,-0.24059 0.30268,-0.24059 h 0.20955 l -0.0621,3.18982 q -0.0233,1.18745 -0.0233,2.11878 0,1.26506 0.0543,1.80834 0.0543,0.54328 0.0543,0.58984 z m -1.8161,-3.43817 q -0.45791,-0.30268 -0.63641,-0.30268 -0.15523,0 -0.6985,0.52775 -0.54328,0.52776 -0.64418,0.77612 -0.0776,0.18626 -0.0776,0.67521 0,0.59761 0.1009,0.77611 0.0776,0.1397 0.37253,0.30269 0.30268,0.16298 0.59761,0.16298 0.52775,0 1.33491,-0.77611 0.63641,-0.61313 0.63641,-0.7994 0,-0.25611 -0.32597,-0.68297 -0.3182,-0.42686 -0.65969,-0.6597 z"
         style="font-style:normal;font-variant:normal;font-weight:normal;font-stretch:normal;font-size:7.76111126px;font-family:Purisa;-inkscape-font-specification:Purisa;fill:#0055d4;stroke-width:0.26458332px"
         id="path889" />
      <path
         d="m 178.23022,117.30141 q -0.35701,0 -0.76059,0.14746 -0.39582,0.14746 -0.70626,0.30268 -0.31045,0.14747 -0.45015,0.14747 -0.0931,0 -0.0931,-0.0776 0,-0.10865 0.0466,-0.18626 0.0466,-0.0776 0.17074,-0.14746 0.12418,-0.0699 0.23284,-0.11642 0.11641,-0.0466 0.36477,-0.13194 0.24835,-0.0931 0.42686,-0.17074 0.4191,-0.16299 0.70626,-0.16299 0.51223,0 0.79939,0.5588 0.1397,0.27164 0.16299,0.50448 0.0233,0.22507 0.0388,1.28058 0.008,0.58984 0.0233,0.99342 0.0155,0.39582 0.031,0.50447 l 0.0155,0.1009 q 0,0.10865 -0.10089,0.23283 -0.0931,0.12418 -0.1397,0.12418 -0.15522,0 -0.2406,-0.48895 -0.0854,-0.49671 -0.0931,-0.49671 -0.0233,0 -0.0699,0.0854 -0.15522,0.25612 -0.62865,0.56656 -0.46567,0.30268 -0.78387,0.30268 -0.19403,0 -0.45791,-0.0699 -0.25611,-0.0776 -0.37253,-0.16298 -0.0854,-0.0699 -0.14746,-0.2794 -0.0543,-0.20955 -0.0543,-0.42686 0,-0.32597 0.17075,-0.5588 0.1785,-0.24059 0.62865,-0.48895 0.48895,-0.28716 0.94685,-0.28716 0.18627,0 0.31045,0.0621 0.12417,0.0621 0.18626,0.13194 0.0621,0.0621 0.1009,0.0621 0.031,0 0.14746,0.0854 0.11641,0.0776 0.12418,0.0776 0.031,0 0.031,-0.17075 0,-1.03998 -0.14746,-1.44356 -0.1397,-0.40358 -0.4191,-0.40358 z m 0.34925,2.40594 q 0,-0.031 -0.0233,-0.0699 -0.0155,-0.0466 -0.0776,-0.10089 -0.0543,-0.0621 -0.14746,-0.10866 -0.0854,-0.0543 -0.24059,-0.0854 -0.15522,-0.0388 -0.34925,-0.0388 -0.33373,0 -0.58985,0.11641 -0.24835,0.11642 -0.37253,0.29493 -0.12418,0.1785 -0.18627,0.33372 -0.0543,0.14746 -0.0543,0.26388 0,0.19403 0.031,0.26388 0.0388,0.0699 0.17851,0.14746 0.17074,0.0854 0.31044,0.0854 0.26388,0 0.65193,-0.18626 0.39582,-0.19403 0.39582,-0.2794 0,-0.0621 0.23283,-0.29493 0.2406,-0.24059 0.2406,-0.34149 z"
         style="font-style:normal;font-variant:normal;font-weight:normal;font-stretch:normal;font-size:7.76111126px;font-family:Purisa;-inkscape-font-specification:Purisa;fill:#0055d4;stroke-width:0.26458332px"
         id="path891" />
      <path
         d="m 181.55695,115.77247 q 0,-0.28716 -0.0543,-0.72954 -0.0543,-0.44239 -0.0543,-0.73731 0,-0.14746 0.008,-0.19403 0.0233,-0.12418 0.0854,-0.19403 0.0699,-0.0776 0.1397,-0.0776 0.0931,0 0.13194,0.0854 0.0233,0.0543 0.0699,0.57432 0.0466,0.51999 0.0854,1.0167 0.0388,0.49671 0.0543,0.51224 0.008,0.008 0.0233,0.008 0.0621,0 0.35701,-0.0621 0.30268,-0.0699 0.49671,-0.0699 0.38806,0 0.38806,0.17074 0,0.17075 -0.85373,0.3803 l -0.38805,0.0931 0.0466,1.31163 q 0.0388,1.15641 0.14746,2.16535 0.10865,1.00118 0.10865,1.13312 0,0.2406 -0.1785,0.2406 -0.1397,0 -0.23284,-0.24836 -0.0854,-0.24835 -0.0854,-0.64417 0,-0.28716 -0.0233,-0.58208 -0.0233,-0.30269 -0.0854,-0.93134 -0.0543,-0.63641 -0.10866,-1.30386 -0.0233,-0.35702 -0.0388,-0.55104 -0.008,-0.19403 -0.0233,-0.28716 -0.0155,-0.0931 -0.0233,-0.10866 -0.008,-0.0233 -0.0311,-0.0233 -0.12417,0 -0.5976,0.0854 -0.47343,0.0854 -0.58985,0.0854 -0.22507,0 -0.22507,-0.18627 0,-0.13193 0.2794,-0.22507 0.28716,-0.0931 0.64417,-0.16298 0.35701,-0.0776 0.44239,-0.13194 0.0854,-0.0621 0.0854,-0.41134 z"
         style="font-style:normal;font-variant:normal;font-weight:normal;font-stretch:normal;font-size:7.76111126px;font-family:Purisa;-inkscape-font-specification:Purisa;fill:#0055d4;stroke-width:0.26458332px"
         id="path893" />
      <path
         d="m 186.58251,117.30141 q -0.35701,0 -0.76059,0.14746 -0.39582,0.14746 -0.70626,0.30268 -0.31044,0.14747 -0.45014,0.14747 -0.0931,0 -0.0931,-0.0776 0,-0.10865 0.0466,-0.18626 0.0466,-0.0776 0.17074,-0.14746 0.12418,-0.0699 0.23284,-0.11642 0.11641,-0.0466 0.36477,-0.13194 0.24835,-0.0931 0.42686,-0.17074 0.4191,-0.16299 0.70626,-0.16299 0.51223,0 0.7994,0.5588 0.1397,0.27164 0.16298,0.50448 0.0233,0.22507 0.0388,1.28058 0.008,0.58984 0.0233,0.99342 0.0155,0.39582 0.031,0.50447 l 0.0155,0.1009 q 0,0.10865 -0.10089,0.23283 -0.0931,0.12418 -0.1397,0.12418 -0.15522,0 -0.24059,-0.48895 -0.0854,-0.49671 -0.0931,-0.49671 -0.0233,0 -0.0699,0.0854 -0.15522,0.25612 -0.62865,0.56656 -0.46566,0.30268 -0.78387,0.30268 -0.19403,0 -0.45791,-0.0699 -0.25611,-0.0776 -0.37253,-0.16298 -0.0854,-0.0699 -0.14746,-0.2794 -0.0543,-0.20955 -0.0543,-0.42686 0,-0.32597 0.17075,-0.5588 0.1785,-0.24059 0.62865,-0.48895 0.48895,-0.28716 0.94685,-0.28716 0.18627,0 0.31045,0.0621 0.12417,0.0621 0.18626,0.13194 0.0621,0.0621 0.1009,0.0621 0.031,0 0.14746,0.0854 0.11642,0.0776 0.12418,0.0776 0.031,0 0.031,-0.17075 0,-1.03998 -0.14746,-1.44356 -0.1397,-0.40358 -0.4191,-0.40358 z m 0.34925,2.40594 q 0,-0.031 -0.0233,-0.0699 -0.0155,-0.0466 -0.0776,-0.10089 -0.0543,-0.0621 -0.14747,-0.10866 -0.0854,-0.0543 -0.24059,-0.0854 -0.15522,-0.0388 -0.34925,-0.0388 -0.33373,0 -0.58984,0.11641 -0.24836,0.11642 -0.37254,0.29493 -0.12418,0.1785 -0.18626,0.33372 -0.0543,0.14746 -0.0543,0.26388 0,0.19403 0.031,0.26388 0.0388,0.0699 0.17851,0.14746 0.17074,0.0854 0.31044,0.0854 0.26388,0 0.65194,-0.18626 0.39581,-0.19403 0.39581,-0.2794 0,-0.0621 0.23284,-0.29493 0.24059,-0.24059 0.24059,-0.34149 z"
         style="font-style:normal;font-variant:normal;font-weight:normal;font-stretch:normal;font-size:7.76111126px;font-family:Purisa;-inkscape-font-specification:Purisa;fill:#0055d4;stroke-width:0.26458332px"
         id="path895" />
    </g>
    <g
       aria-label="buffer"
       transform="rotate(-3.5175448)"
       style="font-style:normal;font-variant:normal;font-weight:normal;font-stretch:normal;font-size:5.29166651px;line-height:6.61458302px;font-family:Purisa;-inkscape-font-specification:Purisa;letter-spacing:0px;word-spacing:0px;fill:#0055d4;fill-opacity:1;stroke:none;stroke-width:0.26458332px;stroke-linecap:butt;stroke-linejoin:miter;stroke-opacity:1"
       id="text852">
      <path
         d="m 49.365691,54.807245 q 0.108655,0 0.248355,0.06985 0.147461,0.06209 0.310445,0.201789 0.162983,0.131939 0.271639,0.411339 0.108655,0.271639 0.108655,0.636411 0,0.543278 -0.248355,1.133122 -0.240595,0.582083 -0.675217,1.016706 -0.325967,0.325966 -0.861483,0.620889 -0.527756,0.294922 -0.783873,0.294922 -0.256116,0 -0.574322,-0.178506 -0.318205,-0.178505 -0.357011,-0.333728 -0.02328,-0.08537 -0.08537,-1.567744 -0.06209,-1.490133 -0.162984,-2.111022 -0.20955,-1.319389 -0.20955,-2.111023 0,-0.287161 0.108656,-0.395816 0.116417,-0.116417 0.186267,-0.116417 0.116416,0 0.155222,0.287161 0.04657,0.287161 0.09313,0.946856 0.04657,0.659694 0.124178,1.156405 0.100894,0.651934 0.1397,1.071034 l 0.03881,0.426861 0.605366,-0.597606 q 0.605367,-0.605366 1.016706,-0.737305 0.395816,-0.124178 0.551039,-0.124178 z m 0.48895,1.358194 q 0,-0.861483 -0.512234,-0.861483 -0.131939,0 -0.380294,0.04657 -0.162983,0.03104 -0.543278,0.372533 -0.380294,0.333728 -0.690739,0.721783 -0.194028,0.248356 -0.310444,0.659695 -0.108656,0.411339 -0.108656,0.807155 0,0.442384 0.131939,0.651934 0.131939,0.201789 0.294922,0.201789 0.08537,0 0.388056,-0.09313 0.341489,-0.108655 0.714022,-0.434622 0.380295,-0.325967 0.659695,-0.752828 0.357011,-0.551039 0.357011,-1.319389 z"
         style="font-style:normal;font-variant:normal;font-weight:normal;font-stretch:normal;font-size:7.76111126px;font-family:Purisa;-inkscape-font-specification:Purisa;fill:#0055d4;stroke-width:0.26458332px"
         id="path937" />
      <path
         d="m 51.354839,56.281856 q 0,-1.451328 0.217311,-1.451328 0.03881,0 0.07761,0.01552 0.04657,0.01552 0.108656,0.116417 0.06209,0.09313 0.06209,0.263878 0,0.07761 -0.01552,0.263878 -0.01552,0.178505 -0.01552,0.403578 0,0.62865 0.06985,1.528938 0.06985,0.900289 0.147461,1.179689 0.07761,0.302684 0.263878,0.302684 0.178506,0 0.543278,-0.318206 0.450144,-0.395817 0.861483,-1.234017 0.4191,-0.8382 0.582084,-1.6764 0.155222,-0.822677 0.256116,-0.877005 0.07761,-0.05433 0.162984,-0.05433 0.186266,0 0.186266,0.217311 0,0.108656 -0.116416,0.90805 -0.108656,0.799395 -0.108656,1.148645 0,0.48895 0.194028,1.218494 0.201789,0.721783 0.201789,0.822678 0,0.07761 -0.06209,0.124178 -0.06209,0.04657 -0.108656,0.05433 -0.03881,0.01552 -0.06209,0.01552 -0.1397,0 -0.2794,-0.395817 -0.131938,-0.395817 -0.240594,-0.791633 -0.100894,-0.395817 -0.178506,-0.395817 -0.01552,0 -0.03104,0.0078 -0.01552,0.0078 -0.03881,0.03104 -0.01552,0.01552 -0.03104,0.0388 -0.01552,0.02328 -0.04657,0.06209 -0.02328,0.03881 -0.04657,0.06985 -0.01552,0.03104 -0.05433,0.09313 -0.03881,0.06209 -0.06209,0.100895 -0.341489,0.535516 -0.760589,0.892528 -0.411339,0.357011 -0.6985,0.357011 -0.325967,0 -0.48895,-0.147461 -0.162983,-0.1397 -0.263878,-0.512234 -0.09313,-0.372533 -0.170744,-1.179689 -0.05433,-0.512233 -0.05433,-1.202972 z"
         style="font-style:normal;font-variant:normal;font-weight:normal;font-stretch:normal;font-size:7.76111126px;font-family:Purisa;-inkscape-font-specification:Purisa;fill:#0055d4;stroke-width:0.26458332px"
         id="path939" />
      <path
         d="m 57.194833,55.800667 q -0.09313,0 -0.395816,0.08537 -0.294922,0.07761 -0.473428,0.07761 -0.341489,0 -0.341489,-0.217312 0,-0.08537 0.124178,-0.155222 0.131939,-0.06985 0.504472,-0.178505 l 0.62865,-0.186267 0.01552,-0.954617 q 0.01552,-0.721783 0.108656,-1.591028 0.06985,-0.644172 0.124178,-0.814916 0.05433,-0.170745 0.240594,-0.357011 0.155222,-0.155223 0.248356,-0.201789 0.100894,-0.04657 0.2794,-0.04657 0.131939,0 0.5588,0.03881 0.325966,0.03104 0.465666,0.09313 0.1397,0.05433 0.318206,0.232833 0.263878,0.263878 0.263878,0.481189 0,0.155222 -0.124178,0.325967 -0.116417,0.162983 -0.178506,0.162983 -0.09313,0 -0.09313,-0.263878 0,-0.248355 -0.1397,-0.380294 -0.131939,-0.1397 -0.519994,-0.263878 -0.256117,-0.07761 -0.395817,-0.07761 -0.333728,0 -0.519995,0.388056 -0.06985,0.155222 -0.131938,1.016705 -0.05433,0.861484 -0.05433,1.497895 0,0.442383 0.03104,0.5588 0.03881,0.108655 0.194028,0.108655 0.263878,0 0.877006,-0.1397 0.201788,-0.04657 0.310444,-0.03881 0.116417,0 0.566561,-0.147461 l 0.62865,-0.186267 0.01552,-0.395817 q 0.03881,-0.962378 0.108656,-1.591028 0.06985,-0.644172 0.124178,-0.814916 0.05433,-0.170745 0.240594,-0.357011 0.155222,-0.155223 0.248356,-0.201789 0.100894,-0.04657 0.2794,-0.04657 0.131939,0 0.5588,0.03881 0.325966,0.03104 0.465666,0.09313 0.1397,0.05433 0.318206,0.232833 0.263878,0.263878 0.263878,0.481189 0,0.155222 -0.124178,0.325967 -0.116417,0.162983 -0.178506,0.162983 -0.09313,0 -0.09313,-0.263878 0,-0.248355 -0.1397,-0.380294 -0.131939,-0.1397 -0.519994,-0.263878 -0.256117,-0.07761 -0.395817,-0.07761 -0.333728,0 -0.519995,0.388056 -0.07761,0.162983 -0.131938,0.76835 -0.05433,0.605366 -0.05433,1.18745 0,0.442383 0.03104,0.5588 0.03881,0.108655 0.194028,0.108655 0.09313,0 0.388056,-0.05433 0.294922,-0.05433 0.48895,-0.05433 0.108655,0 0.178505,0.0388 0.06985,0.03104 0.06985,0.07761 0,0.131939 -0.667455,0.333728 l -0.667456,0.194028 -0.02328,1.513417 q 0,0.09313 -0.0078,0.256116 0,0.155223 0,0.217311 0,0.582084 0.05433,0.900289 0.05433,0.318206 0.108656,0.457906 0.05433,0.1397 0.05433,0.302683 0,0.232834 -0.217311,0.232834 -0.411339,0 -0.411339,-2.16535 0,-1.575506 -0.04657,-1.622073 -0.0078,-0.0078 -0.03881,-0.0078 -0.341488,0 -1.055511,0.155222 -0.714022,0.147462 -0.822677,0.155223 -0.124178,0.0078 -0.294923,0.05433 -0.162983,0.03881 -0.271639,0.06985 l -0.100894,0.03881 -0.02328,0.954617 q -0.0078,0.178505 -0.0078,0.473427 0,0.582084 0.05433,0.900289 0.05433,0.318206 0.108656,0.457906 0.05433,0.1397 0.05433,0.302683 0,0.232834 -0.217311,0.232834 -0.411339,0 -0.411339,-2.16535 0,-1.016706 -0.04657,-1.063273 -0.0078,-0.0078 -0.03881,-0.0078 z"
         style="font-style:normal;font-variant:normal;font-weight:normal;font-stretch:normal;font-size:7.76111126px;font-family:Purisa;-inkscape-font-specification:Purisa;fill:#0055d4;stroke-width:0.26458332px"
         id="path941" />
      <path
         d="m 67.785112,57.345128 q 0.0388,0 0.0388,0.06209 0,0.1397 -0.20955,0.450145 -0.201789,0.310444 -0.434622,0.512233 -0.814917,0.721783 -1.629833,0.721783 -0.310445,0 -0.620889,-0.1397 -0.302684,-0.147461 -0.566561,-0.411339 -0.263878,-0.263877 -0.426861,-0.706261 -0.162984,-0.442383 -0.162984,-0.985661 0,-0.333728 0.07761,-0.566561 0.155223,-0.473428 0.659695,-1.001183 0.512233,-0.527756 0.962378,-0.527756 0.124177,0 0.372533,0.02328 0.372533,0.03104 0.519994,0.07761 0.155223,0.04657 0.34925,0.194027 0.248356,0.186267 0.426861,0.481189 0.186267,0.287161 0.186267,0.481189 0,0.248356 -0.194028,0.380295 -0.194027,0.124177 -0.752827,0.248355 -0.721784,0.162984 -1.428045,0.201789 l -0.721783,0.03881 v 0.310444 q 0,0.574322 0.535516,1.086556 0.403578,0.388055 0.8382,0.388055 0.333728,0 0.706262,-0.201789 0.380294,-0.20955 0.644172,-0.457905 0.263878,-0.248356 0.504472,-0.450145 0.240595,-0.20955 0.325967,-0.20955 z m -1.249539,-1.893711 q -0.240595,-0.217311 -0.364772,-0.271639 -0.116417,-0.06209 -0.310445,-0.06209 -0.388055,0 -0.582083,0.07761 -0.186267,0.06985 -0.380295,0.294922 -0.589844,0.675216 -0.589844,0.900289 0,0.100894 0.186267,0.100894 0.706261,0 2.002366,-0.294922 0.388056,-0.09313 0.388056,-0.325967 0,-0.108655 -0.34925,-0.4191 z"
         style="font-style:normal;font-variant:normal;font-weight:normal;font-stretch:normal;font-size:7.76111126px;font-family:Purisa;-inkscape-font-specification:Purisa;fill:#0055d4;stroke-width:0.26458332px"
         id="path943" />
      <path
         d="m 71.379963,55.241867 q 0.131938,0 0.232833,0.08537 0.100894,0.07761 0.100894,0.131939 0,0.09313 -0.294922,0.20955 -0.481189,0.194028 -0.985661,0.939095 -0.496711,0.737305 -0.605367,1.428044 -0.124177,0.783872 -0.201789,1.024467 -0.07761,0.248355 -0.201788,0.248355 -0.108656,0 -0.170745,-0.07761 -0.05433,-0.07761 -0.07761,-0.170744 -0.01552,-0.09313 -0.03881,-0.341489 -0.0078,-0.04657 -0.0078,-0.06985 -0.186266,-1.9558 -0.186266,-3.088922 0,-0.403578 0.03104,-0.496711 0.08537,-0.248356 0.217311,-0.248356 0.124178,0 0.124178,0.20955 0,0.34925 0.108656,1.125361 0.108655,0.776111 0.162983,0.776111 0.06985,0 0.287161,-0.426861 0.271639,-0.504472 0.721783,-0.877005 0.457906,-0.380295 0.783873,-0.380295 z"
         style="font-style:normal;font-variant:normal;font-weight:normal;font-stretch:normal;font-size:7.76111126px;font-family:Purisa;-inkscape-font-specification:Purisa;fill:#0055d4;stroke-width:0.26458332px"
         id="path945" />
    </g>
  </g>
</svg>
