<?xml version="1.0" encoding="UTF-8" standalone="no"?>
<!-- Created with Inkscape (http://www.inkscape.org/) -->

<svg
   xmlns:dc="http://purl.org/dc/elements/1.1/"
   xmlns:cc="http://creativecommons.org/ns#"
   xmlns:rdf="http://www.w3.org/1999/02/22-rdf-syntax-ns#"
   xmlns:svg="http://www.w3.org/2000/svg"
   xmlns="http://www.w3.org/2000/svg"
   xmlns:sodipodi="http://sodipodi.sourceforge.net/DTD/sodipodi-0.dtd"
   xmlns:inkscape="http://www.inkscape.org/namespaces/inkscape"
   width="152.29167mm"
   height="109.95833mm"
   viewBox="0 0 152.29167 109.95833"
   version="1.1"
   id="svg1067"
   inkscape:version="0.92.3 (2405546, 2018-03-11)"
   sodipodi:docname="gpu-mem-03.svg">
  <defs
     id="defs1061" />
  <sodipodi:namedview
     id="base"
     pagecolor="#ffffff"
     bordercolor="#666666"
     borderopacity="1.0"
     inkscape:pageopacity="0.0"
     inkscape:pageshadow="2"
     inkscape:zoom="1.979899"
     inkscape:cx="250.53864"
     inkscape:cy="207.50796"
     inkscape:document-units="mm"
     inkscape:current-layer="layer1"
     showgrid="false"
     fit-margin-top="10"
     fit-margin-left="10"
     fit-margin-right="10"
     fit-margin-bottom="10"
     inkscape:window-width="2560"
     inkscape:window-height="1311"
     inkscape:window-x="0"
     inkscape:window-y="55"
     inkscape:window-maximized="1" />
  <metadata
     id="metadata1064">
    <rdf:RDF>
      <cc:Work
         rdf:about="">
        <dc:format>image/svg+xml</dc:format>
        <dc:type
           rdf:resource="http://purl.org/dc/dcmitype/StillImage" />
        <dc:title></dc:title>
      </cc:Work>
    </rdf:RDF>
  </metadata>
  <g
     inkscape:label="Layer 1"
     inkscape:groupmode="layer"
     id="layer1"
     transform="translate(7.3541667,-14.10119)">
    <path
       style="fill:#ffcc00;fill-opacity:1;fill-rule:evenodd;stroke:none;stroke-width:0.26458332px;stroke-linecap:butt;stroke-linejoin:miter;stroke-opacity:1"
       d="m 7.8580653,84.954203 3.1870887,28.183307 69.274786,0.92201 0.566965,-5.10268 -11.150298,-1.32291 -0.59939,-22.758008 z"
       id="path1660"
       inkscape:connector-curvature="0"
       sodipodi:nodetypes="ccccccc" />
    <path
       style="fill:#80b3ff;fill-rule:evenodd;stroke:none;stroke-width:0.26458332px;stroke-linecap:butt;stroke-linejoin:miter;stroke-opacity:1"
       d="m 48.918668,29.940827 v 20.97768 l 36.976421,3.042802 -0.944942,-25.135416 z"
       id="path1662"
       inkscape:connector-curvature="0"
       sodipodi:nodetypes="ccccc" />
    <path
       style="fill:#b7c8c4;fill-opacity:1;fill-rule:evenodd;stroke:none;stroke-width:0.26458332px;stroke-linecap:butt;stroke-linejoin:miter;stroke-opacity:1"
       d="m 73.138392,104.7991 -0.566965,-14.552078 49.892853,1.511906 -2.07886,17.197912 z"
       id="path1620"
       inkscape:connector-curvature="0" />
    <path
       style="fill:#b7c8c4;fill-rule:evenodd;stroke:none;stroke-width:0.26458332px;stroke-linecap:butt;stroke-linejoin:miter;stroke-opacity:1"
       d="M 91.281249,86.656248 90.714284,24.10119 134.9375,26.558036 131.91369,107.25595 h -7.74851 l 2.26785,-18.709821 z"
       id="path1622"
       inkscape:connector-curvature="0"
       sodipodi:nodetypes="ccccccc" />
    <path
       inkscape:connector-curvature="0"
       id="path1670"
       d="m 14.363095,63.410714 1.133929,18.142857 66.33482,-0.566965 0.377976,-13.985118 z"
       style="fill:#80b3ff;fill-rule:evenodd;stroke:none;stroke-width:0.26458332px;stroke-linecap:butt;stroke-linejoin:miter;stroke-opacity:1" />
    <path
       style="fill:#8080ff;fill-rule:evenodd;stroke:none;stroke-width:0.26458332px;stroke-linecap:butt;stroke-linejoin:miter;stroke-opacity:1"
       d="m 10.488839,59.81994 1.133929,18.142857 66.33482,-0.566965 0.377976,-13.985118 z"
       id="path1668"
       inkscape:connector-curvature="0" />
    <path
       inkscape:connector-curvature="0"
       id="path1666"
       d="M 6.2366071,55.473214 7.3705356,73.616071 73.705356,73.049106 74.083332,59.063988 Z"
       style="fill:#9955ff;fill-rule:evenodd;stroke:none;stroke-width:0.26458332px;stroke-linecap:butt;stroke-linejoin:miter;stroke-opacity:1" />
    <path
       style="fill:#ff9955;fill-rule:evenodd;stroke:none;stroke-width:0.26458332px;stroke-linecap:butt;stroke-linejoin:miter;stroke-opacity:1"
       d="M 2.6458333,52.449404 3.7797618,70.592261 70.114582,70.025296 70.492558,56.040178 Z"
       id="path1664"
       inkscape:connector-curvature="0" />
    <g
       aria-label="Embedder"
       style="font-style:normal;font-variant:normal;font-weight:normal;font-stretch:normal;font-size:5.29166651px;line-height:6.61458302px;font-family:Purisa;-inkscape-font-specification:Purisa;letter-spacing:0px;word-spacing:0px;fill:#000000;fill-opacity:1;stroke:none;stroke-width:0.26458332px;stroke-linecap:butt;stroke-linejoin:miter;stroke-opacity:1"
       id="text1614">
      <path
         d="m 99.247794,54.317294 q 0,-0.15875 0.04233,-0.264583 0.04763,-0.111125 0.08996,-0.142875 0.04233,-0.03704 0.07408,-0.03704 0.05821,0 0.1905,-0.06879 0.132292,-0.07408 0.28575,-0.15875 0.158751,-0.08467 0.444501,-0.153458 0.28575,-0.07408 0.60854,-0.07408 0.48154,0 0.48154,0.153458 0,0.07408 -0.508,0.164042 -0.41275,0.06879 -0.77787,0.201083 -0.365127,0.127 -0.492127,0.248708 -0.07937,0.07938 -0.07937,0.227542 0,0.03175 0.0053,0.127 0.01058,0.08996 0.03175,0.291042 0.02117,0.201083 0.03704,0.396875 0.03175,0.439208 0.08996,0.439208 0.01587,0 0.03704,-0.01588 0.08996,-0.05292 0.603249,-0.174625 0.51858,-0.121708 0.65088,-0.121708 0.15875,0 0.15875,0.132291 0,0.09525 -0.17992,0.169334 -0.17992,0.07408 -0.71967,0.211666 -0.396872,0.09525 -0.492122,0.142875 -0.08996,0.04763 -0.08996,0.148167 0,0.142875 0.01058,0.661458 l 0.01588,0.455084 h 0.269872 q 0.23813,0 0.60325,-0.09525 0.37042,-0.100542 0.61384,-0.232834 0.16404,-0.08996 0.22225,-0.08996 0.0529,0 0.10583,0.0635 0.0529,0.05821 0.0529,0.116417 0,0.185208 -0.5768,0.41275 -0.5715,0.22225 -1.121829,0.22225 -0.333375,0 -0.402167,-0.100542 -0.05821,-0.06879 -0.08996,-0.418042 -0.03175,-0.354541 -0.07408,-1.053041 -0.03704,-0.703792 -0.08467,-1.201209 -0.03704,-0.386291 -0.03704,-0.582083 z"
         style="font-style:normal;font-variant:normal;font-weight:normal;font-stretch:normal;font-family:Purisa;-inkscape-font-specification:Purisa;stroke:none;stroke-width:0.26458332px"
         id="path1773" />
      <path
         d="m 102.71979,54.952294 q 0,-0.306917 0.0847,-0.306917 0.0688,0 0.14816,0.481542 0.0847,0.481542 0.11642,0.481542 0.0106,0 0.037,-0.0635 0.0265,-0.06879 0.0582,-0.148167 0.0318,-0.08467 0.0529,-0.105833 0.0529,-0.06879 0.14287,-0.259292 0.11113,-0.227542 0.16933,-0.275167 0.0582,-0.05292 0.20638,-0.05292 0.16404,0 0.35983,0.227541 0.127,0.148167 0.16934,0.275167 0.0476,0.121708 0.10054,0.4445 l 0.0847,0.497417 0.09,-0.3175 q 0.13229,-0.460375 0.381,-0.79375 0.24871,-0.333375 0.46038,-0.333375 0.13229,0 0.24341,0.153458 0.11113,0.148167 0.15875,0.381 0.0476,0.216958 0.0476,0.957792 0,0.555625 -0.005,0.85725 -0.005,0.301625 -0.0265,0.439208 -0.0159,0.132292 -0.0317,0.153458 -0.0159,0.02646 -0.0582,0.03175 -0.0159,0.0053 -0.037,0.0053 -0.0476,0 -0.0582,-0.148167 -0.0106,-0.148166 -0.0159,-0.830791 0,-1.666875 -0.254,-1.666875 -0.13759,0 -0.35984,0.455083 -0.18521,0.375708 -0.31221,0.915458 -0.127,0.53975 -0.15345,1.090084 -0.005,0.132291 -0.0318,0.179916 -0.0212,0.04763 -0.0741,0.04763 -0.0635,0 -0.0847,-0.111125 -0.0159,-0.105833 -0.0371,-0.5715 -0.037,-0.85725 -0.10583,-1.201208 -0.0688,-0.34925 -0.254,-0.629708 -0.13758,-0.195792 -0.20108,-0.195792 -0.0741,0 -0.16404,0.185208 -0.09,0.179917 -0.29634,0.693209 -0.0953,0.248708 -0.0953,0.455083 0,0.121708 -0.0476,0.269875 -0.0423,0.142875 -0.0582,0.714375 -0.0106,0.534458 -0.0423,0.608542 -0.0212,0.0635 -0.0847,0.0635 -0.0847,0 -0.11642,-0.254 -0.0265,-0.254 -0.0265,-1.016 0,-0.613834 -0.0423,-1.127125 -0.037,-0.513292 -0.037,-0.656167 z"
         style="font-style:normal;font-variant:normal;font-weight:normal;font-stretch:normal;font-family:Purisa;-inkscape-font-specification:Purisa;stroke:none;stroke-width:0.26458332px"
         id="path1775" />
      <path
         d="m 108.93088,54.745919 q 0.0741,0 0.16934,0.04762 0.10054,0.04233 0.21166,0.137583 0.11113,0.08996 0.18521,0.280459 0.0741,0.185208 0.0741,0.433916 0,0.370417 -0.16933,0.772584 -0.16404,0.396875 -0.46037,0.693208 -0.22225,0.22225 -0.58738,0.423333 -0.35983,0.201084 -0.53446,0.201084 -0.17462,0 -0.39158,-0.121709 -0.21696,-0.121708 -0.24342,-0.227541 -0.0159,-0.05821 -0.0582,-1.068917 -0.0423,-1.016 -0.11112,-1.439333 -0.14288,-0.899584 -0.14288,-1.439334 0,-0.195791 0.0741,-0.269875 0.0794,-0.07937 0.127,-0.07937 0.0794,0 0.10583,0.195792 0.0318,0.195792 0.0635,0.645583 0.0318,0.449792 0.0847,0.788459 0.0688,0.4445 0.0952,0.73025 l 0.0265,0.291041 0.41275,-0.407458 q 0.41275,-0.41275 0.6932,-0.502708 0.26988,-0.08467 0.37571,-0.08467 z m 0.33338,0.926042 q 0,-0.587375 -0.34925,-0.587375 -0.09,0 -0.25929,0.03175 -0.11113,0.02117 -0.37042,0.254 -0.25929,0.227541 -0.47096,0.492125 -0.13229,0.169333 -0.21167,0.449791 -0.0741,0.280459 -0.0741,0.550334 0,0.301625 0.09,0.4445 0.09,0.137583 0.20108,0.137583 0.0582,0 0.26459,-0.0635 0.23283,-0.07408 0.48683,-0.296333 0.25929,-0.22225 0.44979,-0.513292 0.24342,-0.375708 0.24342,-0.899583 z"
         style="font-style:normal;font-variant:normal;font-weight:normal;font-stretch:normal;font-family:Purisa;-inkscape-font-specification:Purisa;stroke:none;stroke-width:0.26458332px"
         id="path1777" />
      <path
         d="m 112.89062,56.476294 q 0.0265,0 0.0265,0.04233 0,0.09525 -0.14288,0.306917 -0.13758,0.211667 -0.29633,0.34925 -0.55562,0.492125 -1.11125,0.492125 -0.21167,0 -0.42333,-0.09525 -0.20638,-0.100542 -0.38629,-0.280458 -0.17992,-0.179917 -0.29105,-0.481542 -0.11112,-0.301625 -0.11112,-0.672042 0,-0.227541 0.0529,-0.386291 0.10583,-0.322792 0.44979,-0.682625 0.34925,-0.359834 0.65616,-0.359834 0.0847,0 0.254,0.01588 0.254,0.02117 0.35455,0.05292 0.10583,0.03175 0.23812,0.132292 0.16933,0.127 0.29104,0.328083 0.127,0.195792 0.127,0.328083 0,0.169334 -0.13229,0.259292 -0.13229,0.08467 -0.51329,0.169333 -0.49213,0.111125 -0.97367,0.137584 l -0.49212,0.02646 v 0.211667 q 0,0.391583 0.36512,0.740833 0.27517,0.264583 0.5715,0.264583 0.22754,0 0.48154,-0.137583 0.2593,-0.142875 0.43921,-0.312208 0.17992,-0.169334 0.34396,-0.306917 0.16404,-0.142875 0.22225,-0.142875 z m -0.85196,-1.291167 q -0.16404,-0.148166 -0.24871,-0.185208 -0.0794,-0.04233 -0.21166,-0.04233 -0.26459,0 -0.39688,0.05292 -0.127,0.04762 -0.25929,0.201084 -0.40217,0.460375 -0.40217,0.613833 0,0.06879 0.127,0.06879 0.48155,0 1.36525,-0.201084 0.26459,-0.0635 0.26459,-0.22225 0,-0.07408 -0.23813,-0.28575 z"
         style="font-style:normal;font-variant:normal;font-weight:normal;font-stretch:normal;font-family:Purisa;-inkscape-font-specification:Purisa;stroke:none;stroke-width:0.26458332px"
         id="path1779" />
      <path
         d="m 116.54286,57.666919 q 0,0.116417 -0.0476,0.179917 -0.0423,0.06879 -0.0794,0.07937 -0.0317,0.01588 -0.0582,0.01588 -0.0688,0 -0.11641,-0.04763 -0.0476,-0.04233 -0.0741,-0.15875 -0.0265,-0.111125 -0.037,-0.169334 -0.005,-0.05821 -0.0212,-0.216958 -0.037,-0.534458 -0.0847,-0.534458 -0.0582,0 -0.18521,0.153458 -0.59267,0.6985 -1.24883,0.6985 -0.19579,0 -0.39159,-0.07408 -0.67733,-0.254 -0.67733,-1.037167 0,-0.338667 0.11113,-0.645583 0.11641,-0.312209 0.29104,-0.523875 0.17991,-0.211667 0.35983,-0.354542 0.17992,-0.142875 0.34396,-0.201083 0.20637,-0.07937 0.28575,-0.07937 0.13758,0 0.46037,0.179916 0.32809,0.179917 0.45509,0.34925 0.14287,0.1905 0.21696,0.1905 0.005,0 0.005,0 0,-0.0053 0.005,-0.0053 0.0582,-0.03704 0.0582,-1.381125 0,-1.328209 0.0635,-1.508125 0.0688,-0.164042 0.20637,-0.164042 h 0.14288 l -0.0423,2.174875 q -0.0159,0.809625 -0.0159,1.444625 0,0.862542 0.037,1.232958 0.037,0.370417 0.037,0.402167 z m -1.23825,-2.344208 q -0.31221,-0.206375 -0.43391,-0.206375 -0.10584,0 -0.47625,0.359833 -0.37042,0.359833 -0.43921,0.529167 -0.0529,0.127 -0.0529,0.460375 0,0.407458 0.0688,0.529166 0.0529,0.09525 0.254,0.206375 0.20638,0.111125 0.40746,0.111125 0.35983,0 0.91017,-0.529166 0.43391,-0.418042 0.43391,-0.545042 0,-0.174625 -0.22225,-0.465667 -0.21695,-0.291041 -0.44979,-0.449791 z"
         style="font-style:normal;font-variant:normal;font-weight:normal;font-stretch:normal;font-family:Purisa;-inkscape-font-specification:Purisa;stroke:none;stroke-width:0.26458332px"
         id="path1781" />
      <path
         d="m 120.32558,57.666919 q 0,0.116417 -0.0476,0.179917 -0.0423,0.06879 -0.0794,0.07937 -0.0318,0.01588 -0.0582,0.01588 -0.0688,0 -0.11642,-0.04763 -0.0476,-0.04233 -0.0741,-0.15875 -0.0265,-0.111125 -0.037,-0.169334 -0.005,-0.05821 -0.0212,-0.216958 -0.037,-0.534458 -0.0847,-0.534458 -0.0582,0 -0.1852,0.153458 -0.59267,0.6985 -1.24884,0.6985 -0.19579,0 -0.39158,-0.07408 -0.67733,-0.254 -0.67733,-1.037167 0,-0.338667 0.11112,-0.645583 0.11642,-0.312209 0.29104,-0.523875 0.17992,-0.211667 0.35984,-0.354542 0.17991,-0.142875 0.34395,-0.201083 0.20638,-0.07937 0.28575,-0.07937 0.13759,0 0.46038,0.179916 0.32808,0.179917 0.45508,0.34925 0.14288,0.1905 0.21696,0.1905 0.005,0 0.005,0 0,-0.0053 0.005,-0.0053 0.0582,-0.03704 0.0582,-1.381125 0,-1.328209 0.0635,-1.508125 0.0688,-0.164042 0.20638,-0.164042 h 0.14287 l -0.0423,2.174875 q -0.0159,0.809625 -0.0159,1.444625 0,0.862542 0.037,1.232958 0.037,0.370417 0.037,0.402167 z m -1.23825,-2.344208 q -0.31221,-0.206375 -0.43392,-0.206375 -0.10583,0 -0.47625,0.359833 -0.37042,0.359833 -0.43921,0.529167 -0.0529,0.127 -0.0529,0.460375 0,0.407458 0.0688,0.529166 0.0529,0.09525 0.254,0.206375 0.20637,0.111125 0.40746,0.111125 0.35983,0 0.91016,-0.529166 0.43392,-0.418042 0.43392,-0.545042 0,-0.174625 -0.22225,-0.465667 -0.21696,-0.291041 -0.44979,-0.449791 z"
         style="font-style:normal;font-variant:normal;font-weight:normal;font-stretch:normal;font-family:Purisa;-inkscape-font-specification:Purisa;stroke:none;stroke-width:0.26458332px"
         id="path1783" />
      <path
         d="m 123.722,56.476294 q 0.0265,0 0.0265,0.04233 0,0.09525 -0.14288,0.306917 -0.13758,0.211667 -0.29633,0.34925 -0.55563,0.492125 -1.11125,0.492125 -0.21167,0 -0.42333,-0.09525 -0.20638,-0.100542 -0.38629,-0.280458 -0.17992,-0.179917 -0.29105,-0.481542 -0.11112,-0.301625 -0.11112,-0.672042 0,-0.227541 0.0529,-0.386291 0.10583,-0.322792 0.44979,-0.682625 0.34925,-0.359834 0.65616,-0.359834 0.0847,0 0.254,0.01588 0.254,0.02117 0.35454,0.05292 0.10584,0.03175 0.23813,0.132292 0.16933,0.127 0.29104,0.328083 0.127,0.195792 0.127,0.328083 0,0.169334 -0.13229,0.259292 -0.13229,0.08467 -0.51329,0.169333 -0.49213,0.111125 -0.97367,0.137584 l -0.49212,0.02646 v 0.211667 q 0,0.391583 0.36512,0.740833 0.27517,0.264583 0.5715,0.264583 0.22754,0 0.48154,-0.137583 0.25929,-0.142875 0.43921,-0.312208 0.17992,-0.169334 0.34396,-0.306917 0.16404,-0.142875 0.22225,-0.142875 z m -0.85196,-1.291167 q -0.16404,-0.148166 -0.24871,-0.185208 -0.0794,-0.04233 -0.21166,-0.04233 -0.26459,0 -0.39688,0.05292 -0.127,0.04762 -0.25929,0.201084 -0.40217,0.460375 -0.40217,0.613833 0,0.06879 0.127,0.06879 0.48155,0 1.36525,-0.201084 0.26459,-0.0635 0.26459,-0.22225 0,-0.07408 -0.23813,-0.28575 z"
         style="font-style:normal;font-variant:normal;font-weight:normal;font-stretch:normal;font-family:Purisa;-inkscape-font-specification:Purisa;stroke:none;stroke-width:0.26458332px"
         id="path1785" />
      <path
         d="m 126.17303,55.042252 q 0.09,0 0.15875,0.05821 0.0688,0.05292 0.0688,0.08996 0,0.0635 -0.20109,0.142875 -0.32808,0.132292 -0.67204,0.640292 -0.33867,0.502708 -0.41275,0.973666 -0.0847,0.534459 -0.13758,0.6985 -0.0529,0.169334 -0.13759,0.169334 -0.0741,0 -0.11641,-0.05292 -0.037,-0.05292 -0.0529,-0.116417 -0.0106,-0.0635 -0.0265,-0.232833 -0.005,-0.03175 -0.005,-0.04763 -0.127,-1.3335 -0.127,-2.106083 0,-0.275167 0.0212,-0.338667 0.0582,-0.169333 0.14816,-0.169333 0.0847,0 0.0847,0.142875 0,0.238125 0.0741,0.767291 0.0741,0.529167 0.11113,0.529167 0.0476,0 0.19579,-0.291042 0.18521,-0.343958 0.49213,-0.597958 0.3122,-0.259292 0.53445,-0.259292 z"
         style="font-style:normal;font-variant:normal;font-weight:normal;font-stretch:normal;font-family:Purisa;-inkscape-font-specification:Purisa;stroke:none;stroke-width:0.26458332px"
         id="path1787" />
    </g>
    <g
       aria-label="gfx device"
       style="font-style:normal;font-variant:normal;font-weight:normal;font-stretch:normal;font-size:5.29166651px;line-height:6.61458302px;font-family:Purisa;-inkscape-font-specification:Purisa;letter-spacing:0px;word-spacing:0px;fill:#000000;fill-opacity:1;stroke:none;stroke-width:0.26458332px;stroke-linecap:butt;stroke-linejoin:miter;stroke-opacity:1"
       id="text1618">
      <path
         d="m 80.950407,101.4525 q 0.04762,0 0.08467,-0.0106 0.04233,-0.005 0.06879,-0.0212 0.02646,-0.0159 0.04762,-0.0318 0.02117,-0.0159 0.03175,-0.0423 0.01058,-0.0212 0.01588,-0.0423 0.01058,-0.0159 0.01058,-0.0423 0,-0.0212 0,-0.037 0,-0.0106 0,-0.0265 v -0.0159 q 0,-0.508 -0.06879,-0.96309 l -0.07408,-0.460371 q -0.03704,-0.53975 -0.07408,-0.53975 -0.02117,0 -0.07937,0.09525 -0.132291,0.195792 -0.428625,0.439208 -0.296333,0.243417 -0.492125,0.317503 -0.227541,0.09 -0.502708,0.09 -0.169333,0 -0.269875,-0.0423 -0.09525,-0.0423 -0.254,-0.179914 -0.153458,-0.137584 -0.216958,-0.243417 -0.0635,-0.105833 -0.100542,-0.301625 -0.03704,-0.195792 -0.03704,-0.333375 0,-0.100542 0.01587,-0.148167 0.03704,-0.142875 0.195792,-0.4445 0.15875,-0.301625 0.291042,-0.470958 0.111125,-0.148167 0.41275,-0.343958 0.306916,-0.201084 0.53975,-0.275167 0.248708,-0.07937 0.555625,-0.07937 0.391583,0 0.650875,0.137583 0.259291,0.132292 0.259291,0.41275 0,0.15875 -0.07937,0.391584 -0.07408,0.232833 -0.07408,0.407458 0,0.1905 0.121708,1.751541 l 0.07938,1.09538 -0.185208,0.14816 q -0.148167,0.12171 -0.301625,0.12171 -0.280458,0 -0.682625,-0.14287 -0.402167,-0.13759 -0.693208,-0.3228 -0.291042,-0.17991 -0.291042,-0.29633 0,-0.13758 0.142875,-0.33867 0.148167,-0.20108 0.248708,-0.20108 0.116417,0 0.116417,0.0794 0,0.0476 -0.04762,0.14287 -0.04762,0.0953 -0.04762,0.18521 0,0.14817 0.195792,0.25929 0.195791,0.11113 0.333375,0.11113 0.07937,0 0.259291,0.10583 0.185209,0.10583 0.322792,0.10583 z m -2.010833,-2.402414 q 0,0.306916 0.15875,0.560916 0.15875,0.254 0.396875,0.254 0.322791,0 0.693208,-0.291041 0.375708,-0.296334 0.608542,-0.735542 0.127,-0.248708 0.216958,-0.566208 0.09525,-0.322792 0.09525,-0.508 0,-0.105834 -0.03704,-0.127 -0.121708,-0.0635 -0.386291,-0.0635 -0.243417,0 -0.418042,0.05292 -0.460375,0.132292 -0.894292,0.619125 -0.433916,0.486834 -0.433916,0.804334 z"
         style="font-style:normal;font-variant:normal;font-weight:normal;font-stretch:normal;font-family:Purisa;-inkscape-font-specification:Purisa;stroke:none;stroke-width:0.26458332px"
         id="path1754" />
      <path
         d="m 83.141818,98.071127 q -0.0635,0 -0.269875,0.05821 -0.201083,0.05292 -0.322791,0.05292 -0.232834,0 -0.232834,-0.148166 0,-0.05821 0.08467,-0.105834 0.08996,-0.04762 0.343958,-0.121708 l 0.428625,-0.127 0.01058,-0.460375 q 0.01058,-0.492125 0.07408,-1.084792 0.04762,-0.439208 0.08467,-0.555625 0.03704,-0.116416 0.164041,-0.243416 0.105834,-0.105834 0.169334,-0.137584 0.06879,-0.03175 0.1905,-0.03175 0.08996,0 0.381,0.02646 0.22225,0.02117 0.3175,0.0635 0.09525,0.03704 0.216958,0.15875 0.179917,0.179916 0.179917,0.328083 0,0.105833 -0.08467,0.22225 -0.07937,0.111125 -0.121708,0.111125 -0.0635,0 -0.0635,-0.179917 0,-0.169333 -0.09525,-0.259291 -0.08996,-0.09525 -0.354542,-0.179917 -0.174625,-0.05292 -0.269875,-0.05292 -0.227542,0 -0.354542,0.264584 -0.04762,0.105833 -0.08996,0.608541 -0.03704,0.497417 -0.03704,0.915459 0,0.301625 0.02117,0.381 0.02646,0.07408 0.132292,0.07408 0.0635,0 0.264583,-0.03704 0.201083,-0.03704 0.333375,-0.03704 0.07408,0 0.121708,0.02646 0.04762,0.02117 0.04762,0.05292 0,0.08996 -0.455083,0.227541 l -0.455083,0.132292 -0.01588,0.841375 q 0,0.0635 -0.0053,0.174625 0,0.105833 0,0.148167 0,0.396875 0.03704,0.613833 0.03704,0.216961 0.07408,0.312211 0.03704,0.0953 0.03704,0.20637 0,0.15875 -0.148167,0.15875 -0.280458,0 -0.280458,-1.476373 0,-0.883708 -0.03175,-0.915458 -0.0053,-0.0053 -0.02646,-0.0053 z"
         style="font-style:normal;font-variant:normal;font-weight:normal;font-stretch:normal;font-family:Purisa;-inkscape-font-specification:Purisa;stroke:none;stroke-width:0.26458332px"
         id="path1756" />
      <path
         d="m 85.602691,97.907086 q 0,-0.0635 0.04763,-0.148167 0.05292,-0.08996 0.121708,-0.08996 0.08996,0 0.142875,0.142875 0.03704,0.100541 0.465667,0.5715 0.433917,0.470958 0.492125,0.470958 0.02646,0 0.264583,-0.381 l 0.365125,-0.60325 q 0.116417,-0.1905 0.211667,-0.1905 0.04762,0 0.09525,0.05821 0.05292,0.05821 0.05292,0.105834 0,0.05821 -0.127,0.216958 -0.127,0.15875 -0.15875,0.264583 -0.02117,0.08996 -0.232834,0.423334 -0.211666,0.333375 -0.211666,0.365125 0,0.03175 0.455083,0.449791 0.455083,0.418042 0.47625,0.492123 0.01587,0.0476 0.01587,0.09 0,0.127 -0.116417,0.127 -0.121708,0 -0.248708,-0.14287 -0.142875,-0.153463 -0.449792,-0.412754 -0.301625,-0.264584 -0.338666,-0.264584 -0.05292,0 -0.386292,0.513292 -0.179917,0.280456 -0.28575,0.396876 -0.105833,0.11642 -0.179917,0.11642 -0.03704,0 -0.08467,-0.0371 -0.04233,-0.037 -0.04233,-0.0741 0,-0.10054 0.338667,-0.613833 l 0.381,-0.576791 -0.232833,-0.248709 q -0.01587,-0.02117 -0.296334,-0.296333 -0.275166,-0.275167 -0.407458,-0.4445 -0.127,-0.174625 -0.127,-0.280458 z"
         style="font-style:normal;font-variant:normal;font-weight:normal;font-stretch:normal;font-family:Purisa;-inkscape-font-specification:Purisa;stroke:none;stroke-width:0.26458332px"
         id="path1758" />
      <path
         d="m 95.161921,100.50529 q 0,0.11642 -0.04763,0.17992 -0.04233,0.0688 -0.07937,0.0794 -0.03175,0.0159 -0.05821,0.0159 -0.06879,0 -0.116416,-0.0476 -0.04762,-0.0423 -0.07408,-0.15875 -0.02646,-0.11113 -0.03704,-0.16934 -0.0053,-0.0582 -0.02117,-0.21696 -0.03704,-0.534454 -0.08467,-0.534454 -0.05821,0 -0.185208,0.153458 -0.592667,0.698496 -1.248833,0.698496 -0.195792,0 -0.391584,-0.0741 -0.677333,-0.254 -0.677333,-1.037166 0,-0.338667 0.111125,-0.645583 0.116417,-0.312209 0.291042,-0.523875 0.179916,-0.211667 0.359833,-0.354542 0.179917,-0.142875 0.343958,-0.201083 0.206375,-0.07937 0.28575,-0.07937 0.137584,0 0.460375,0.179916 0.328084,0.179917 0.455084,0.34925 0.142875,0.1905 0.216958,0.1905 0.0053,0 0.0053,0 0,-0.0053 0.0053,-0.0053 0.05821,-0.03704 0.05821,-1.381125 0,-1.328209 0.0635,-1.508125 0.06879,-0.164042 0.206375,-0.164042 h 0.142874 l -0.04233,2.174875 q -0.01587,0.809625 -0.01587,1.444625 0,0.862542 0.03704,1.232961 0.03704,0.37041 0.03704,0.40216 z m -1.238249,-2.344204 q -0.312209,-0.206375 -0.433917,-0.206375 -0.105833,0 -0.47625,0.359833 -0.370417,0.359833 -0.439208,0.529167 -0.05292,0.127 -0.05292,0.460375 0,0.407458 0.06879,0.529166 0.05292,0.09525 0.254,0.206378 0.206375,0.11112 0.407458,0.11112 0.359833,0 0.910167,-0.529164 0.433916,-0.418042 0.433916,-0.545042 0,-0.174625 -0.22225,-0.465667 -0.216958,-0.291041 -0.449791,-0.449791 z"
         style="font-style:normal;font-variant:normal;font-weight:normal;font-stretch:normal;font-family:Purisa;-inkscape-font-specification:Purisa;stroke:none;stroke-width:0.26458332px"
         id="path1760" />
      <path
         d="m 98.558344,99.314669 q 0.02646,0 0.02646,0.04233 0,0.09525 -0.142875,0.306917 -0.137583,0.211667 -0.296333,0.349251 -0.555625,0.49212 -1.11125,0.49212 -0.211667,0 -0.423334,-0.0953 -0.206375,-0.10054 -0.386291,-0.28045 -0.179917,-0.179921 -0.291042,-0.481546 -0.111125,-0.301625 -0.111125,-0.672042 0,-0.227541 0.05292,-0.386291 0.105833,-0.322792 0.449791,-0.682625 0.34925,-0.359834 0.656167,-0.359834 0.08467,0 0.254,0.01587 0.254,0.02117 0.354542,0.05292 0.105833,0.03175 0.238125,0.132292 0.169333,0.127 0.291041,0.328083 0.127,0.195792 0.127,0.328083 0,0.169334 -0.132291,0.259292 -0.132292,0.08467 -0.513292,0.169333 -0.492125,0.111125 -0.973667,0.137584 l -0.492125,0.02646 v 0.211667 q 0,0.391583 0.365125,0.740833 0.275167,0.264581 0.5715,0.264581 0.227542,0 0.481542,-0.13758 0.259292,-0.142876 0.439208,-0.312209 0.179917,-0.169334 0.343959,-0.306917 0.164041,-0.142875 0.22225,-0.142875 z m -0.851959,-1.291167 q -0.164041,-0.148166 -0.248708,-0.185208 -0.07937,-0.04233 -0.211667,-0.04233 -0.264583,0 -0.396875,0.05292 -0.127,0.04762 -0.259291,0.201084 -0.402167,0.460375 -0.402167,0.613833 0,0.06879 0.127,0.06879 0.481542,0 1.36525,-0.201084 0.264583,-0.0635 0.264583,-0.22225 0,-0.07408 -0.238125,-0.28575 z"
         style="font-style:normal;font-variant:normal;font-weight:normal;font-stretch:normal;font-family:Purisa;-inkscape-font-specification:Purisa;stroke:none;stroke-width:0.26458332px"
         id="path1762" />
      <path
         d="m 101.29513,97.875336 q 0,-0.121709 0.0741,-0.243417 0.0794,-0.121708 0.17992,-0.121708 0.11641,0 0.11641,0.137583 0,0.248708 -0.65616,2.037292 -0.13229,0.365124 -0.33867,0.672044 -0.20637,0.30691 -0.3175,0.30691 -0.0847,0 -0.16404,-0.0952 -0.0741,-0.0953 -0.15346,-0.30691 -0.07937,-0.21167 -0.137582,-0.402169 -0.05821,-0.1905 -0.15875,-0.534459 -0.09525,-0.34925 -0.15875,-0.550333 -0.312208,-1.037167 -0.312208,-1.169458 0,-0.04763 0.04233,-0.04763 0.03175,0 0.05292,0.0053 0.153458,0.02646 0.381,0.682625 0.232833,0.656167 0.41275,1.30175 0.17992,0.645588 0.20637,0.645588 0.0582,0 0.24871,-0.391588 0.19579,-0.391583 0.29634,-0.719666 0.0741,-0.232834 0.17991,-0.523875 0.10584,-0.296334 0.15346,-0.449792 0.0529,-0.153458 0.0529,-0.232833 z"
         style="font-style:normal;font-variant:normal;font-weight:normal;font-stretch:normal;font-family:Purisa;-inkscape-font-specification:Purisa;stroke:none;stroke-width:0.26458332px"
         id="path1764" />
      <path
         d="m 102.54313,97.436127 q 0.0741,-0.0635 0.127,-0.0635 0.11113,0 0.15875,0.354542 0.0529,0.34925 0.0953,1.349375 0.0212,0.465667 0.0212,0.841375 0,0.375711 -0.0318,0.412751 -0.0635,0.0794 -0.15875,0.0794 -0.13229,0 -0.16404,-0.11112 -0.0265,-0.0688 -0.0794,-1.068918 -0.0529,-1.005416 -0.0529,-1.397 0,-0.328083 0.0847,-0.396875 z m -0.0318,-1.243541 q 0,-0.07408 0.0582,-0.148167 0.0635,-0.07408 0.11113,-0.07408 0.0529,0 0.14287,0.07408 0.0953,0.06879 0.0953,0.179917 0,0.07938 -0.0476,0.137583 -0.0423,0.05292 -0.11642,0.05292 -0.0847,0 -0.16404,-0.0635 -0.0794,-0.0635 -0.0794,-0.15875 z"
         style="font-style:normal;font-variant:normal;font-weight:normal;font-stretch:normal;font-family:Purisa;-inkscape-font-specification:Purisa;stroke:none;stroke-width:0.26458332px"
         id="path1766" />
      <path
         d="m 106.07979,98.325127 q 0,0.08996 -0.0423,0.148167 -0.037,0.05821 -0.09,0.05821 -0.10055,0 -0.127,-0.153458 -0.0106,-0.121708 -0.17463,-0.306917 -0.0688,-0.07408 -0.11112,-0.105833 -0.0423,-0.03175 -0.20109,-0.06879 -0.15346,-0.03704 -0.40746,-0.03704 -0.20637,0 -0.3175,0.07408 -0.10583,0.07408 -0.26458,0.301625 -0.381,0.53975 -0.381,0.973667 0,0.22225 0.0476,0.375708 0.0476,0.148167 0.09,0.201083 0.0476,0.04762 0.15346,0.153459 0.15346,0.148164 0.23284,0.190504 0.0847,0.037 0.23283,0.037 0.46037,0 1.00542,-0.624419 0.28575,-0.3175 0.41275,-0.3175 0.0688,0 0.0688,0.100541 0,0.09525 -0.254,0.407459 -0.24871,0.312209 -0.42863,0.439209 -0.41804,0.30162 -0.74612,0.30162 -0.23813,0 -0.52388,-0.14287 -0.29104,-0.14288 -0.42333,-0.386293 -0.127,-0.243416 -0.15346,-0.709083 -0.0159,-0.179917 -0.0159,-0.28575 0,-0.206375 0.14287,-0.470958 0.14817,-0.28575 0.42863,-0.550334 0.28575,-0.264583 0.49212,-0.322791 0.15875,-0.03704 0.34396,-0.03704 0.40217,0 0.70379,0.259292 0.30692,0.254 0.30692,0.497416 z"
         style="font-style:normal;font-variant:normal;font-weight:normal;font-stretch:normal;font-family:Purisa;-inkscape-font-specification:Purisa;stroke:none;stroke-width:0.26458332px"
         id="path1768" />
      <path
         d="m 109.42073,99.314669 q 0.0265,0 0.0265,0.04233 0,0.09525 -0.14288,0.306917 -0.13758,0.211667 -0.29633,0.349251 -0.55562,0.49212 -1.11125,0.49212 -0.21167,0 -0.42333,-0.0953 -0.20638,-0.10054 -0.38629,-0.28045 -0.17992,-0.179921 -0.29105,-0.481546 -0.11112,-0.301625 -0.11112,-0.672042 0,-0.227541 0.0529,-0.386291 0.10583,-0.322792 0.44979,-0.682625 0.34925,-0.359834 0.65616,-0.359834 0.0847,0 0.254,0.01587 0.254,0.02117 0.35455,0.05292 0.10583,0.03175 0.23812,0.132292 0.16933,0.127 0.29104,0.328083 0.127,0.195792 0.127,0.328083 0,0.169334 -0.13229,0.259292 -0.13229,0.08467 -0.51329,0.169333 -0.49213,0.111125 -0.97367,0.137584 l -0.49212,0.02646 v 0.211667 q 0,0.391583 0.36512,0.740833 0.27517,0.264581 0.5715,0.264581 0.22754,0 0.48154,-0.13758 0.2593,-0.142876 0.43921,-0.312209 0.17992,-0.169334 0.34396,-0.306917 0.16404,-0.142875 0.22225,-0.142875 z m -0.85196,-1.291167 q -0.16404,-0.148166 -0.24871,-0.185208 -0.0794,-0.04233 -0.21166,-0.04233 -0.26459,0 -0.39688,0.05292 -0.127,0.04762 -0.25929,0.201084 -0.40217,0.460375 -0.40217,0.613833 0,0.06879 0.127,0.06879 0.48155,0 1.36525,-0.201084 0.26459,-0.0635 0.26459,-0.22225 0,-0.07408 -0.23813,-0.28575 z"
         style="font-style:normal;font-variant:normal;font-weight:normal;font-stretch:normal;font-family:Purisa;-inkscape-font-specification:Purisa;stroke:none;stroke-width:0.26458332px"
         id="path1770" />
    </g>
    <g
       aria-label="Low level
components"
       style="font-style:normal;font-variant:normal;font-weight:normal;font-stretch:normal;font-size:5.29166651px;line-height:6.61458302px;font-family:Purisa;-inkscape-font-specification:Purisa;letter-spacing:0px;word-spacing:0px;fill:#000000;fill-opacity:1;stroke:none;stroke-width:0.26458332px;stroke-linecap:butt;stroke-linejoin:miter;stroke-opacity:1"
       id="text1626">
      <path
         d="m 23.132577,93.634299 q 0,-0.0053 0,-0.02117 0,-0.02117 0,-0.03175 0,-0.01588 0,-0.03175 0,-0.02117 0,-0.03175 0.0053,-0.01587 0.01058,-0.02646 0.0053,-0.01587 0.01588,-0.02646 0.01058,-0.01058 0.02117,-0.01588 0.01587,-0.0053 0.03175,-0.0053 0.105834,0 0.185209,0.195792 0.06879,0.174625 0.137583,1.666875 0.07408,1.561041 0.121708,1.772708 0.03704,0.164042 0.137584,0.174625 0.02117,0.0053 0.0635,0.0053 0.142875,0 0.635,-0.111125 0.492125,-0.116417 0.931333,-0.227542 0.4445,-0.116417 0.460375,-0.116417 0.08996,0 0.142875,0.06879 0.05821,0.06879 0.05821,0.111125 0,0.03704 -0.100542,0.132292 -0.169333,0.137583 -0.984249,0.343958 -0.814917,0.206375 -1.30175,0.206375 -0.22225,0 -0.291042,-0.07937 -0.111125,-0.127 -0.15875,-0.804333 -0.01588,-0.280459 -0.05821,-1.264709 -0.05821,-1.322916 -0.05821,-1.883833 z"
         style="font-style:normal;font-variant:normal;font-weight:normal;font-stretch:normal;font-family:Purisa;-inkscape-font-specification:Purisa;stroke:none;stroke-width:0.26458332px"
         id="path1717" />
      <path
         d="m 27.18062,95.237674 q 0.41275,-0.386292 0.693208,-0.508 0.28575,-0.127 0.719667,-0.127 0.656166,0 0.820208,0.391583 0.100541,0.232834 0.100541,0.5715 0,0.560917 -0.248708,1.137709 -0.248708,0.5715 -0.613833,0.79375 -0.354542,0.216958 -0.746125,0.216958 -0.545042,0 -0.873125,-0.375708 -0.227542,-0.264584 -0.296333,-0.4445 -0.06879,-0.185209 -0.06879,-0.523875 0,-0.640292 0.513292,-1.132417 z m 0.851958,2.174875 q 0.4445,0 0.804333,-0.608542 0.365125,-0.613833 0.365125,-1.386416 0,-0.116417 -0.02646,-0.174625 -0.02646,-0.05821 -0.09525,-0.116417 -0.195792,-0.164042 -0.418042,-0.164042 -0.03704,0 -0.08467,0.01058 -0.04233,0.0053 -0.142875,0.02117 -0.100542,0.01058 -0.238125,0.02646 -0.185209,0.02646 -0.296334,0.08467 -0.105833,0.05292 -0.269875,0.206375 -0.312208,0.296334 -0.4445,0.550334 -0.132291,0.248708 -0.132291,0.545041 0,0.439209 0.269875,0.719667 0.275166,0.280458 0.709083,0.28575 z"
         style="font-style:normal;font-variant:normal;font-weight:normal;font-stretch:normal;font-family:Purisa;-inkscape-font-specification:Purisa;stroke:none;stroke-width:0.26458332px"
         id="path1719" />
      <path
         d="m 30.061353,94.877841 q 0,-0.04763 0.04233,-0.116417 0.04233,-0.07408 0.08467,-0.07408 0.05821,0 0.142875,0.105833 0.08467,0.09525 0.121709,0.460375 0.04233,0.359833 0.08467,0.439208 0.03704,0.0635 0.127,0.449792 0.08996,0.381 0.169334,0.73025 0.08467,0.343958 0.111125,0.343958 0.0053,0 0.05821,-0.148166 0.05821,-0.148167 0.132292,-0.34925 0.07408,-0.206375 0.111125,-0.338667 0.137583,-0.460375 0.3175,-0.460375 0.09525,0 0.322791,0.232833 0.232834,0.232834 0.3175,0.41275 0.08996,0.195792 0.1905,0.3175 l 0.08996,0.105834 0.05292,-0.153459 q 0.02646,-0.0635 0.216959,-1.021291 0.195791,-0.957792 0.296333,-1.0795 0.03175,-0.03704 0.08467,-0.03704 0.05292,0 0.09525,0.04233 0.04762,0.04233 0.04762,0.09525 0,0.01587 -0.03704,0.127 -0.03175,0.105834 -0.09525,0.365125 -0.0635,0.254 -0.116417,0.576792 -0.06879,0.396875 -0.22225,0.9525 -0.148166,0.550333 -0.201083,0.60325 -0.04233,0.04233 -0.137583,0.02117 -0.05821,-0.01058 -0.185209,-0.206375 -0.127,-0.201084 -0.407458,-0.73025 -0.03175,-0.05821 -0.132292,-0.164042 -0.09525,-0.111125 -0.127,-0.111125 -0.02646,0 -0.04763,0.03175 -0.02117,0.03175 -0.0635,0.132292 -0.03704,0.09525 -0.07937,0.216958 -0.04233,0.121708 -0.132291,0.359833 -0.08996,0.238125 -0.1905,0.486834 -0.08996,0.259291 -0.216959,0.259291 -0.03704,0 -0.07408,-0.03175 -0.06879,-0.05821 -0.164042,-0.41275 -0.09525,-0.359833 -0.201083,-0.846666 -0.105833,-0.492125 -0.153458,-0.661459 -0.100542,-0.312208 -0.100542,-0.470958 0,-0.116417 -0.06879,-0.264583 -0.0635,-0.148167 -0.0635,-0.1905 z"
         style="font-style:normal;font-variant:normal;font-weight:normal;font-stretch:normal;font-family:Purisa;-inkscape-font-specification:Purisa;stroke:none;stroke-width:0.26458332px"
         id="path1721" />
      <path
         d="m 37.458028,94.131716 q -0.03175,-0.338667 -0.03175,-0.746125 0,-0.407459 0.02117,-0.619125 0.02117,-0.216959 0.05292,-0.275167 0.03175,-0.05821 0.08996,-0.05821 0.05292,0 0.08467,0.04762 0.03175,0.05292 0.1905,2.450041 0.164041,2.397125 0.164041,2.492375 0,0.06879 -0.03175,0.09525 -0.03175,0.02117 -0.105833,0.02117 -0.127,0 -0.164042,-0.179917 -0.03704,-0.185208 -0.105833,-1.148291 -0.08467,-1.164167 -0.164042,-2.079625 z"
         style="font-style:normal;font-variant:normal;font-weight:normal;font-stretch:normal;font-family:Purisa;-inkscape-font-specification:Purisa;stroke:none;stroke-width:0.26458332px"
         id="path1723" />
      <path
         d="m 41.499952,96.475924 q 0.02646,0 0.02646,0.04233 0,0.09525 -0.142875,0.306917 -0.137583,0.211667 -0.296333,0.34925 -0.555625,0.492125 -1.11125,0.492125 -0.211666,0 -0.423333,-0.09525 -0.206375,-0.100542 -0.386292,-0.280458 -0.179916,-0.179917 -0.291041,-0.481542 -0.111125,-0.301625 -0.111125,-0.672042 0,-0.227541 0.05292,-0.386291 0.105834,-0.322792 0.449792,-0.682625 0.34925,-0.359834 0.656167,-0.359834 0.08467,0 0.254,0.01588 0.254,0.02117 0.354541,0.05292 0.105834,0.03175 0.238125,0.132292 0.169334,0.127 0.291042,0.328083 0.127,0.195792 0.127,0.328083 0,0.169334 -0.132292,0.259292 -0.132291,0.08467 -0.513291,0.169333 -0.492125,0.111125 -0.973667,0.137584 l -0.492125,0.02646 v 0.211667 q 0,0.391583 0.365125,0.740833 0.275167,0.264583 0.5715,0.264583 0.227542,0 0.481542,-0.137583 0.259291,-0.142875 0.439208,-0.312208 0.179917,-0.169334 0.343958,-0.306917 0.164042,-0.142875 0.22225,-0.142875 z m -0.851958,-1.291167 q -0.164042,-0.148166 -0.248708,-0.185208 -0.07937,-0.04233 -0.211667,-0.04233 -0.264583,0 -0.396875,0.05292 -0.127,0.04762 -0.259292,0.201084 -0.402166,0.460375 -0.402166,0.613833 0,0.06879 0.127,0.06879 0.481541,0 1.36525,-0.201084 0.264583,-0.0635 0.264583,-0.22225 0,-0.07408 -0.238125,-0.28575 z"
         style="font-style:normal;font-variant:normal;font-weight:normal;font-stretch:normal;font-family:Purisa;-inkscape-font-specification:Purisa;stroke:none;stroke-width:0.26458332px"
         id="path1725" />
      <path
         d="m 44.236735,95.036591 q 0,-0.121709 0.07408,-0.243417 0.07937,-0.121708 0.179917,-0.121708 0.116416,0 0.116416,0.137583 0,0.248708 -0.656166,2.037292 -0.132292,0.365125 -0.338667,0.672041 -0.206375,0.306917 -0.3175,0.306917 -0.08467,0 -0.164042,-0.09525 -0.07408,-0.09525 -0.153458,-0.306917 -0.07937,-0.211666 -0.137583,-0.402166 -0.05821,-0.1905 -0.15875,-0.534459 -0.09525,-0.34925 -0.15875,-0.550333 -0.312209,-1.037167 -0.312209,-1.169458 0,-0.04762 0.04233,-0.04762 0.03175,0 0.05292,0.0053 0.153459,0.02646 0.381,0.682625 0.232834,0.656167 0.41275,1.30175 0.179917,0.645584 0.206375,0.645584 0.05821,0 0.248709,-0.391584 0.195791,-0.391583 0.296333,-0.719666 0.07408,-0.232834 0.179917,-0.523875 0.105833,-0.296334 0.153458,-0.449792 0.05292,-0.153458 0.05292,-0.232833 z"
         style="font-style:normal;font-variant:normal;font-weight:normal;font-stretch:normal;font-family:Purisa;-inkscape-font-specification:Purisa;stroke:none;stroke-width:0.26458332px"
         id="path1727" />
      <path
         d="m 47.887159,96.475924 q 0.02646,0 0.02646,0.04233 0,0.09525 -0.142875,0.306917 -0.137584,0.211667 -0.296334,0.34925 -0.555625,0.492125 -1.11125,0.492125 -0.211666,0 -0.423333,-0.09525 -0.206375,-0.100542 -0.386292,-0.280458 -0.179916,-0.179917 -0.291041,-0.481542 -0.111125,-0.301625 -0.111125,-0.672042 0,-0.227541 0.05292,-0.386291 0.105834,-0.322792 0.449792,-0.682625 0.34925,-0.359834 0.656167,-0.359834 0.08467,0 0.254,0.01588 0.254,0.02117 0.354541,0.05292 0.105834,0.03175 0.238125,0.132292 0.169334,0.127 0.291042,0.328083 0.127,0.195792 0.127,0.328083 0,0.169334 -0.132292,0.259292 -0.132291,0.08467 -0.513291,0.169333 -0.492125,0.111125 -0.973667,0.137584 l -0.492125,0.02646 v 0.211667 q 0,0.391583 0.365125,0.740833 0.275167,0.264583 0.5715,0.264583 0.227542,0 0.481542,-0.137583 0.259291,-0.142875 0.439208,-0.312208 0.179917,-0.169334 0.343958,-0.306917 0.164042,-0.142875 0.22225,-0.142875 z m -0.851958,-1.291167 q -0.164042,-0.148166 -0.248708,-0.185208 -0.07937,-0.04233 -0.211667,-0.04233 -0.264583,0 -0.396875,0.05292 -0.127,0.04762 -0.259292,0.201084 -0.402166,0.460375 -0.402166,0.613833 0,0.06879 0.127,0.06879 0.481541,0 1.36525,-0.201084 0.264583,-0.0635 0.264583,-0.22225 0,-0.07408 -0.238125,-0.28575 z"
         style="font-style:normal;font-variant:normal;font-weight:normal;font-stretch:normal;font-family:Purisa;-inkscape-font-specification:Purisa;stroke:none;stroke-width:0.26458332px"
         id="path1729" />
      <path
         d="m 48.692484,94.131716 q -0.03175,-0.338667 -0.03175,-0.746125 0,-0.407459 0.02117,-0.619125 0.02117,-0.216959 0.05292,-0.275167 0.03175,-0.05821 0.08996,-0.05821 0.05292,0 0.08467,0.04762 0.03175,0.05292 0.1905,2.450041 0.164041,2.397125 0.164041,2.492375 0,0.06879 -0.03175,0.09525 -0.03175,0.02117 -0.105833,0.02117 -0.127,0 -0.164041,-0.179917 -0.03704,-0.185208 -0.105834,-1.148291 -0.08467,-1.164167 -0.164041,-2.079625 z"
         style="font-style:normal;font-variant:normal;font-weight:normal;font-stretch:normal;font-family:Purisa;-inkscape-font-specification:Purisa;stroke:none;stroke-width:0.26458332px"
         id="path1731" />
      <path
         d="m 25.291577,102.10097 q 0,0.09 -0.04233,0.14816 -0.03704,0.0582 -0.08996,0.0582 -0.100542,0 -0.127,-0.15346 -0.01058,-0.12171 -0.174625,-0.30691 -0.06879,-0.0741 -0.111125,-0.10584 -0.04233,-0.0318 -0.201084,-0.0688 -0.153458,-0.037 -0.407458,-0.037 -0.206375,0 -0.3175,0.0741 -0.105833,0.0741 -0.264583,0.30163 -0.381,0.53975 -0.381,0.97366 0,0.22225 0.04763,0.37571 0.04763,0.14817 0.08996,0.20109 0.04763,0.0476 0.153458,0.15345 0.153459,0.14817 0.232834,0.1905 0.08467,0.037 0.232833,0.037 0.460375,0 1.005417,-0.62442 0.28575,-0.3175 0.41275,-0.3175 0.06879,0 0.06879,0.10054 0,0.0953 -0.254,0.40746 -0.248708,0.31221 -0.428625,0.43921 -0.418041,0.30162 -0.746125,0.30162 -0.238125,0 -0.523875,-0.14287 -0.291041,-0.14288 -0.423333,-0.38629 -0.127,-0.24342 -0.153458,-0.70909 -0.01588,-0.17991 -0.01588,-0.28575 0,-0.20637 0.142875,-0.47096 0.148166,-0.28575 0.428625,-0.55033 0.28575,-0.26458 0.492125,-0.32279 0.15875,-0.037 0.343958,-0.037 0.402167,0 0.703792,0.25929 0.306916,0.254 0.306916,0.49742 z"
         style="font-style:normal;font-variant:normal;font-weight:normal;font-stretch:normal;font-family:Purisa;-inkscape-font-specification:Purisa;stroke:none;stroke-width:0.26458332px"
         id="path1733" />
      <path
         d="m 26.436479,101.85226 q 0.41275,-0.38629 0.693208,-0.508 0.28575,-0.127 0.719667,-0.127 0.656167,0 0.820208,0.39158 0.100542,0.23283 0.100542,0.5715 0,0.56092 -0.248708,1.13771 -0.248709,0.5715 -0.613834,0.79375 -0.354541,0.21696 -0.746125,0.21696 -0.545041,0 -0.873125,-0.37571 -0.227541,-0.26458 -0.296333,-0.4445 -0.06879,-0.18521 -0.06879,-0.52388 0,-0.64029 0.513292,-1.13241 z m 0.851958,2.17487 q 0.4445,0 0.804334,-0.60854 0.365125,-0.61383 0.365125,-1.38642 0,-0.11641 -0.02646,-0.17462 -0.02646,-0.0582 -0.09525,-0.11642 -0.195791,-0.16404 -0.418041,-0.16404 -0.03704,0 -0.08467,0.0106 -0.04233,0.005 -0.142875,0.0212 -0.100542,0.0106 -0.238125,0.0265 -0.185208,0.0265 -0.296333,0.0847 -0.105834,0.0529 -0.269875,0.20637 -0.312209,0.29633 -0.4445,0.55033 -0.132292,0.24871 -0.132292,0.54505 0,0.4392 0.269875,0.71966 0.275167,0.28046 0.709083,0.28575 z"
         style="font-style:normal;font-variant:normal;font-weight:normal;font-stretch:normal;font-family:Purisa;-inkscape-font-specification:Purisa;stroke:none;stroke-width:0.26458332px"
         id="path1735" />
      <path
         d="m 29.830504,101.56651 q 0,-0.30692 0.08467,-0.30692 0.06879,0 0.148167,0.48154 0.08467,0.48154 0.116416,0.48154 0.01058,0 0.03704,-0.0635 0.02646,-0.0688 0.05821,-0.14816 0.03175,-0.0847 0.05292,-0.10584 0.05292,-0.0688 0.142875,-0.25929 0.111125,-0.22754 0.169333,-0.27516 0.05821,-0.0529 0.206375,-0.0529 0.164042,0 0.359834,0.22754 0.127,0.14817 0.169333,0.27517 0.04763,0.12171 0.100542,0.4445 l 0.08467,0.49741 0.08996,-0.3175 q 0.132291,-0.46037 0.381,-0.79375 0.248708,-0.33337 0.460375,-0.33337 0.132291,0 0.243416,0.15346 0.111125,0.14816 0.15875,0.381 0.04762,0.21696 0.04762,0.95779 0,0.55562 -0.0053,0.85725 -0.0053,0.30162 -0.02646,0.43921 -0.01588,0.13229 -0.03175,0.15346 -0.01588,0.0265 -0.05821,0.0318 -0.01588,0.005 -0.03704,0.005 -0.04762,0 -0.05821,-0.14817 -0.01058,-0.14817 -0.01588,-0.83079 0,-1.66688 -0.254,-1.66688 -0.137583,0 -0.359833,0.45509 -0.185209,0.37571 -0.312209,0.91546 -0.127,0.53975 -0.153458,1.09008 -0.0053,0.13229 -0.03175,0.17992 -0.02117,0.0476 -0.07408,0.0476 -0.0635,0 -0.08467,-0.11112 -0.01588,-0.10584 -0.03704,-0.5715 -0.03704,-0.85725 -0.105833,-1.20121 -0.06879,-0.34925 -0.254,-0.62971 -0.137583,-0.19579 -0.201083,-0.19579 -0.07408,0 -0.164042,0.18521 -0.08996,0.17991 -0.296333,0.6932 -0.09525,0.24871 -0.09525,0.45509 0,0.12171 -0.04763,0.26987 -0.04233,0.14288 -0.05821,0.71438 -0.01058,0.53446 -0.04233,0.60854 -0.02117,0.0635 -0.08467,0.0635 -0.08467,0 -0.116416,-0.254 -0.02646,-0.254 -0.02646,-1.016 0,-0.61383 -0.04233,-1.12713 -0.03704,-0.51329 -0.03704,-0.65616 z"
         style="font-style:normal;font-variant:normal;font-weight:normal;font-stretch:normal;font-family:Purisa;-inkscape-font-specification:Purisa;stroke:none;stroke-width:0.26458332px"
         id="path1737" />
      <path
         d="m 33.999015,101.74642 q 0.148166,-0.13229 0.148166,-0.22754 0,-0.0952 0.05821,-0.22754 0.0635,-0.13758 0.179916,-0.13758 0.07408,0 0.127,0.0847 0.05821,0.0794 0.121709,0.0794 0.04763,0 0.391583,-0.0794 0.343958,-0.0847 0.60325,-0.0847 0.216958,0 0.481542,0.0582 0.550333,0.127 0.550333,0.68262 0,0.42333 -0.328083,1.12713 -0.216959,0.46566 -0.529167,0.71966 -0.312208,0.24871 -0.66675,0.24871 -0.100542,0 -0.153458,-0.0106 l -0.243417,-0.037 0.05821,0.28575 q 0.1905,0.89958 0.1905,1.12712 0,0.10583 -0.03704,0.13758 -0.03704,0.0371 -0.127,0.0371 -0.09525,0 -0.137584,-0.0476 -0.03704,-0.0423 -0.07937,-0.18521 -0.206375,-0.74083 -0.333375,-2.21191 -0.05821,-0.72496 -0.100541,-0.88371 -0.03704,-0.16404 -0.153459,-0.16404 -0.169333,0 -0.169333,-0.10055 0,-0.0582 0.148167,-0.1905 z m 0.788458,1.75684 q 0.07937,0 0.185208,0.0688 0.105834,0.0635 0.179917,0.0635 0.211667,0 0.486833,-0.26988 0.275167,-0.27516 0.465667,-0.66145 0.195792,-0.3863 0.195792,-0.68792 0,-0.16404 -0.07408,-0.29633 -0.06879,-0.1323 -0.121708,-0.14817 -0.08996,-0.037 -0.312208,-0.037 -0.492125,0 -0.873125,0.12171 l -0.354542,0.11641 0.01058,0.33867 q 0.01058,0.33867 0.05821,0.86254 0.02646,0.31221 0.05821,0.41804 0.03175,0.10584 0.09525,0.11113 z"
         style="font-style:normal;font-variant:normal;font-weight:normal;font-stretch:normal;font-family:Purisa;-inkscape-font-specification:Purisa;stroke:none;stroke-width:0.26458332px"
         id="path1739" />
      <path
         d="m 37.805293,101.85226 q 0.41275,-0.38629 0.693209,-0.508 0.28575,-0.127 0.719666,-0.127 0.656167,0 0.820209,0.39158 0.100541,0.23283 0.100541,0.5715 0,0.56092 -0.248708,1.13771 -0.248708,0.5715 -0.613833,0.79375 -0.354542,0.21696 -0.746125,0.21696 -0.545042,0 -0.873125,-0.37571 -0.227542,-0.26458 -0.296334,-0.4445 -0.06879,-0.18521 -0.06879,-0.52388 0,-0.64029 0.513291,-1.13241 z m 0.851959,2.17487 q 0.4445,0 0.804333,-0.60854 0.365125,-0.61383 0.365125,-1.38642 0,-0.11641 -0.02646,-0.17462 -0.02646,-0.0582 -0.09525,-0.11642 -0.195792,-0.16404 -0.418042,-0.16404 -0.03704,0 -0.08467,0.0106 -0.04233,0.005 -0.142875,0.0212 -0.100541,0.0106 -0.238125,0.0265 -0.185208,0.0265 -0.296333,0.0847 -0.105833,0.0529 -0.269875,0.20637 -0.312208,0.29633 -0.4445,0.55033 -0.132292,0.24871 -0.132292,0.54505 0,0.4392 0.269875,0.71966 0.275167,0.28046 0.709084,0.28575 z"
         style="font-style:normal;font-variant:normal;font-weight:normal;font-stretch:normal;font-family:Purisa;-inkscape-font-specification:Purisa;stroke:none;stroke-width:0.26458332px"
         id="path1741" />
      <path
         d="m 41.104069,101.36542 q 0,-0.17991 0.105833,-0.17991 0.06879,0 0.100542,0.15875 0.03175,0.15346 0.116416,0.92075 0.105834,0.85725 0.111125,0.86783 0.0053,0.005 0.04233,-0.10054 0.04233,-0.11113 0.111125,-0.32808 0.105833,-0.34925 0.179916,-0.50271 0.07408,-0.15875 0.264584,-0.43392 0.386291,-0.53446 0.597958,-0.53446 0.137583,0 0.259292,0.18521 0.164041,0.24342 0.201083,0.48154 0.03704,0.23813 0.05292,1.12713 0.01058,0.5715 0.01058,0.67733 0,0.26458 -0.02117,0.38629 -0.01588,0.11642 -0.05292,0.14288 -0.03175,0.0318 -0.116417,0.037 -0.04762,0 -0.0635,-0.0423 -0.01588,-0.037 -0.01588,-0.17992 0,-0.0794 0.01058,-0.33867 0.01058,-0.26458 0.01058,-0.4445 0,-0.44979 -0.03704,-0.87841 -0.03175,-0.43392 -0.07937,-0.55563 -0.02646,-0.0688 -0.08467,-0.14287 -0.05821,-0.0741 -0.111125,-0.0741 -0.111125,0 -0.354541,0.381 -0.243417,0.37571 -0.418042,0.79375 -0.164042,0.381 -0.22225,0.58738 -0.05292,0.20108 -0.08996,0.55033 -0.05821,0.53975 -0.08467,0.53975 -0.04233,0 -0.121708,-0.09 -0.05821,-0.0582 -0.07937,-0.24871 -0.02117,-0.19579 -0.05821,-0.76729 -0.03704,-0.57679 -0.100541,-1.16416 -0.0635,-0.60855 -0.0635,-0.8308 z"
         style="font-style:normal;font-variant:normal;font-weight:normal;font-stretch:normal;font-family:Purisa;-inkscape-font-specification:Purisa;stroke:none;stroke-width:0.26458332px"
         id="path1743" />
      <path
         d="m 46.719271,103.09051 q 0.02646,0 0.02646,0.0423 0,0.0952 -0.142875,0.30692 -0.137583,0.21166 -0.296333,0.34925 -0.555625,0.49212 -1.11125,0.49212 -0.211667,0 -0.423334,-0.0953 -0.206375,-0.10054 -0.386291,-0.28046 -0.179917,-0.17991 -0.291042,-0.48154 -0.111125,-0.30162 -0.111125,-0.67204 0,-0.22754 0.05292,-0.38629 0.105833,-0.32279 0.449791,-0.68263 0.34925,-0.35983 0.656167,-0.35983 0.08467,0 0.254,0.0159 0.254,0.0212 0.354542,0.0529 0.105833,0.0318 0.238125,0.13229 0.169333,0.127 0.291041,0.32809 0.127,0.19579 0.127,0.32808 0,0.16933 -0.132291,0.25929 -0.132292,0.0847 -0.513292,0.16934 -0.492125,0.11112 -0.973667,0.13758 l -0.492125,0.0265 v 0.21166 q 0,0.39159 0.365125,0.74084 0.275167,0.26458 0.5715,0.26458 0.227542,0 0.481542,-0.13758 0.259292,-0.14288 0.439208,-0.31221 0.179917,-0.16933 0.343959,-0.30692 0.164041,-0.14287 0.22225,-0.14287 z m -0.851959,-1.29117 q -0.164041,-0.14817 -0.248708,-0.18521 -0.07937,-0.0423 -0.211667,-0.0423 -0.264583,0 -0.396875,0.0529 -0.127,0.0476 -0.259291,0.20108 -0.402167,0.46037 -0.402167,0.61383 0,0.0688 0.127,0.0688 0.481542,0 1.36525,-0.20108 0.264583,-0.0635 0.264583,-0.22225 0,-0.0741 -0.238125,-0.28575 z"
         style="font-style:normal;font-variant:normal;font-weight:normal;font-stretch:normal;font-family:Purisa;-inkscape-font-specification:Purisa;stroke:none;stroke-width:0.26458332px"
         id="path1745" />
      <path
         d="m 47.646305,101.36542 q 0,-0.17991 0.105833,-0.17991 0.06879,0 0.100542,0.15875 0.03175,0.15346 0.116417,0.92075 0.105833,0.85725 0.111125,0.86783 0.0053,0.005 0.04233,-0.10054 0.04233,-0.11113 0.111125,-0.32808 0.105833,-0.34925 0.179917,-0.50271 0.07408,-0.15875 0.264583,-0.43392 0.386292,-0.53446 0.597958,-0.53446 0.137584,0 0.259292,0.18521 0.164042,0.24342 0.201083,0.48154 0.03704,0.23813 0.05292,1.12713 0.01058,0.5715 0.01058,0.67733 0,0.26458 -0.02117,0.38629 -0.01588,0.11642 -0.05292,0.14288 -0.03175,0.0318 -0.116417,0.037 -0.04762,0 -0.0635,-0.0423 -0.01588,-0.037 -0.01588,-0.17992 0,-0.0794 0.01058,-0.33867 0.01058,-0.26458 0.01058,-0.4445 0,-0.44979 -0.03704,-0.87841 -0.03175,-0.43392 -0.07937,-0.55563 -0.02646,-0.0688 -0.08467,-0.14287 -0.05821,-0.0741 -0.111125,-0.0741 -0.111125,0 -0.354542,0.381 -0.243417,0.37571 -0.418042,0.79375 -0.164041,0.381 -0.22225,0.58738 -0.05292,0.20108 -0.08996,0.55033 -0.05821,0.53975 -0.08467,0.53975 -0.04233,0 -0.121708,-0.09 -0.05821,-0.0582 -0.07937,-0.24871 -0.02117,-0.19579 -0.05821,-0.76729 -0.03704,-0.57679 -0.100542,-1.16416 -0.0635,-0.60855 -0.0635,-0.8308 z"
         style="font-style:normal;font-variant:normal;font-weight:normal;font-stretch:normal;font-family:Purisa;-inkscape-font-specification:Purisa;stroke:none;stroke-width:0.26458332px"
         id="path1747" />
      <path
         d="m 51.49409,100.55051 q 0,-0.19579 -0.03704,-0.49742 -0.03704,-0.301625 -0.03704,-0.502708 0,-0.100542 0.0053,-0.132292 0.01587,-0.08467 0.05821,-0.132291 0.04762,-0.05292 0.09525,-0.05292 0.0635,0 0.08996,0.05821 0.01588,0.03704 0.04763,0.391584 0.03175,0.354546 0.05821,0.693206 0.02646,0.33867 0.03704,0.34925 0.0053,0.005 0.01587,0.005 0.04233,0 0.243417,-0.0423 0.206375,-0.0476 0.338667,-0.0476 0.264583,0 0.264583,0.11641 0,0.11642 -0.582083,0.25929 l -0.264584,0.0635 0.03175,0.8943 q 0.02646,0.78845 0.100542,1.47637 0.07408,0.68263 0.07408,0.77258 0,0.16405 -0.121708,0.16405 -0.09525,0 -0.15875,-0.16934 -0.05821,-0.16933 -0.05821,-0.43921 0,-0.19579 -0.01588,-0.39687 -0.01588,-0.20638 -0.05821,-0.635 -0.03704,-0.43392 -0.07408,-0.889 -0.01588,-0.24342 -0.02646,-0.37571 -0.0053,-0.13229 -0.01588,-0.19579 -0.01058,-0.0635 -0.01588,-0.0741 -0.0053,-0.0159 -0.02117,-0.0159 -0.08467,0 -0.407458,0.0582 -0.322792,0.0582 -0.402167,0.0582 -0.153458,0 -0.153458,-0.127 0,-0.09 0.1905,-0.15346 0.195791,-0.0635 0.439208,-0.11113 0.243417,-0.0529 0.301625,-0.09 0.05821,-0.0423 0.05821,-0.28046 z"
         style="font-style:normal;font-variant:normal;font-weight:normal;font-stretch:normal;font-family:Purisa;-inkscape-font-specification:Purisa;stroke:none;stroke-width:0.26458332px"
         id="path1749" />
      <path
         d="m 53.962819,102.98467 q -0.07938,0 -0.338666,-0.1905 -0.259292,-0.19579 -0.259292,-0.39687 0,-0.1905 0.269875,-0.52388 0.269875,-0.33866 0.650875,-0.43391 0.169333,-0.0476 0.460375,-0.0476 0.121708,0 0.179917,0.0318 0.05821,0.0318 0.15875,0.14288 0.164041,0.18521 0.164041,0.254 0,0.0635 -0.06879,0.0635 -0.08467,0 -0.142875,-0.0582 -0.05821,-0.0635 -0.142875,-0.127 -0.08467,-0.0635 -0.227542,-0.0635 -0.185208,0 -0.396875,0.10054 -0.211667,0.10054 -0.375708,0.28046 -0.232834,0.24871 -0.232834,0.33867 0,0.09 0.137584,0.21695 0.137583,0.12171 0.460375,0.23284 0.508,0.17462 0.687916,0.32808 0.179917,0.15346 0.179917,0.41275 0,0.24342 -0.08467,0.4445 -0.05821,0.15346 -0.248708,0.34396 -0.1905,0.1905 -0.375708,0.1905 -0.142875,0 -0.370417,-0.0476 -0.227542,-0.0423 -0.343958,-0.10054 -0.09525,-0.0476 -0.174625,-0.18521 -0.07937,-0.14287 -0.07937,-0.254 0,-0.0582 0.02646,-0.10054 0.03175,-0.0476 0.07408,-0.0476 0.07937,0 0.148167,0.14816 0.0635,0.1323 0.254,0.23813 0.195792,0.10583 0.365125,0.10583 0.227542,0 0.402167,-0.26987 0.174625,-0.27517 0.174625,-0.42863 0,-0.037 -0.02117,-0.09 -0.01587,-0.0582 -0.08996,-0.13758 -0.07408,-0.0794 -0.1905,-0.12171 -0.111125,-0.037 -0.259292,-0.10054 -0.148167,-0.0635 -0.248708,-0.10583 -0.09525,-0.0423 -0.121709,-0.0423 z"
         style="font-style:normal;font-variant:normal;font-weight:normal;font-stretch:normal;font-family:Purisa;-inkscape-font-specification:Purisa;stroke:none;stroke-width:0.26458332px"
         id="path1751" />
    </g>
    <g
       aria-label="API"
       style="font-style:normal;font-variant:normal;font-weight:normal;font-stretch:normal;font-size:5.29166651px;line-height:6.61458302px;font-family:Purisa;-inkscape-font-specification:Purisa;letter-spacing:0px;word-spacing:0px;fill:#000000;fill-opacity:1;stroke:none;stroke-width:0.26458332px;stroke-linecap:butt;stroke-linejoin:miter;stroke-opacity:1"
       id="text1648">
      <path
         d="m 61.282029,43.01276 q 0,-0.07937 0.111125,-0.238125 0.111125,-0.164041 0.111125,-0.238125 0,-0.100541 0.07408,-0.127 0.05821,-0.02117 0.153458,-0.28575 0.100542,-0.264583 0.174625,-0.354541 0.07408,-0.08467 0.164042,-0.28575 0.08996,-0.201084 0.34925,-0.878417 0.164042,-0.423333 0.455083,-1.021291 0.291042,-0.597959 0.359834,-0.645584 0.0635,-0.03704 0.08467,-0.03704 0.03704,0 0.105834,0.04762 0.05821,0.04233 0.227541,0.597958 0.174625,0.555625 0.174625,0.714375 0.0053,0.105833 0.100542,0.481542 0.09525,0.370416 0.132292,0.587374 0.03175,0.216959 0.164041,0.687917 0.137584,0.465667 0.137584,0.576792 0,0.111125 -0.07408,0.111125 -0.05821,0 -0.164041,-0.05821 -0.04762,-0.02646 -0.07937,-0.05821 -0.03175,-0.03175 -0.05292,-0.06879 -0.01588,-0.03704 -0.03704,-0.116416 -0.02117,-0.07937 -0.03704,-0.153459 -0.01588,-0.07408 -0.05292,-0.238125 -0.03175,-0.164041 -0.06879,-0.3175 l -0.100541,-0.418041 -0.259292,0.03175 q -0.28575,0.04233 -0.629708,0.06879 l -0.370417,0.03175 -0.153458,0.291042 q -0.428625,0.799042 -0.576792,1.158875 -0.121708,0.28575 -0.259292,0.28575 -0.05821,0 -0.111125,-0.03175 -0.05292,-0.03175 -0.05292,-0.100542 z m 2.301875,-2.180166 q 0,-0.142875 -0.121709,-0.687917 -0.116416,-0.550333 -0.174625,-0.550333 -0.04233,0 -0.275166,0.470958 -0.227542,0.465667 -0.370417,0.846667 l -0.0635,0.164041 0.418042,-0.03175 q 0.386291,-0.03175 0.486833,-0.0635 0.100542,-0.03704 0.100542,-0.148166 z"
         style="font-style:normal;font-variant:normal;font-weight:normal;font-stretch:normal;font-family:Purisa;-inkscape-font-specification:Purisa;stroke:none;stroke-width:0.26458332px"
         id="path1790" />
      <path
         d="m 66.040725,38.774136 q 0.169334,0 0.41275,-0.04233 0.248709,-0.04763 0.407459,-0.04763 0.06879,0 0.09525,0.0053 0.211666,0.02646 0.306916,0.04233 0.09525,0.01588 0.243417,0.05292 0.153458,0.03175 0.216958,0.07937 0.06879,0.04762 0.142875,0.127 0.07937,0.07938 0.105834,0.195792 0.02646,0.111125 0.02646,0.269875 0,0.232833 -0.0635,0.486833 -0.0635,0.248708 -0.127,0.248708 -0.06879,0 -0.06879,0.100542 0,0.121708 -0.3175,0.41275 -0.3175,0.291041 -0.497416,0.328083 -0.216959,0.05821 -0.248709,0.116417 -0.03704,0.06879 -0.343958,0.06879 h -0.312208 l 0.05292,0.9525 q 0.02117,0.365125 0.02117,0.640292 0,0.338667 -0.05821,0.423333 -0.08996,0.105834 -0.153459,0.105834 -0.116416,0 -0.148166,-0.238125 -0.05292,-0.407459 -0.132292,-1.545167 -0.07937,-1.137708 -0.07937,-1.529291 v -0.566209 l -0.15875,0.111125 q -0.105833,0.07408 -0.185208,0.07408 -0.03175,0 -0.06879,-0.03704 -0.03175,-0.03704 -0.03175,-0.08996 0,-0.148167 0.301625,-0.465667 0.169333,-0.179917 0.254,-0.238125 0.08467,-0.05821 0.174625,-0.05821 0.02646,0 0.08996,0.01058 0.0635,0.0053 0.142875,0.0053 z m 1.153584,0.396875 q -0.280459,-0.0635 -0.386292,-0.0635 -0.105833,0 -0.486833,0.07937 -0.280459,0.05821 -0.34925,0.142875 -0.06879,0.08467 -0.06879,0.386291 0,0.306917 0.03704,0.66675 0.03704,0.359834 0.07937,0.407459 0.02117,0.02646 0.121708,0.02646 0.169333,0 0.455083,-0.07408 0.28575,-0.07937 0.460375,-0.174625 0.105834,-0.05821 0.179917,-0.137584 0.07408,-0.08467 0.07937,-0.148166 0.01587,-0.116417 0.185208,-0.338667 0.174625,-0.227542 0.174625,-0.370417 0,-0.296333 -0.481541,-0.402166 z"
         style="font-style:normal;font-variant:normal;font-weight:normal;font-stretch:normal;font-family:Purisa;-inkscape-font-specification:Purisa;stroke:none;stroke-width:0.26458332px"
         id="path1792" />
      <path
         d="m 70.334334,42.361885 q 0.0053,0 0.03175,-0.01588 0.02646,-0.02117 0.06879,-0.04233 0.04762,-0.02117 0.100541,-0.02117 0.08467,0 0.142875,0.04762 0.0635,0.04233 0.0635,0.116417 0,0.116417 -0.174625,0.22225 -0.174625,0.100542 -0.661458,0.28575 -0.3175,0.121708 -0.455083,0.121708 -0.08467,0 -0.227542,-0.04233 -0.153458,-0.04233 -0.211667,-0.08996 -0.05821,-0.04763 -0.05821,-0.121709 0,-0.07937 0.04233,-0.105833 0.04233,-0.02646 0.164042,-0.02646 0.185208,0 0.470958,-0.121709 l 0.264584,-0.121708 -0.04763,-0.989542 q -0.04762,-0.989541 -0.04762,-1.566333 v -0.566208 l -0.153459,0.04233 q -0.259291,0.07408 -0.502708,0.07408 -0.306917,0 -0.306917,-0.116417 0,-0.06879 0.185209,-0.148167 0.185208,-0.08467 0.470958,-0.174625 0.291042,-0.08996 0.370417,-0.121708 0.05821,-0.02646 0.343958,-0.02646 0.365125,0 0.465667,0.03704 0.03704,0.01588 0.06879,0.06879 0.03175,0.05292 0.03175,0.100542 0,0.09525 -0.08996,0.142875 -0.08996,0.04233 -0.34925,0.07408 l -0.15875,0.02117 0.01058,0.92075 q 0.03704,2.143124 0.148167,2.143124 z"
         style="font-style:normal;font-variant:normal;font-weight:normal;font-stretch:normal;font-family:Purisa;-inkscape-font-specification:Purisa;stroke:none;stroke-width:0.26458332px"
         id="path1794" />
    </g>
    <g
       aria-label="rendering components"
       style="font-style:normal;font-variant:normal;font-weight:normal;font-stretch:normal;font-size:5.29166651px;line-height:6.61458302px;font-family:Purisa;-inkscape-font-specification:Purisa;letter-spacing:0px;word-spacing:0px;fill:#000000;fill-opacity:1;stroke:none;stroke-width:0.26458332px;stroke-linecap:butt;stroke-linejoin:miter;stroke-opacity:1"
       id="text1656">
      <path
         d="m 6.8398622,61.36813 q 0.089958,0 0.15875,0.05821 0.068792,0.05292 0.068792,0.08996 0,0.0635 -0.2010833,0.142875 -0.3280833,0.132292 -0.6720417,0.640292 -0.3386666,0.502708 -0.4127499,0.973666 -0.084667,0.534459 -0.1375834,0.6985 -0.052917,0.169334 -0.1375833,0.169334 -0.074083,0 -0.1164167,-0.05292 -0.037042,-0.05292 -0.052917,-0.116417 -0.010583,-0.0635 -0.026458,-0.232833 -0.00529,-0.03175 -0.00529,-0.04762 -0.127,-1.3335 -0.127,-2.106083 0,-0.275167 0.021167,-0.338667 0.058208,-0.169333 0.1481667,-0.169333 0.084667,0 0.084667,0.142875 0,0.238125 0.074083,0.767291 0.074083,0.529167 0.111125,0.529167 0.047625,0 0.1957917,-0.291042 0.1852083,-0.343958 0.4921249,-0.597958 0.3122084,-0.259292 0.5344584,-0.259292 z"
         style="font-style:normal;font-variant:normal;font-weight:normal;font-stretch:normal;font-family:Purisa;-inkscape-font-specification:Purisa;stroke:none;stroke-width:0.26458332px"
         id="path1678" />
      <path
         d="m 10.434971,62.802172 q 0.02646,0 0.02646,0.04233 0,0.09525 -0.142875,0.306917 -0.137583,0.211667 -0.296333,0.34925 -0.5556253,0.492125 -1.1112503,0.492125 -0.2116666,0 -0.4233333,-0.09525 -0.206375,-0.100542 -0.3862916,-0.280458 -0.1799167,-0.179917 -0.2910417,-0.481542 -0.111125,-0.301625 -0.111125,-0.672042 0,-0.227541 0.052917,-0.386291 0.1058333,-0.322792 0.4497916,-0.682625 0.34925,-0.359834 0.6561667,-0.359834 0.084667,0 0.254,0.01588 0.254,0.02117 0.3545416,0.05292 0.1058334,0.03175 0.238125,0.132292 0.1693333,0.127 0.2910417,0.328083 0.1269996,0.195792 0.1269996,0.328083 0,0.169334 -0.1322913,0.259292 -0.1322917,0.08467 -0.5132916,0.169333 -0.492125,0.111125 -0.9736667,0.137584 l -0.492125,0.02646 v 0.211667 q 0,0.391583 0.365125,0.740833 0.2751667,0.264583 0.5715,0.264583 0.2275417,0 0.4815417,-0.137583 0.2592916,-0.142875 0.4392083,-0.312208 0.1799166,-0.169334 0.3439586,-0.306917 0.164041,-0.142875 0.22225,-0.142875 z M 9.5830124,61.511005 q -0.1640417,-0.148166 -0.2487083,-0.185208 -0.079375,-0.04233 -0.2116667,-0.04233 -0.2645833,0 -0.396875,0.05292 -0.127,0.04763 -0.2592916,0.201084 -0.4021667,0.460375 -0.4021667,0.613833 0,0.06879 0.127,0.06879 0.4815417,0 1.36525,-0.201084 0.2645833,-0.0635 0.2645833,-0.22225 0,-0.07408 -0.238125,-0.28575 z"
         style="font-style:normal;font-variant:normal;font-weight:normal;font-stretch:normal;font-family:Purisa;-inkscape-font-specification:Purisa;stroke:none;stroke-width:0.26458332px"
         id="path1680" />
      <path
         d="m 11.362005,61.077089 q 0,-0.179917 0.105833,-0.179917 0.06879,0 0.100542,0.15875 0.03175,0.153458 0.116416,0.92075 0.105834,0.85725 0.111125,0.867833 0.0053,0.0053 0.04233,-0.100541 0.04233,-0.111125 0.111125,-0.328084 0.105833,-0.34925 0.179916,-0.502708 0.07408,-0.15875 0.264584,-0.433917 0.386291,-0.534458 0.597958,-0.534458 0.137583,0 0.259292,0.185208 0.164041,0.243417 0.201083,0.481542 0.03704,0.238125 0.05292,1.127125 0.01058,0.5715 0.01058,0.677333 0,0.264584 -0.02117,0.386292 -0.01587,0.116417 -0.05292,0.142875 -0.03175,0.03175 -0.116417,0.03704 -0.04763,0 -0.0635,-0.04233 -0.01588,-0.03704 -0.01588,-0.179916 0,-0.07937 0.01058,-0.338667 0.01058,-0.264583 0.01058,-0.4445 0,-0.449792 -0.03704,-0.878417 -0.03175,-0.433916 -0.07937,-0.555625 -0.02646,-0.06879 -0.08467,-0.142875 -0.05821,-0.07408 -0.111125,-0.07408 -0.111125,0 -0.354541,0.381 -0.243417,0.375708 -0.418042,0.79375 -0.164042,0.381 -0.22225,0.587375 -0.05292,0.201083 -0.08996,0.550333 -0.05821,0.53975 -0.08467,0.53975 -0.04233,0 -0.121708,-0.08996 -0.05821,-0.05821 -0.07937,-0.248708 -0.02117,-0.195792 -0.05821,-0.767292 -0.03704,-0.576792 -0.100541,-1.164167 -0.0635,-0.608541 -0.0635,-0.830791 z"
         style="font-style:normal;font-variant:normal;font-weight:normal;font-stretch:normal;font-family:Purisa;-inkscape-font-specification:Purisa;stroke:none;stroke-width:0.26458332px"
         id="path1682" />
      <path
         d="m 17.363498,63.992797 q 0,0.116417 -0.04763,0.179917 -0.04233,0.06879 -0.07937,0.07937 -0.03175,0.01588 -0.05821,0.01588 -0.06879,0 -0.116417,-0.04763 -0.04763,-0.04233 -0.07408,-0.15875 -0.02646,-0.111125 -0.03704,-0.169334 -0.0053,-0.05821 -0.02117,-0.216958 -0.03704,-0.534458 -0.08467,-0.534458 -0.05821,0 -0.185208,0.153458 -0.592667,0.6985 -1.248834,0.6985 -0.195791,0 -0.391583,-0.07408 -0.677333,-0.254 -0.677333,-1.037167 0,-0.338667 0.111125,-0.645583 0.116416,-0.312209 0.291041,-0.523875 0.179917,-0.211667 0.359834,-0.354542 0.179916,-0.142875 0.343958,-0.201083 0.206375,-0.07937 0.28575,-0.07937 0.137583,0 0.460375,0.179916 0.328083,0.179917 0.455083,0.34925 0.142875,0.1905 0.216959,0.1905 0.0053,0 0.0053,0 0,-0.0053 0.0053,-0.0053 0.05821,-0.03704 0.05821,-1.381125 0,-1.328208 0.0635,-1.508125 0.06879,-0.164042 0.206375,-0.164042 h 0.142875 l -0.04233,2.174875 q -0.01587,0.809625 -0.01587,1.444625 0,0.862542 0.03704,1.232958 0.03704,0.370417 0.03704,0.402167 z m -1.23825,-2.344208 q -0.312208,-0.206375 -0.433916,-0.206375 -0.105834,0 -0.47625,0.359833 -0.370417,0.359833 -0.439209,0.529167 -0.05292,0.127 -0.05292,0.460375 0,0.407458 0.06879,0.529166 0.05292,0.09525 0.254,0.206375 0.206375,0.111125 0.407459,0.111125 0.359833,0 0.910166,-0.529166 0.433917,-0.418042 0.433917,-0.545042 0,-0.174625 -0.22225,-0.465667 -0.216958,-0.291041 -0.449792,-0.449791 z"
         style="font-style:normal;font-variant:normal;font-weight:normal;font-stretch:normal;font-family:Purisa;-inkscape-font-specification:Purisa;stroke:none;stroke-width:0.26458332px"
         id="path1684" />
      <path
         d="m 20.759921,62.802172 q 0.02646,0 0.02646,0.04233 0,0.09525 -0.142875,0.306917 -0.137584,0.211667 -0.296334,0.34925 -0.555625,0.492125 -1.11125,0.492125 -0.211666,0 -0.423333,-0.09525 -0.206375,-0.100542 -0.386292,-0.280458 -0.179916,-0.179917 -0.291041,-0.481542 -0.111125,-0.301625 -0.111125,-0.672042 0,-0.227541 0.05292,-0.386291 0.105834,-0.322792 0.449792,-0.682625 0.34925,-0.359834 0.656167,-0.359834 0.08467,0 0.254,0.01588 0.254,0.02117 0.354541,0.05292 0.105834,0.03175 0.238125,0.132292 0.169334,0.127 0.291042,0.328083 0.127,0.195792 0.127,0.328083 0,0.169334 -0.132292,0.259292 -0.132291,0.08467 -0.513291,0.169333 -0.492125,0.111125 -0.973667,0.137584 l -0.492125,0.02646 v 0.211667 q 0,0.391583 0.365125,0.740833 0.275167,0.264583 0.5715,0.264583 0.227542,0 0.481542,-0.137583 0.259291,-0.142875 0.439208,-0.312208 0.179917,-0.169334 0.343958,-0.306917 0.164042,-0.142875 0.22225,-0.142875 z m -0.851958,-1.291167 q -0.164042,-0.148166 -0.248708,-0.185208 -0.07938,-0.04233 -0.211667,-0.04233 -0.264583,0 -0.396875,0.05292 -0.127,0.04763 -0.259292,0.201084 -0.402166,0.460375 -0.402166,0.613833 0,0.06879 0.127,0.06879 0.481541,0 1.36525,-0.201084 0.264583,-0.0635 0.264583,-0.22225 0,-0.07408 -0.238125,-0.28575 z"
         style="font-style:normal;font-variant:normal;font-weight:normal;font-stretch:normal;font-family:Purisa;-inkscape-font-specification:Purisa;stroke:none;stroke-width:0.26458332px"
         id="path1686" />
      <path
         d="m 23.210956,61.36813 q 0.08996,0 0.15875,0.05821 0.06879,0.05292 0.06879,0.08996 0,0.0635 -0.201084,0.142875 -0.328083,0.132292 -0.672041,0.640292 -0.338667,0.502708 -0.41275,0.973666 -0.08467,0.534459 -0.137584,0.6985 -0.05292,0.169334 -0.137583,0.169334 -0.07408,0 -0.116417,-0.05292 -0.03704,-0.05292 -0.05292,-0.116417 -0.01058,-0.0635 -0.02646,-0.232833 -0.0053,-0.03175 -0.0053,-0.04762 -0.127,-1.3335 -0.127,-2.106083 0,-0.275167 0.02117,-0.338667 0.05821,-0.169333 0.148167,-0.169333 0.08467,0 0.08467,0.142875 0,0.238125 0.07408,0.767291 0.07408,0.529167 0.111125,0.529167 0.04763,0 0.195792,-0.291042 0.185208,-0.343958 0.492125,-0.597958 0.312208,-0.259292 0.534458,-0.259292 z"
         style="font-style:normal;font-variant:normal;font-weight:normal;font-stretch:normal;font-family:Purisa;-inkscape-font-specification:Purisa;stroke:none;stroke-width:0.26458332px"
         id="path1688" />
      <path
         d="m 24.403647,60.92363 q 0.07408,-0.0635 0.127,-0.0635 0.111125,0 0.15875,0.354542 0.05292,0.34925 0.09525,1.349375 0.02117,0.465667 0.02117,0.841375 0,0.375708 -0.03175,0.41275 -0.0635,0.07938 -0.15875,0.07938 -0.132292,0 -0.164042,-0.111125 -0.02646,-0.06879 -0.07937,-1.068917 -0.05292,-1.005416 -0.05292,-1.397 0,-0.328083 0.08467,-0.396875 z m -0.03175,-1.243541 q 0,-0.07408 0.05821,-0.148167 0.0635,-0.07408 0.111125,-0.07408 0.05292,0 0.142875,0.07408 0.09525,0.06879 0.09525,0.179917 0,0.07937 -0.04763,0.137583 -0.04233,0.05292 -0.116417,0.05292 -0.08467,0 -0.164042,-0.0635 -0.07937,-0.0635 -0.07937,-0.15875 z"
         style="font-style:normal;font-variant:normal;font-weight:normal;font-stretch:normal;font-family:Purisa;-inkscape-font-specification:Purisa;stroke:none;stroke-width:0.26458332px"
         id="path1690" />
      <path
         d="m 25.934759,61.077089 q 0,-0.179917 0.105833,-0.179917 0.06879,0 0.100542,0.15875 0.03175,0.153458 0.116416,0.92075 0.105834,0.85725 0.111125,0.867833 0.0053,0.0053 0.04233,-0.100541 0.04233,-0.111125 0.111125,-0.328084 0.105833,-0.34925 0.179916,-0.502708 0.07408,-0.15875 0.264584,-0.433917 0.386291,-0.534458 0.597958,-0.534458 0.137583,0 0.259292,0.185208 0.164041,0.243417 0.201083,0.481542 0.03704,0.238125 0.05292,1.127125 0.01058,0.5715 0.01058,0.677333 0,0.264584 -0.02117,0.386292 -0.01588,0.116417 -0.05292,0.142875 -0.03175,0.03175 -0.116417,0.03704 -0.04763,0 -0.0635,-0.04233 -0.01588,-0.03704 -0.01588,-0.179916 0,-0.07937 0.01058,-0.338667 0.01058,-0.264583 0.01058,-0.4445 0,-0.449792 -0.03704,-0.878417 -0.03175,-0.433916 -0.07938,-0.555625 -0.02646,-0.06879 -0.08467,-0.142875 -0.05821,-0.07408 -0.111125,-0.07408 -0.111125,0 -0.354541,0.381 -0.243417,0.375708 -0.418042,0.79375 -0.164042,0.381 -0.22225,0.587375 -0.05292,0.201083 -0.08996,0.550333 -0.05821,0.53975 -0.08467,0.53975 -0.04233,0 -0.121708,-0.08996 -0.05821,-0.05821 -0.07938,-0.248708 -0.02117,-0.195792 -0.05821,-0.767292 -0.03704,-0.576792 -0.100541,-1.164167 -0.0635,-0.608541 -0.0635,-0.830791 z"
         style="font-style:normal;font-variant:normal;font-weight:normal;font-stretch:normal;font-family:Purisa;-inkscape-font-specification:Purisa;stroke:none;stroke-width:0.26458332px"
         id="path1692" />
      <path
         d="m 31.253627,64.940005 q 0.04763,0 0.08467,-0.01058 0.04233,-0.0053 0.06879,-0.02117 0.02646,-0.01587 0.04763,-0.03175 0.02117,-0.01587 0.03175,-0.04233 0.01058,-0.02117 0.01587,-0.04233 0.01058,-0.01587 0.01058,-0.04233 0,-0.02117 0,-0.03704 0,-0.01058 0,-0.02646 v -0.01587 q 0,-0.508 -0.06879,-0.963083 l -0.07408,-0.460375 q -0.03704,-0.53975 -0.07408,-0.53975 -0.02117,0 -0.07938,0.09525 -0.132291,0.195792 -0.428625,0.439208 -0.296333,0.243417 -0.492125,0.3175 -0.227541,0.08996 -0.502708,0.08996 -0.169333,0 -0.269875,-0.04233 -0.09525,-0.04233 -0.254,-0.179916 -0.153458,-0.137584 -0.216958,-0.243417 -0.0635,-0.105833 -0.100542,-0.301625 -0.03704,-0.195792 -0.03704,-0.333375 0,-0.100542 0.01588,-0.148167 0.03704,-0.142875 0.195791,-0.4445 0.15875,-0.301625 0.291042,-0.470958 0.111125,-0.148167 0.41275,-0.343958 0.306916,-0.201084 0.53975,-0.275167 0.248708,-0.07937 0.555625,-0.07937 0.391583,0 0.650875,0.137583 0.259291,0.132292 0.259291,0.41275 0,0.15875 -0.07937,0.391584 -0.07408,0.232833 -0.07408,0.407458 0,0.1905 0.121708,1.751542 l 0.07937,1.095375 -0.185208,0.148166 q -0.148167,0.121709 -0.301625,0.121709 -0.280458,0 -0.682625,-0.142875 -0.402167,-0.137584 -0.693208,-0.322792 -0.291042,-0.179917 -0.291042,-0.296333 0,-0.137584 0.142875,-0.338667 0.148167,-0.201083 0.248708,-0.201083 0.116417,0 0.116417,0.07937 0,0.04763 -0.04763,0.142875 -0.04763,0.09525 -0.04763,0.185208 0,0.148167 0.195792,0.259292 0.195791,0.111125 0.333375,0.111125 0.07937,0 0.259291,0.105833 0.185209,0.105833 0.322792,0.105833 z m -2.010833,-2.402416 q 0,0.306916 0.15875,0.560916 0.15875,0.254 0.396875,0.254 0.322791,0 0.693208,-0.291041 0.375708,-0.296334 0.608542,-0.735542 0.127,-0.248708 0.216958,-0.566208 0.09525,-0.322792 0.09525,-0.508 0,-0.105834 -0.03704,-0.127 -0.121708,-0.0635 -0.386291,-0.0635 -0.243417,0 -0.418042,0.05292 -0.460375,0.132292 -0.894291,0.619125 -0.433917,0.486834 -0.433917,0.804334 z"
         style="font-style:normal;font-variant:normal;font-weight:normal;font-stretch:normal;font-family:Purisa;-inkscape-font-specification:Purisa;stroke:none;stroke-width:0.26458332px"
         id="path1694" />
      <path
         d="m 38.358269,61.81263 q 0,0.08996 -0.04233,0.148167 -0.03704,0.05821 -0.08996,0.05821 -0.100541,0 -0.127,-0.153458 -0.01058,-0.121708 -0.174625,-0.306917 -0.06879,-0.07408 -0.111125,-0.105833 -0.04233,-0.03175 -0.201083,-0.06879 -0.153458,-0.03704 -0.407458,-0.03704 -0.206375,0 -0.3175,0.07408 -0.105834,0.07408 -0.264584,0.301625 -0.381,0.53975 -0.381,0.973667 0,0.22225 0.04762,0.375708 0.04763,0.148167 0.08996,0.201083 0.04763,0.04762 0.153458,0.153459 0.153458,0.148166 0.232833,0.1905 0.08467,0.03704 0.232834,0.03704 0.460375,0 1.005416,-0.624416 0.28575,-0.3175 0.41275,-0.3175 0.06879,0 0.06879,0.100541 0,0.09525 -0.254,0.407459 -0.248708,0.312208 -0.428625,0.439208 -0.418042,0.301625 -0.746125,0.301625 -0.238125,0 -0.523875,-0.142875 -0.291042,-0.142875 -0.423333,-0.386292 -0.127,-0.243416 -0.153459,-0.709083 -0.01588,-0.179917 -0.01588,-0.28575 0,-0.206375 0.142875,-0.470958 0.148167,-0.28575 0.428625,-0.550334 0.28575,-0.264583 0.492125,-0.322791 0.15875,-0.03704 0.343959,-0.03704 0.402166,0 0.703791,0.259292 0.306917,0.254 0.306917,0.497416 z"
         style="font-style:normal;font-variant:normal;font-weight:normal;font-stretch:normal;font-family:Purisa;-inkscape-font-specification:Purisa;stroke:none;stroke-width:0.26458332px"
         id="path1696" />
      <path
         d="m 39.503171,61.563922 q 0.41275,-0.386292 0.693208,-0.508 0.28575,-0.127 0.719667,-0.127 0.656166,0 0.820208,0.391583 0.100542,0.232834 0.100542,0.5715 0,0.560917 -0.248709,1.137709 -0.248708,0.5715 -0.613833,0.79375 -0.354542,0.216958 -0.746125,0.216958 -0.545042,0 -0.873125,-0.375708 -0.227542,-0.264584 -0.296333,-0.4445 -0.06879,-0.185209 -0.06879,-0.523875 0,-0.640292 0.513292,-1.132417 z m 0.851958,2.174875 q 0.4445,0 0.804333,-0.608542 0.365125,-0.613833 0.365125,-1.386416 0,-0.116417 -0.02646,-0.174625 -0.02646,-0.05821 -0.09525,-0.116417 -0.195792,-0.164042 -0.418042,-0.164042 -0.03704,0 -0.08467,0.01058 -0.04233,0.0053 -0.142875,0.02117 -0.100542,0.01058 -0.238125,0.02646 -0.185209,0.02646 -0.296334,0.08467 -0.105833,0.05292 -0.269875,0.206375 -0.312208,0.296334 -0.4445,0.550334 -0.132291,0.248708 -0.132291,0.545041 0,0.439209 0.269875,0.719667 0.275166,0.280458 0.709083,0.28575 z"
         style="font-style:normal;font-variant:normal;font-weight:normal;font-stretch:normal;font-family:Purisa;-inkscape-font-specification:Purisa;stroke:none;stroke-width:0.26458332px"
         id="path1698" />
      <path
         d="m 42.897196,61.278172 q 0,-0.306917 0.08467,-0.306917 0.06879,0 0.148167,0.481542 0.08467,0.481542 0.116416,0.481542 0.01058,0 0.03704,-0.0635 0.02646,-0.06879 0.05821,-0.148167 0.03175,-0.08467 0.05292,-0.105833 0.05292,-0.06879 0.142875,-0.259292 0.111125,-0.227542 0.169333,-0.275167 0.05821,-0.05292 0.206375,-0.05292 0.164042,0 0.359833,0.227541 0.127,0.148167 0.169334,0.275167 0.04762,0.121708 0.100541,0.4445 l 0.08467,0.497417 0.08996,-0.3175 q 0.132292,-0.460375 0.381,-0.79375 0.248709,-0.333375 0.460375,-0.333375 0.132292,0 0.243417,0.153458 0.111125,0.148167 0.15875,0.381 0.04763,0.216958 0.04763,0.957792 0,0.555625 -0.0053,0.85725 -0.0053,0.301625 -0.02646,0.439208 -0.01588,0.132292 -0.03175,0.153458 -0.01588,0.02646 -0.05821,0.03175 -0.01588,0.0053 -0.03704,0.0053 -0.04763,0 -0.05821,-0.148167 -0.01058,-0.148166 -0.01588,-0.830791 0,-1.666875 -0.254,-1.666875 -0.137584,0 -0.359834,0.455083 -0.185208,0.375708 -0.312208,0.915458 -0.127,0.53975 -0.153458,1.090084 -0.0053,0.132291 -0.03175,0.179916 -0.02117,0.04762 -0.07408,0.04762 -0.0635,0 -0.08467,-0.111125 -0.01588,-0.105833 -0.03704,-0.5715 -0.03704,-0.85725 -0.105833,-1.201208 -0.06879,-0.34925 -0.254,-0.629708 -0.137584,-0.195792 -0.201084,-0.195792 -0.07408,0 -0.164041,0.185208 -0.08996,0.179917 -0.296333,0.693209 -0.09525,0.248708 -0.09525,0.455083 0,0.121708 -0.04763,0.269875 -0.04233,0.142875 -0.05821,0.714375 -0.01058,0.534458 -0.04233,0.608542 -0.02117,0.0635 -0.08467,0.0635 -0.08467,0 -0.116416,-0.254 -0.02646,-0.254 -0.02646,-1.016 0,-0.613834 -0.04233,-1.127125 -0.03704,-0.513292 -0.03704,-0.656167 z"
         style="font-style:normal;font-variant:normal;font-weight:normal;font-stretch:normal;font-family:Purisa;-inkscape-font-specification:Purisa;stroke:none;stroke-width:0.26458332px"
         id="path1700" />
      <path
         d="m 47.065707,61.458089 q 0.148166,-0.132292 0.148166,-0.227542 0,-0.09525 0.05821,-0.227542 0.0635,-0.137583 0.179916,-0.137583 0.07408,0 0.127,0.08467 0.05821,0.07937 0.121709,0.07937 0.04762,0 0.391583,-0.07937 0.343958,-0.08467 0.60325,-0.08467 0.216958,0 0.481542,0.05821 0.550333,0.127 0.550333,0.682625 0,0.423334 -0.328083,1.127125 -0.216959,0.465667 -0.529167,0.719667 -0.312208,0.248708 -0.66675,0.248708 -0.100542,0 -0.153458,-0.01058 l -0.243417,-0.03704 0.05821,0.28575 q 0.1905,0.899584 0.1905,1.127125 0,0.105834 -0.03704,0.137584 -0.03704,0.03704 -0.127,0.03704 -0.09525,0 -0.137584,-0.04762 -0.03704,-0.04233 -0.07937,-0.185208 -0.206375,-0.740833 -0.333375,-2.211917 -0.05821,-0.724958 -0.100541,-0.883708 -0.03704,-0.164042 -0.153459,-0.164042 -0.169333,0 -0.169333,-0.100541 0,-0.05821 0.148167,-0.1905 z m 0.788458,1.756833 q 0.07937,0 0.185208,0.06879 0.105834,0.0635 0.179917,0.0635 0.211667,0 0.486833,-0.269875 0.275167,-0.275167 0.465667,-0.661459 0.195792,-0.386291 0.195792,-0.687916 0,-0.164042 -0.07408,-0.296334 -0.06879,-0.132291 -0.121708,-0.148166 -0.08996,-0.03704 -0.312208,-0.03704 -0.492125,0 -0.873125,0.121708 l -0.354542,0.116417 0.01058,0.338667 q 0.01058,0.338666 0.05821,0.862541 0.02646,0.312209 0.05821,0.418042 0.03175,0.105833 0.09525,0.111125 z"
         style="font-style:normal;font-variant:normal;font-weight:normal;font-stretch:normal;font-family:Purisa;-inkscape-font-specification:Purisa;stroke:none;stroke-width:0.26458332px"
         id="path1702" />
      <path
         d="m 50.871983,61.563922 q 0.41275,-0.386292 0.693209,-0.508 0.28575,-0.127 0.719666,-0.127 0.656167,0 0.820209,0.391583 0.100541,0.232834 0.100541,0.5715 0,0.560917 -0.248708,1.137709 -0.248708,0.5715 -0.613833,0.79375 -0.354542,0.216958 -0.746125,0.216958 -0.545042,0 -0.873125,-0.375708 -0.227542,-0.264584 -0.296334,-0.4445 -0.06879,-0.185209 -0.06879,-0.523875 0,-0.640292 0.513291,-1.132417 z m 0.851959,2.174875 q 0.4445,0 0.804333,-0.608542 0.365125,-0.613833 0.365125,-1.386416 0,-0.116417 -0.02646,-0.174625 -0.02646,-0.05821 -0.09525,-0.116417 -0.195792,-0.164042 -0.418042,-0.164042 -0.03704,0 -0.08467,0.01058 -0.04233,0.0053 -0.142875,0.02117 -0.100541,0.01058 -0.238125,0.02646 -0.185208,0.02646 -0.296333,0.08467 -0.105833,0.05292 -0.269875,0.206375 -0.312208,0.296334 -0.4445,0.550334 -0.132292,0.248708 -0.132292,0.545041 0,0.439209 0.269875,0.719667 0.275167,0.280458 0.709084,0.28575 z"
         style="font-style:normal;font-variant:normal;font-weight:normal;font-stretch:normal;font-family:Purisa;-inkscape-font-specification:Purisa;stroke:none;stroke-width:0.26458332px"
         id="path1704" />
      <path
         d="m 54.170759,61.077089 q 0,-0.179917 0.105833,-0.179917 0.06879,0 0.100542,0.15875 0.03175,0.153458 0.116416,0.92075 0.105834,0.85725 0.111125,0.867833 0.0053,0.0053 0.04233,-0.100541 0.04233,-0.111125 0.111125,-0.328084 0.105833,-0.34925 0.179916,-0.502708 0.07408,-0.15875 0.264584,-0.433917 0.386291,-0.534458 0.597958,-0.534458 0.137583,0 0.259292,0.185208 0.164041,0.243417 0.201083,0.481542 0.03704,0.238125 0.05292,1.127125 0.01058,0.5715 0.01058,0.677333 0,0.264584 -0.02117,0.386292 -0.01588,0.116417 -0.05292,0.142875 -0.03175,0.03175 -0.116417,0.03704 -0.04762,0 -0.0635,-0.04233 -0.01588,-0.03704 -0.01588,-0.179916 0,-0.07937 0.01058,-0.338667 0.01058,-0.264583 0.01058,-0.4445 0,-0.449792 -0.03704,-0.878417 -0.03175,-0.433916 -0.07937,-0.555625 -0.02646,-0.06879 -0.08467,-0.142875 -0.05821,-0.07408 -0.111125,-0.07408 -0.111125,0 -0.354541,0.381 -0.243417,0.375708 -0.418042,0.79375 -0.164042,0.381 -0.22225,0.587375 -0.05292,0.201083 -0.08996,0.550333 -0.05821,0.53975 -0.08467,0.53975 -0.04233,0 -0.121708,-0.08996 -0.05821,-0.05821 -0.07937,-0.248708 -0.02117,-0.195792 -0.05821,-0.767292 -0.03704,-0.576792 -0.100541,-1.164167 -0.0635,-0.608541 -0.0635,-0.830791 z"
         style="font-style:normal;font-variant:normal;font-weight:normal;font-stretch:normal;font-family:Purisa;-inkscape-font-specification:Purisa;stroke:none;stroke-width:0.26458332px"
         id="path1706" />
      <path
         d="m 59.785962,62.802172 q 0.02646,0 0.02646,0.04233 0,0.09525 -0.142875,0.306917 -0.137584,0.211667 -0.296334,0.34925 -0.555625,0.492125 -1.11125,0.492125 -0.211666,0 -0.423333,-0.09525 -0.206375,-0.100542 -0.386292,-0.280458 -0.179916,-0.179917 -0.291041,-0.481542 -0.111125,-0.301625 -0.111125,-0.672042 0,-0.227541 0.05292,-0.386291 0.105833,-0.322792 0.449791,-0.682625 0.34925,-0.359834 0.656167,-0.359834 0.08467,0 0.254,0.01588 0.254,0.02117 0.354541,0.05292 0.105834,0.03175 0.238125,0.132292 0.169334,0.127 0.291042,0.328083 0.127,0.195792 0.127,0.328083 0,0.169334 -0.132292,0.259292 -0.132291,0.08467 -0.513291,0.169333 -0.492125,0.111125 -0.973667,0.137584 l -0.492125,0.02646 v 0.211667 q 0,0.391583 0.365125,0.740833 0.275167,0.264583 0.5715,0.264583 0.227542,0 0.481542,-0.137583 0.259291,-0.142875 0.439208,-0.312208 0.179917,-0.169334 0.343958,-0.306917 0.164042,-0.142875 0.22225,-0.142875 z m -0.851958,-1.291167 q -0.164042,-0.148166 -0.248708,-0.185208 -0.07937,-0.04233 -0.211667,-0.04233 -0.264583,0 -0.396875,0.05292 -0.127,0.04763 -0.259292,0.201084 -0.402166,0.460375 -0.402166,0.613833 0,0.06879 0.127,0.06879 0.481541,0 1.36525,-0.201084 0.264583,-0.0635 0.264583,-0.22225 0,-0.07408 -0.238125,-0.28575 z"
         style="font-style:normal;font-variant:normal;font-weight:normal;font-stretch:normal;font-family:Purisa;-inkscape-font-specification:Purisa;stroke:none;stroke-width:0.26458332px"
         id="path1708" />
      <path
         d="m 60.712995,61.077089 q 0,-0.179917 0.105833,-0.179917 0.06879,0 0.100542,0.15875 0.03175,0.153458 0.116417,0.92075 0.105833,0.85725 0.111125,0.867833 0.0053,0.0053 0.04233,-0.100541 0.04233,-0.111125 0.111125,-0.328084 0.105833,-0.34925 0.179917,-0.502708 0.07408,-0.15875 0.264583,-0.433917 0.386292,-0.534458 0.597958,-0.534458 0.137584,0 0.259292,0.185208 0.164042,0.243417 0.201083,0.481542 0.03704,0.238125 0.05292,1.127125 0.01058,0.5715 0.01058,0.677333 0,0.264584 -0.02117,0.386292 -0.01588,0.116417 -0.05292,0.142875 -0.03175,0.03175 -0.116417,0.03704 -0.04763,0 -0.0635,-0.04233 -0.01588,-0.03704 -0.01588,-0.179916 0,-0.07937 0.01058,-0.338667 0.01058,-0.264583 0.01058,-0.4445 0,-0.449792 -0.03704,-0.878417 -0.03175,-0.433916 -0.07937,-0.555625 -0.02646,-0.06879 -0.08467,-0.142875 -0.05821,-0.07408 -0.111125,-0.07408 -0.111125,0 -0.354542,0.381 -0.243417,0.375708 -0.418042,0.79375 -0.164041,0.381 -0.22225,0.587375 -0.05292,0.201083 -0.08996,0.550333 -0.05821,0.53975 -0.08467,0.53975 -0.04233,0 -0.121708,-0.08996 -0.05821,-0.05821 -0.07937,-0.248708 -0.02117,-0.195792 -0.05821,-0.767292 -0.03704,-0.576792 -0.100542,-1.164167 -0.0635,-0.608541 -0.0635,-0.830791 z"
         style="font-style:normal;font-variant:normal;font-weight:normal;font-stretch:normal;font-family:Purisa;-inkscape-font-specification:Purisa;stroke:none;stroke-width:0.26458332px"
         id="path1710" />
      <path
         d="m 64.560782,60.262172 q 0,-0.195792 -0.03704,-0.497417 -0.03704,-0.301624 -0.03704,-0.502708 0,-0.100541 0.0053,-0.132291 0.01587,-0.08467 0.05821,-0.132292 0.04762,-0.05292 0.09525,-0.05292 0.0635,0 0.08996,0.05821 0.01588,0.03704 0.04763,0.391583 0.03175,0.354541 0.05821,0.693208 0.02646,0.338667 0.03704,0.34925 0.0053,0.0053 0.01588,0.0053 0.04233,0 0.243417,-0.04233 0.206375,-0.04762 0.338666,-0.04762 0.264584,0 0.264584,0.116417 0,0.116417 -0.582084,0.259292 l -0.264583,0.0635 0.03175,0.894291 q 0.02646,0.788459 0.100542,1.476375 0.07408,0.682625 0.07408,0.772584 0,0.164041 -0.121708,0.164041 -0.09525,0 -0.15875,-0.169333 -0.05821,-0.169333 -0.05821,-0.439208 0,-0.195792 -0.01587,-0.396875 -0.01588,-0.206375 -0.05821,-0.635 -0.03704,-0.433917 -0.07408,-0.889 -0.01587,-0.243417 -0.02646,-0.375709 -0.0053,-0.132291 -0.01587,-0.195791 -0.01058,-0.0635 -0.01587,-0.07408 -0.0053,-0.01588 -0.02117,-0.01588 -0.08467,0 -0.407459,0.05821 -0.322791,0.05821 -0.402166,0.05821 -0.153458,0 -0.153458,-0.127 0,-0.08996 0.190499,-0.153458 0.195792,-0.0635 0.439209,-0.111125 0.243416,-0.05292 0.301625,-0.08996 0.05821,-0.04233 0.05821,-0.280458 z"
         style="font-style:normal;font-variant:normal;font-weight:normal;font-stretch:normal;font-family:Purisa;-inkscape-font-specification:Purisa;stroke:none;stroke-width:0.26458332px"
         id="path1712" />
      <path
         d="m 67.029511,62.696339 q -0.07937,0 -0.338666,-0.1905 -0.259292,-0.195792 -0.259292,-0.396875 0,-0.1905 0.269875,-0.523875 0.269875,-0.338667 0.650875,-0.433917 0.169333,-0.04763 0.460375,-0.04763 0.121708,0 0.179917,0.03175 0.05821,0.03175 0.15875,0.142875 0.164041,0.185208 0.164041,0.254 0,0.0635 -0.06879,0.0635 -0.08467,0 -0.142875,-0.05821 -0.05821,-0.0635 -0.142875,-0.127 -0.08467,-0.0635 -0.227542,-0.0635 -0.185208,0 -0.396875,0.100541 -0.211667,0.100542 -0.375708,0.280459 -0.232834,0.248708 -0.232834,0.338666 0,0.08996 0.137584,0.216959 0.137583,0.121708 0.460375,0.232833 0.508,0.174625 0.687916,0.328083 0.179917,0.153459 0.179917,0.41275 0,0.243417 -0.08467,0.4445 -0.05821,0.153459 -0.248708,0.343959 -0.1905,0.1905 -0.375708,0.1905 -0.142875,0 -0.370417,-0.04763 -0.227542,-0.04233 -0.343958,-0.100542 -0.09525,-0.04762 -0.174625,-0.185208 -0.07937,-0.142875 -0.07937,-0.254 0,-0.05821 0.02646,-0.100542 0.03175,-0.04762 0.07408,-0.04762 0.07937,0 0.148167,0.148167 0.0635,0.132291 0.254,0.238125 0.195792,0.105833 0.365125,0.105833 0.227542,0 0.402167,-0.269875 0.174625,-0.275167 0.174625,-0.428625 0,-0.03704 -0.02117,-0.08996 -0.01587,-0.05821 -0.08996,-0.137584 -0.07408,-0.07937 -0.1905,-0.121708 -0.111125,-0.03704 -0.259292,-0.100542 -0.148167,-0.0635 -0.248708,-0.105833 -0.09525,-0.04233 -0.121709,-0.04233 z"
         style="font-style:normal;font-variant:normal;font-weight:normal;font-stretch:normal;font-family:Purisa;-inkscape-font-specification:Purisa;stroke:none;stroke-width:0.26458332px"
         id="path1714" />
    </g>
    <path
       sodipodi:nodetypes="ccccc"
       inkscape:connector-curvature="0"
       id="path1672"
       d="m 6.4228131,28.738114 v 20.97768 L 36.717496,50.35317 37.108902,25.885928 Z"
       style="fill:#aaeeff;fill-rule:evenodd;stroke:none;stroke-width:0.26458332px;stroke-linecap:butt;stroke-linejoin:miter;stroke-opacity:1" />
    <g
       aria-label="API"
       style="font-style:normal;font-variant:normal;font-weight:normal;font-stretch:normal;font-size:5.29166651px;line-height:6.61458302px;font-family:Purisa;-inkscape-font-specification:Purisa;letter-spacing:0px;word-spacing:0px;fill:#000000;fill-opacity:1;stroke:none;stroke-width:0.26458332px;stroke-linecap:butt;stroke-linejoin:miter;stroke-opacity:1"
       id="text1676">
      <path
         d="m 15.712575,40.740971 q 0,-0.07937 0.111125,-0.238125 0.111125,-0.164042 0.111125,-0.238125 0,-0.100542 0.07408,-0.127 0.05821,-0.02117 0.153458,-0.28575 0.100542,-0.264583 0.174625,-0.354542 0.07408,-0.08467 0.164042,-0.28575 0.08996,-0.201083 0.34925,-0.878416 0.164042,-0.423334 0.455083,-1.021292 0.291042,-0.597958 0.359834,-0.645583 0.0635,-0.03704 0.08467,-0.03704 0.03704,0 0.105833,0.04763 0.05821,0.04233 0.227542,0.597958 0.174625,0.555625 0.174625,0.714375 0.0053,0.105834 0.100542,0.481542 0.09525,0.370417 0.132291,0.587375 0.03175,0.216958 0.164042,0.687917 0.137583,0.465666 0.137583,0.576791 0,0.111125 -0.07408,0.111125 -0.05821,0 -0.164042,-0.05821 -0.04763,-0.02646 -0.07937,-0.05821 -0.03175,-0.03175 -0.05292,-0.06879 -0.01587,-0.03704 -0.03704,-0.116417 -0.02117,-0.07937 -0.03704,-0.153458 -0.01587,-0.07408 -0.05292,-0.238125 -0.03175,-0.164042 -0.06879,-0.3175 l -0.100542,-0.418042 -0.259291,0.03175 q -0.28575,0.04233 -0.629708,0.06879 l -0.370417,0.03175 -0.153458,0.291042 q -0.428625,0.799041 -0.576792,1.158875 -0.121708,0.28575 -0.259292,0.28575 -0.05821,0 -0.111125,-0.03175 -0.05292,-0.03175 -0.05292,-0.100542 z m 2.301874,-2.180167 q 0,-0.142875 -0.121708,-0.687916 -0.116416,-0.550334 -0.174625,-0.550334 -0.04233,0 -0.275166,0.470959 -0.227542,0.465666 -0.370417,0.846666 l -0.0635,0.164042 0.418042,-0.03175 q 0.386291,-0.03175 0.486833,-0.0635 0.100541,-0.03704 0.100541,-0.148167 z"
         style="font-style:normal;font-variant:normal;font-weight:normal;font-stretch:normal;font-family:Purisa;-inkscape-font-specification:Purisa;stroke:none;stroke-width:0.26458332px"
         id="path1797" />
      <path
         d="m 20.471271,36.502346 q 0.169333,0 0.41275,-0.04233 0.248708,-0.04762 0.407458,-0.04762 0.06879,0 0.09525,0.0053 0.211667,0.02646 0.306917,0.04233 0.09525,0.01588 0.243417,0.05292 0.153458,0.03175 0.216958,0.07937 0.06879,0.04763 0.142875,0.127 0.07937,0.07937 0.105833,0.195792 0.02646,0.111125 0.02646,0.269875 0,0.232833 -0.0635,0.486833 -0.0635,0.248709 -0.127,0.248709 -0.06879,0 -0.06879,0.100541 0,0.121709 -0.3175,0.41275 -0.3175,0.291042 -0.497417,0.328084 -0.216958,0.05821 -0.248708,0.116416 -0.03704,0.06879 -0.343958,0.06879 h -0.312209 l 0.05292,0.9525 q 0.02117,0.365125 0.02117,0.640292 0,0.338666 -0.05821,0.423333 -0.08996,0.105833 -0.153458,0.105833 -0.116417,0 -0.148167,-0.238125 -0.05292,-0.407458 -0.132291,-1.545166 -0.07938,-1.137709 -0.07938,-1.529292 v -0.566208 l -0.15875,0.111125 q -0.105833,0.07408 -0.185208,0.07408 -0.03175,0 -0.06879,-0.03704 -0.03175,-0.03704 -0.03175,-0.08996 0,-0.148167 0.301625,-0.465667 0.169333,-0.179916 0.254,-0.238125 0.08467,-0.05821 0.174625,-0.05821 0.02646,0 0.08996,0.01058 0.0635,0.0053 0.142875,0.0053 z m 1.153583,0.396875 q -0.280458,-0.0635 -0.386291,-0.0635 -0.105834,0 -0.486834,0.07937 -0.280458,0.05821 -0.34925,0.142875 -0.06879,0.08467 -0.06879,0.386292 0,0.306916 0.03704,0.66675 0.03704,0.359833 0.07937,0.407458 0.02117,0.02646 0.121709,0.02646 0.169333,0 0.455083,-0.07408 0.28575,-0.07937 0.460375,-0.174625 0.105833,-0.05821 0.179917,-0.137583 0.07408,-0.08467 0.07937,-0.148167 0.01588,-0.116417 0.185208,-0.338667 0.174625,-0.227541 0.174625,-0.370416 0,-0.296334 -0.481542,-0.402167 z"
         style="font-style:normal;font-variant:normal;font-weight:normal;font-stretch:normal;font-family:Purisa;-inkscape-font-specification:Purisa;stroke:none;stroke-width:0.26458332px"
         id="path1799" />
      <path
         d="m 24.76488,40.090096 q 0.0053,0 0.03175,-0.01588 0.02646,-0.02117 0.06879,-0.04233 0.04763,-0.02117 0.100541,-0.02117 0.08467,0 0.142875,0.04763 0.0635,0.04233 0.0635,0.116417 0,0.116416 -0.174625,0.22225 -0.174625,0.100541 -0.661458,0.28575 -0.3175,0.121708 -0.455083,0.121708 -0.08467,0 -0.227542,-0.04233 -0.153458,-0.04233 -0.211667,-0.08996 -0.05821,-0.04762 -0.05821,-0.121708 0,-0.07937 0.04233,-0.105833 0.04233,-0.02646 0.164042,-0.02646 0.185208,0 0.470958,-0.121708 l 0.264584,-0.121708 -0.04763,-0.989542 q -0.04763,-0.989542 -0.04763,-1.566333 v -0.566209 l -0.153459,0.04233 q -0.259291,0.07408 -0.502708,0.07408 -0.306917,0 -0.306917,-0.116417 0,-0.06879 0.185209,-0.148166 0.185208,-0.08467 0.470958,-0.174625 0.291042,-0.08996 0.370417,-0.121709 0.05821,-0.02646 0.343958,-0.02646 0.365125,0 0.465667,0.03704 0.03704,0.01588 0.06879,0.06879 0.03175,0.05292 0.03175,0.100542 0,0.09525 -0.08996,0.142875 -0.08996,0.04233 -0.34925,0.07408 l -0.15875,0.02117 0.01058,0.92075 q 0.03704,2.143125 0.148167,2.143125 z"
         style="font-style:normal;font-variant:normal;font-weight:normal;font-stretch:normal;font-family:Purisa;-inkscape-font-specification:Purisa;stroke:none;stroke-width:0.26458332px"
         id="path1801" />
    </g>
  </g>
</svg>
