<?xml version="1.0" encoding="UTF-8" standalone="no"?>
<svg
   xmlns:dc="http://purl.org/dc/elements/1.1/"
   xmlns:cc="http://creativecommons.org/ns#"
   xmlns:rdf="http://www.w3.org/1999/02/22-rdf-syntax-ns#"
   xmlns:svg="http://www.w3.org/2000/svg"
   xmlns="http://www.w3.org/2000/svg"
   xmlns:xlink="http://www.w3.org/1999/xlink"
   xmlns:sodipodi="http://sodipodi.sourceforge.net/DTD/sodipodi-0.dtd"
   xmlns:inkscape="http://www.inkscape.org/namespaces/inkscape"
   id="svg8"
   version="1.1"
   viewBox="0 0 352.96878 209.60791"
   height="209.60791mm"
   width="352.96878mm"
   sodipodi:docname="3d.svg"
   inkscape:version="0.92.3 (2405546, 2018-03-11)">
  <sodipodi:namedview
     pagecolor="#ffffff"
     bordercolor="#666666"
     borderopacity="1"
     objecttolerance="10"
     gridtolerance="10"
     guidetolerance="10"
     inkscape:pageopacity="0"
     inkscape:pageshadow="2"
     inkscape:window-width="2560"
     inkscape:window-height="1311"
     id="namedview7"
     showgrid="false"
     inkscape:zoom="1.1893651"
     inkscape:cx="829.82018"
     inkscape:cy="284.85834"
     inkscape:window-x="0"
     inkscape:window-y="55"
     inkscape:window-maximized="1"
     inkscape:current-layer="svg8"
     showguides="true"
     inkscape:guide-bbox="true"
     fit-margin-top="0"
     fit-margin-left="0"
     fit-margin-right="0"
     fit-margin-bottom="0">
    <sodipodi:guide
       position="183.10706,9.6952236e-06"
       orientation="0,1"
       id="guide821"
       inkscape:locked="false" />
    <sodipodi:guide
       position="207.67509,209.60791"
       orientation="0,1"
       id="guide823"
       inkscape:locked="false" />
  </sodipodi:namedview>
  <defs
     id="defs2">
    <linearGradient
       inkscape:collect="always"
       id="linearGradient825">
      <stop
         style="stop-color:#363737;stop-opacity:1"
         offset="0"
         id="stop821" />
      <stop
         style="stop-color:#005573;stop-opacity:0.99607843"
         offset="1"
         id="stop823" />
    </linearGradient>
    <linearGradient
       inkscape:collect="always"
       xlink:href="#linearGradient825"
       id="linearGradient827"
       x1="98.406006"
       y1="215.66284"
       x2="98.406006"
       y2="-2.3567541"
       gradientUnits="userSpaceOnUse"
       gradientTransform="matrix(1.129547,0,0,0.9572737,7.1071662,2.256051)" />
  </defs>
  <metadata
     id="metadata5">
    <rdf:RDF>
      <cc:Work
         rdf:about="">
        <dc:format>image/svg+xml</dc:format>
        <dc:type
           rdf:resource="http://purl.org/dc/dcmitype/StillImage" />
        <dc:title></dc:title>
      </cc:Work>
    </rdf:RDF>
  </metadata>
  <rect
     style="color:#000000;overflow:visible;opacity:1;fill:url(#linearGradient827);fill-opacity:1;stroke:none;stroke-width:0.5199244;stroke-linecap:round;stroke-linejoin:miter;stroke-miterlimit:4;stroke-dasharray:none;stroke-dashoffset:0;stroke-opacity:1"
     id="rect819"
     width="188.6953"
     height="209.60791"
     x="0"
     y="2.1365366e-08" />
  <path
     style="color:#000000;overflow:visible;opacity:1;fill:#000000;fill-opacity:1;stroke:none;stroke-width:0.28439623;stroke-linecap:round;stroke-linejoin:round;stroke-miterlimit:4;stroke-dasharray:none;stroke-dashoffset:0;stroke-opacity:1"
     d="M 180.41147,0 H 352.9688 V 209.6079 H 180.41147 Z"
     id="rect881"
     inkscape:connector-curvature="0" />
  <path
     style="fill:#999999;fill-rule:evenodd;stroke:none;stroke-width:0.26458332px;stroke-linecap:butt;stroke-linejoin:miter;stroke-opacity:1"
     d="m 275.76008,180.68996 11.81044,1.04348 18.21548,-3.74136 16.27629,-12.07691 7.77515,-15.39105 0.98799,-17.12706 -5.32978,-14.73705 -10.58001,-13.54754 -16.03493,-7.111581 -17.33771,-1.693799 -15.49175,4.76989 -12.40581,10.40267 -7.98265,16.19854 -0.69467,15.26866 5.15733,18.27832 15.28599,14.72274 z"
     id="path853"
     inkscape:connector-curvature="0" />
  <path
     style="color:#000000;font-style:normal;font-variant:normal;font-weight:normal;font-stretch:normal;font-size:medium;line-height:normal;font-family:sans-serif;font-variant-ligatures:normal;font-variant-position:normal;font-variant-caps:normal;font-variant-numeric:normal;font-variant-alternates:normal;font-feature-settings:normal;text-indent:0;text-align:start;text-decoration:none;text-decoration-line:none;text-decoration-style:solid;text-decoration-color:#000000;letter-spacing:normal;word-spacing:normal;text-transform:none;writing-mode:lr-tb;direction:ltr;text-orientation:mixed;dominant-baseline:auto;baseline-shift:baseline;text-anchor:start;white-space:normal;shape-padding:0;clip-rule:nonzero;display:inline;overflow:visible;visibility:visible;opacity:1;isolation:auto;mix-blend-mode:normal;color-interpolation:sRGB;color-interpolation-filters:linearRGB;solid-color:#000000;solid-opacity:1;vector-effect:none;fill:#ececec;fill-opacity:1;fill-rule:evenodd;stroke:none;stroke-width:0.45507509;stroke-linecap:round;stroke-linejoin:miter;stroke-miterlimit:4;stroke-dasharray:none;stroke-dashoffset:0;stroke-opacity:1;color-rendering:auto;image-rendering:auto;shape-rendering:auto;text-rendering:auto;enable-background:accumulate"
     d="m 78.586086,43.766746 -6.21e-4,0.0025 a 0.22756028,0.22756028 0 0 0 -0.07983,0.01547 0.22756028,0.22756028 0 0 0 -0.01361,-0.0012 l -6.18e-4,-0.0037 a 0.22756028,0.22756028 0 0 0 -0.158421,0.06126 0.22756028,0.22756028 0 0 0 -0.0068,0.0074 0.22756028,0.22756028 0 0 0 -0.0031,0.0037 l -8.381434,2.888699 a 0.22756028,0.22756028 0 0 0 -0.08107,0.02723 l -0.06993,0.02475 -0.01795,0.07055 a 0.22756028,0.22756028 0 0 0 -0.02475,0.09406 l -1.596581,6.198818 a 0.22756028,0.22756028 0 0 0 -0.02475,0.207927 l -0.04456,6.340532 -0.179458,-0.01857 0.509914,0.941243 3.433887,6.358477 -12.686012,9.523791 a 0.22756028,0.22756028 0 0 0 -0.05198,0.03404 l -18.009191,11.054159 -0.239487,0.05013 0.08973,0.193073 -5.791628,29.802225 -0.14357,0.0173 0.08849,0.1906 -4.338616,10.37406 a 0.22756028,0.22756028 0 0 0 -0.02847,0.2531 l 3.159748,25.07994 4.247024,3.03351 3.439457,-3.0366 5.850417,-22.15411 0.05879,-0.16214 -0.05879,-0.0353 -0.941239,-12.80173 0.19122,-0.22402 -0.02537,-0.005 4.637512,-6.12208 7.177188,13.51648 a 0.22756028,0.22756028 0 0 0 0.008,0.0285 l 1.891144,9.84 -3.316928,10.90131 -0.256816,0.32428 0.222781,0.007 -0.554472,12.53686 a 0.22756028,0.22756028 0 0 0 -0.06807,0.36636 l 0.04951,0.052 -0.661529,14.94412 0.02166,1.56564 -0.141092,0.67637 -0.0043,6.2e-4 0.0012,0.0167 a 0.22756028,0.22756028 0 0 0 0.0087,0.10953 l 0.178223,2.31071 0.224637,16.19849 1.089759,0.7921 a 0.22756028,0.22756028 0 0 0 0.277235,0.0817 l 5.365255,-0.0916 a 0.22756028,0.22756028 0 0 0 0.273522,-0.0712 l 1.742007,-1.06747 4.608426,-20.34343 7.763841,-15.24859 a 0.22895743,0.22895743 0 0 0 0.0012,-6.2e-4 0.22895743,0.22895743 0 0 0 0.02723,-0.052 0.22756028,0.22756028 0 0 0 0,-6.1e-4 0.22756028,0.22756028 0 0 0 0.02475,-0.11635 l 1.261794,-7.00206 1.259937,7.01692 a 0.22756028,0.22756028 0 0 0 0.02475,0.11633 0.22756028,0.22756028 0 0 1 0,0.001 0.22895743,0.22895743 0 0 0 0.02785,0.0514 0.22895743,0.22895743 0 0 1 6.17e-4,0.001 l 7.757033,15.25166 4.597907,20.3459 1.740768,1.06873 a 0.22756028,0.22756028 0 0 0 0.274143,0.0712 l 5.364637,0.0941 a 0.22756028,0.22756028 0 0 0 0.277235,-0.0811 l 1.090999,-0.79149 0.23206,-16.18859 0.18441,-2.33733 a 0.22756028,0.22756028 0 0 0 0.003,-0.10024 l -0.14233,-0.68628 0.0223,-1.56626 -0.6541,-14.9435 0.0495,-0.0526 a 0.22756028,0.22756028 0 0 0 -0.0675,-0.36634 l -0.54828,-12.53626 0.22278,-0.007 -0.256819,-0.32427 -3.311359,-10.90317 1.896715,-9.83939 a 0.22756028,0.22756028 0 0 0 0.0087,-0.0285 l 7.183383,-13.51278 4.63441,6.12518 -0.0247,0.005 0.19122,0.2234 -0.94867,12.80111 -0.0588,0.0353 0.0588,0.16213 5.83928,22.15597 3.43822,3.03907 4.24827,-3.03102 3.17273,-25.07808 a 0.22756028,0.22756028 0 0 0 -0.0285,-0.2531 l -4.33304,-10.37716 0.0885,-0.18998 -0.14357,-0.018 -5.77678,-29.804707 0.0897,-0.192456 -0.2401,-0.05075 -18.003619,-11.06406 a 0.22756028,0.22756028 0 0 0 -0.05074,-0.03404 l -12.681064,-9.529982 3.437601,-6.356621 0.509917,-0.941239 -0.179462,0.01856 -0.04084,-6.340529 a 0.22756028,0.22756028 0 0 0 -0.02475,-0.207927 l -1.592808,-6.19891 a 0.22756028,0.22756028 0 0 0 -0.02475,-0.09406 l -0.01795,-0.07054 -0.07117,-0.02475 a 0.22756028,0.22756028 0 0 0 -0.08107,-0.02723 l -8.349245,-2.88252 a 0.22756028,0.22756028 0 0 0 -0.01795,-0.02475 0.22756028,0.22756028 0 0 0 -0.0068,-0.0074 0.22756028,0.22756028 0 0 0 -0.0087,-0.01052 0.22756028,0.22756028 0 0 0 -0.0068,-0.0074 0.22756028,0.22756028 0 0 0 -0.158421,-0.06003 z m -0.326742,0.587889 0.0037,5.928391 -7.653685,-3.292177 z m 0.558182,0.01423 7.649357,2.641167 -7.656781,3.287842 z m -8.6828,2.912833 7.388828,3.179549 -8.849886,2.492027 z m 16.806801,0.01857 1.458583,5.672811 -8.849268,-2.496979 z m -8.678473,3.427699 0.0031,9.771323 -9.410546,-7.12459 z m 0.547048,0.01361 9.406833,2.652925 -9.414877,7.120258 z m -10.231734,2.994521 9.220565,6.981637 -9.264501,-0.965373 z m 19.916421,0.01918 0.04023,6.016885 -9.264505,0.960424 z m -19.783373,6.471723 9.198288,0.959188 -0.216589,0.164609 0.411519,-0.0427 -5.038512,6.953175 z m 19.645994,0.0198 -4.359038,8.031793 -5.057078,-6.986589 0.434417,0.04518 -0.18379,-0.139236 z m -10.090021,1.610198 0.0037,9.002119 -4.888139,-2.261205 z m 0.53343,0.01547 4.880092,6.742771 -4.888137,2.25873 z m -6.729774,5.51192 0.745688,1.37566 a 0.22756028,0.22756028 0 0 0 0.0427,0.07859 l 0.01485,0.02537 0.02475,0.01237 a 0.22756028,0.22756028 0 0 0 0.0823,0.03775 l 0.907825,0.419567 -6.18892,12.510267 -8.034268,-5.142477 z m 12.923025,0.01733 12.400733,9.323909 -8.036746,5.138146 -6.182729,-12.512742 0.907204,-0.419567 a 0.22756028,0.22756028 0 0 0 0.08292,-0.03775 l 0.02599,-0.01238 0.013,-0.02599 a 0.22756028,0.22756028 0 0 0 0.0427,-0.07797 z m -10.690288,2.123823 3.707409,1.71416 -9.363514,9.715011 z m 8.45631,0.01671 5.650537,11.432263 -9.358565,-9.719342 z m -4.48899,2.085456 0.0062,15.114301 -10.098686,-4.641226 0.304465,-0.309414 -0.01052,0.0037 z m 0.521672,0.01547 9.791747,10.170466 -0.01052,-0.0031 0.305083,0.308796 -10.10054,4.635655 z m -19.529034,5.342356 7.935876,5.077499 -24.764955,5.252012 z m 38.532684,0.02537 16.823506,10.336935 -24.762475,-5.264385 z m -29.867827,5.474169 10.088164,4.636893 -17.807448,19.162694 z m 21.199874,0.02042 7.706908,23.803287 L 79.037832,87.136824 Z M 67.095651,82.553763 47.974425,101.93304 41.51446,87.975332 Z m 22.865766,0.02042 25.578713,5.435181 -6.46739,13.953996 z M 67.278826,83.012314 59.534787,106.89172 48.30612,102.24678 Z m 22.499419,0.02042 18.962805,19.244376 -11.231145,4.63875 z m -11.500955,4.475378 0.0087,22.854008 -18.162659,-3.31445 z m 0.501252,0.01485 18.144092,19.548838 -18.164516,3.30579 z m -37.502951,1.023542 6.364047,13.749786 -11.889577,14.7003 z m 74.503409,0.03342 5.51068,28.453186 -11.88153,-14.7065 z m -67.480925,14.156356 10.840661,4.48775 -7.690819,4.08552 z m 60.450395,0.0303 -3.15417,8.57203 -7.688344,-4.08984 z m -60.715873,0.56437 3.036597,8.26138 -4.502607,5.94572 z m 60.981353,0.0303 1.45859,14.20771 -4.50014,-5.94819 z m -61.467137,0.2104 -1.491997,14.48433 -5.121436,-1.0124 z m 61.952927,0.0303 6.60662,13.47564 -5.12267,1.00993 z m -62.694901,0.44803 -6.354765,12.94778 -4.56944,0.55881 z m 63.436871,0.0316 10.9174,13.51154 -4.56944,-0.56066 z m -50.251464,3.40543 17.710913,3.23091 -13.531334,11.88525 z m 37.0642,0.0241 -4.187623,15.1143 -13.525147,-11.89205 z m -37.62919,0.0767 -0.916488,17.08528 -6.875201,-12.9484 z m 38.19418,0.0248 7.788594,4.14121 -6.880768,12.94468 z m -37.794416,0.99013 3.951228,14.28569 -4.837394,2.24696 z m 37.393416,0.0241 0.877501,16.53328 -4.83492,-2.24945 z m -18.932483,2.18447 0.0037,10.19646 -0.01547,-10e-4 0.01547,0.0198 v 0.0254 l -13.538761,1.64732 z m 0.47093,0.0155 13.529478,11.89391 -13.538141,-1.65413 v -0.0551 l 0.01485,-0.0186 -0.01485,10e-4 z m -38.421914,6.64376 -1.078,8.26076 -3.567554,-7.69267 z m 0.457937,0.009 5.037894,0.99632 -6.101044,7.15058 z m 75.911244,0.0254 4.64494,0.56995 -3.57127,7.69081 z m -0.45794,0.009 1.05882,8.14751 -6.09733,-7.15367 z m -80.884155,0.90225 3.694414,7.96744 -7.728566,1.67517 z m 86.314395,0.0365 4.02981,9.64509 -7.72732,-1.67951 z m -75.606784,0.44618 0.88431,12.01582 -7.316428,-4.47785 z m 64.899174,0.0309 6.4284,7.54168 -7.3189,4.47414 z m -32.679174,2.61332 6.18e-4,1.23023 -0.0087,10.17852 -11.603063,2.01553 z m 0.457315,0.0155 11.605538,13.42923 -11.601824,-2.02172 -0.0043,-9.84187 z m -1.10028,0.0316 -11.535608,13.3395 -1.800176,-11.71693 z m 1.743246,0.0155 13.335783,1.62938 -1.806364,11.71631 z m -15.690435,1.82246 -3.055781,11.03126 -1.694976,-8.82452 z m 29.637002,0.0223 4.749521,2.20923 -1.699306,8.82327 z m -29.351721,0.64606 1.696832,11.01579 -4.777366,0.10397 z m 29.066441,0.0217 3.074966,11.12223 -4.777365,-0.10644 z m -54.099966,2.75318 -4.797168,25.10902 -2.95182,-23.42952 z m 79.131632,0.0346 7.74774,1.68446 -2.96356,23.42704 z m -78.522087,0.0136 7.375835,4.51375 -8.529333,23.43075 1.043348,-27.62889 0.05446,0.11634 z m 77.912537,0.0347 0.0557,0.43194 0.0545,-0.11634 1.02911,27.63014 -8.51695,-23.43571 z m -78.569114,2.57742 -0.988271,26.34236 -3.556414,-2.5403 z m 79.225074,0.0353 4.5317,23.80391 -3.55704,2.53844 z m -39.848928,3.84403 -0.01485,17.07847 -11.974359,-14.98992 z m 0.470313,0.0136 11.988592,2.09474 -11.982404,14.98497 z m -13.17551,2.14549 -7.751462,9.79484 2.948724,-9.68964 z m 25.879468,0.0217 4.80212,0.10767 2.945011,9.69026 z m -25.437003,0.29394 11.866681,14.85563 -16.476345,-4.31324 z m 24.994541,0.0217 4.604095,10.54362 -16.478206,4.30582 z m -45.297114,0.20854 -4.539735,17.19234 -2.530396,2.23397 z m 65.599063,0.0309 7.06085,19.43002 -2.52916,-2.2346 z m -46.26434,0.8218 -4.094799,9.36537 -3.241431,-0.0978 z m 26.930239,0.021 7.330659,9.27193 -3.241431,0.0959 z m -34.507813,9.69335 3.41161,0.10397 -2.04709,14.69659 -1.927654,-2.03533 z m 42.079816,0.026 0.556948,12.76522 -1.929512,2.03409 -2.039045,-14.69721 z m -38.224505,0.16893 16.562982,4.33553 -18.606359,10.35117 z m 34.369195,0.0229 2.03595,14.68793 -18.601407,-10.36045 z m -17.731952,4.78913 -5.382582,10.87903 -0.04765,0.0371 -12.749133,-0.80262 z m 1.091616,0.0155 18.174416,10.1222 -12.749134,0.79643 -0.04765,-0.0371 z m -1.07367,0.97094 -1.183822,6.56146 -3.383763,2.67272 z m 1.056342,0.0155 4.562014,9.23604 -3.381906,-2.67459 z m -22.157823,7.39316 1.868246,1.97098 -2.478412,11.85739 z m 43.254355,0.026 0.60398,13.82838 -2.472847,-11.85864 z m -24.027311,0.25496 -9.018826,14.33334 5.852274,-11.83141 z m 4.800264,0.0155 3.166555,2.50379 5.845465,11.83388 z m -21.448645,1.86206 12.883421,0.8082 -7.39873,14.94969 z m 38.096407,0.0241 -5.492732,15.75541 -7.390688,-14.95341 z m -38.264728,0.85955 5.297805,15.23869 -6.229761,0.0897 z m 38.431814,0.0241 0.925151,15.32903 -6.229761,-0.0928 z m -23.189415,0.57117 -5.505729,10.80663 -3.038454,2.76865 z m 7.947013,0.0173 8.53738,13.5796 -3.0366,-2.7705 z m -23.709849,0.44556 -0.853367,14.04558 -1.64423,-1.34348 -0.0099,-0.71413 z m 39.473306,0.0248 2.501314,11.98921 -0.01,0.71351 -1.645473,1.34286 z m -29.414842,11.11666 -4.071904,17.98691 0.321793,-14.22318 0.04456,-0.38801 z m 19.349573,0.0192 3.703696,3.37757 0.14357,1.24942 0.137997,13.02018 z m -31.897589,2.13682 1.605246,1.30758 -0.637395,14.46825 -0.913392,-11.8246 z m 44.444982,0.026 -0.0563,3.91596 -0.925149,11.72125 -0.624402,-14.33086 z m -36.137188,1.31378 -6.958125,16.09205 0.703609,-16.00542 z m 27.826924,0.0216 6.256369,0.0897 0.698042,16.04131 z m -27.865294,0.86142 -1.853395,16.07101 -5.108442,0.0885 0.0025,-0.0625 z m 27.905517,0.0291 6.952554,16.12609 0.0012,0.0291 -5.10906,-0.0903 z m -27.769991,2.75998 -0.278475,12.31534 -1.230233,0.75373 z m 27.688924,0.51177 1.446205,12.57958 -1.243227,-0.76116 -0.08169,-0.36202 z m 8.224868,3.33983 -0.12748,8.89259 -0.609547,0.44493 z m -44.194974,0.10025 0.710414,9.19643 -0.589125,-0.43009 z"
     id="path829-3"
     inkscape:connector-curvature="0" />
  <path
     style="fill:#e6e6e6;fill-rule:evenodd;stroke:none;stroke-width:0.26458332px;stroke-linecap:butt;stroke-linejoin:miter;stroke-opacity:1"
     d="m 224.56355,196.15681 1.74201,-1.06747 4.60843,-20.34343 7.79227,-15.30182 1.27694,-8.11632 1.57302,8.08135 7.76675,15.41553 4.48308,20.05591 1.82863,1.06178 5.38757,0.0983 1.33706,-0.8455 -0.13994,-18.28219 -0.16527,-17.26384 -0.89421,-13.55163 -3.55018,-10.85703 1.96974,-10.08035 7.65183,-13.0813 4.80091,6.35358 -0.94867,12.80111 6.24589,22.10885 2.94266,2.82242 3.87252,-2.79383 3.16964,-24.78047 -3.94879,-10.91184 -5.77678,-29.804707 -18.20483,-11.341306 -12.68107,-9.529982 3.31577,-7.230483 0.3867,-6.597275 -1.78775,-6.415489 -8.81089,-2.907223 -8.38143,2.888699 -1.08604,6.633824 -0.32118,6.377662 3.53661,7.632028 -12.40507,9.317096 -18.56675,10.896396 -5.99647,30.25333 -3.90047,10.69971 3.15727,24.78288 3.55641,2.5403 3.66594,-2.31888 5.85042,-22.35155 -0.94124,-12.80173 5.14249,-6.67725 6.83806,13.84263 1.89914,9.8685 -3.35096,11.23259 -0.57303,12.95522 -0.78097,17.18613 0.40846,18.63605 1.367,0.8738 z"
     id="path12"
     inkscape:connector-curvature="0" />
  <path
     style="color:#000000;font-style:normal;font-variant:normal;font-weight:normal;font-stretch:normal;font-size:medium;line-height:normal;font-family:sans-serif;font-variant-ligatures:normal;font-variant-position:normal;font-variant-caps:normal;font-variant-numeric:normal;font-variant-alternates:normal;font-feature-settings:normal;text-indent:0;text-align:start;text-decoration:none;text-decoration-line:none;text-decoration-style:solid;text-decoration-color:#000000;letter-spacing:normal;word-spacing:normal;text-transform:none;writing-mode:lr-tb;direction:ltr;text-orientation:mixed;dominant-baseline:auto;baseline-shift:baseline;text-anchor:start;white-space:normal;shape-padding:0;clip-rule:nonzero;display:inline;overflow:visible;visibility:visible;opacity:1;isolation:auto;mix-blend-mode:normal;color-interpolation:sRGB;color-interpolation-filters:linearRGB;solid-color:#000000;solid-opacity:1;vector-effect:none;fill:#ececec;fill-opacity:1;fill-rule:evenodd;stroke:none;stroke-width:0.60423672;stroke-linecap:round;stroke-linejoin:round;stroke-miterlimit:4;stroke-dasharray:none;stroke-dashoffset:0;stroke-opacity:1;color-rendering:auto;image-rendering:auto;shape-rendering:auto;text-rendering:auto;enable-background:accumulate"
     d="m 120.99589,96.004237 a 0.30214855,0.30214855 0 0 0 -0.0698,0.01085 0.30214855,0.30214855 0 0 0 -0.0181,0.0057 l -3.04219,0.936376 0.11575,0.597379 2.70578,-0.833025 -0.0946,2.624122 -2.22312,0.21033 0.11524,0.596341 0.85834,-0.0811 -0.79478,0.40721 0.11937,0.61754 2.2071,-1.130681 5.64202,3.293341 -7.20213,1.17408 0.11472,0.59325 6.9608,-1.13482 -6.15051,5.31544 0.13281,0.6842 7.08327,-6.12314 6.42854,2.38332 -13.27565,4.95886 0.11679,0.60255 13.45186,-5.02605 -4.28914,11.0293 -8.60617,-3.13366 0.13385,0.69092 7.67547,2.79621 -6.21872,2.34714 0.20619,0.56896 6.51638,-2.45928 -4.06795,12.43593 -0.50592,3.95687 0.40205,-1.59215 19.61687,4.49636 -21.69323,10.18491 -0.0915,0.71262 22.30921,-10.47688 -2.78846,15.90032 -19.6334,-4.54184 -0.077,0.60151 18.91199,4.377 -24.40623,9.22889 2.19728,-8.35195 -0.77153,0.55656 -2.01538,7.6662 a 0.30214855,0.30214855 0 0 0 -0.004,0.0176 l -0.0372,0.18552 -16.49615,-6.14278 0.0439,0.66094 15.70447,5.84719 -15.02699,4.57078 -0.5395,-3.3507 0.0372,3.92844 0.0331,0.0233 2.80861,4.7904 -2.82153,-2.71766 0.008,0.84594 3.97185,3.82561 a 0.30214855,0.30214855 0 0 0 0.0119,0.0114 0.30214855,0.30214855 0 0 0 0.12816,0.0729 l 10.2185,4.68292 a 0.30214855,0.30214855 0 0 0 0.26716,0.0672 l 11.71606,1.03508 a 0.30214855,0.30214855 0 0 0 0.27544,-0.12351 l 18.02731,-3.62304 a 0.30214855,0.30214855 0 0 0 0.11937,-0.0522 l 16.25586,-12.06283 a 0.30265658,0.30265658 0 0 0 0.11162,-0.12144 l 7.7618,-15.36702 a 0.30214855,0.30214855 0 0 0 0.0408,-0.10903 0.30214855,0.30214855 0 0 0 0.004,-0.0336 l 0.98857,-17.12712 a 0.30214855,0.30214855 0 0 0 -0.0176,-0.12093 l -5.33042,-14.73656 a 0.30214855,0.30214855 0 0 0 -0.047,-0.0842 l -10.57972,-13.54646 a 0.30214855,0.30214855 0 0 0 -0.11523,-0.0899 l -16.0135,-7.101893 a 0.30214855,0.30214855 0 0 0 -0.001,-5.16e-4 0.30214855,0.30214855 0 0 0 -0.0139,-0.0067 0.30220472,0.30220472 0 0 0 -0.003,-10e-4 0.30214855,0.30214855 0 0 0 -0.01,-0.0047 0.30214855,0.30214855 0 0 0 -0.001,-5.16e-4 0.30214855,0.30214855 0 0 0 -0.0274,-0.0098 0.30214855,0.30214855 0 0 0 -0.001,-5.16e-4 0.30214855,0.30214855 0 0 0 -0.015,-0.0036 0.30220472,0.30220472 0 0 0 -0.007,-0.0016 0.30214855,0.30214855 0 0 0 -0.0196,-0.0036 0.30220472,0.30220472 0 0 0 -5.2e-4,0 0.30220472,0.30220472 0 0 0 -0.003,-5.16e-4 0.30214855,0.30214855 0 0 0 -0.0139,-0.0021 0.30214855,0.30214855 0 0 0 -5.2e-4,0 0.30214855,0.30214855 0 0 0 -0.0114,-0.001 l -17.29901,-1.689547 a 0.30214855,0.30214855 0 0 0 -0.047,-0.0041 0.30214855,0.30214855 0 0 0 -0.009,-5.16e-4 0.30214855,0.30214855 0 0 0 -0.008,5.16e-4 z m 0.29869,0.635103 13.86269,1.353405 -13.95778,1.296046 z m 15.45898,1.812293 -9.34619,4.627107 -5.55572,-3.244761 z m 0.96893,0.19327 -3.15278,7.033167 a 0.30214855,0.30214855 0 0 0 -0.006,0.0139 l -0.0217,0.0568 -6.38876,-2.3673 z m 0.64492,0.03979 4.67775,8.695077 -7.91476,-1.47484 z m 1.82108,0.465087 13.59245,6.02858 -3.38274,2.50992 z m -0.83561,0.09095 10.24279,8.56537 -5.79913,-0.30644 z m 14.84405,6.38101 3.53106,13.8653 -6.90242,-11.36158 z m 0.82838,0.8108 9.4666,12.12071 -5.63893,2.78742 -0.0506,-0.0842 z m -20.11764,0.0444 7.97884,1.48673 -12.17806,9.30641 z m 9.06973,1.63556 6.10092,0.32453 -3.85041,11.83494 z m -0.57464,0.21859 2.36627,12.78062 -15.03733,-3.09904 z m 7.16907,0.54261 7.66,12.60543 -11.67164,-0.27337 z m -42.70744,6.00635 -4.41007,1.11983 -0.42839,0.73173 5.23378,-1.3286 z m 22.36553,3.64577 15.05283,3.10162 -19.57036,10.71511 z m 34.33589,0.66404 -2.81016,17.16794 -2.67994,-14.45286 z m 0.50281,0.66404 4.84674,13.40177 -7.72253,4.17649 z m -64.78309,1.5627 -0.30593,0.52296 6.76031,4.57285 -9.640239,3.74654 -0.136943,0.70125 9.894492,-3.84628 -5.6994,14.6818 -3.627685,-2.26136 0.293524,0.89658 2.861321,1.78439 -1.962669,0.96531 0.190169,0.58033 2.01125,-0.98909 -1.014411,6.85953 0.188101,2.84738 1.45314,-9.82473 12.54859,4.50515 -0.20257,-0.71623 -11.72693,-4.20801 9.49658,-3.68815 -0.16485,-0.58394 -9.6666,3.75481 5.72627,-14.74949 2.29443,0.82165 0.046,-0.62632 -1.63814,-0.58704 1.73013,-0.65319 0.0496,-0.66508 -1.89653,0.71572 2.07843,-3.17345 0.092,-1.24282 -3.01481,4.60489 z m 46.16149,0.39067 11.56415,0.27131 -11.7383,14.7655 z m -0.6072,0.20309 -0.1757,15.33653 -19.62359,-4.49636 z m 12.70879,0.36329 2.82205,15.22284 -14.78877,-0.1664 z m 11.07426,11.72641 -8.89455,18.97869 1.27692,-14.85956 z m 0.27285,0.84336 -0.88677,15.38614 -8.15403,3.90157 z m -23.68124,3.08457 14.8146,0.16795 -17.56482,15.51533 z m 15.14067,0.68936 -1.35547,15.7577 -16.19539,-0.2558 z m -46.11808,12.47004 -14.85956,5.53507 0.0419,0.62941 14.98254,-5.58157 z m 52.95023,0.20361 -13.1098,15.83211 5.32061,-12.10366 z m -0.37001,1.39733 -6.51278,12.89068 -6.30659,2.58537 z m -24.5892,2.02881 15.96079,0.2496 -20.79873,12.57856 z m -0.7276,0.21291 -4.89531,12.98267 -19.47682,-3.76566 z m 17.04392,0.5271 -5.70508,12.98267 -15.00942,-0.4532 z m -42.7617,9.1426 -1.67742,8.57208 h -0.004 l -13.14648,-4.06022 z m 0.60926,0.0196 18.94766,3.66386 -20.58993,4.74028 z m 42.01602,2.39055 -11.9414,8.85941 6.53294,-6.66626 a 0.30214855,0.30214855 0 0 0 0.11162,-0.0212 z m -21.45503,1.55443 14.71073,0.44338 -20.86746,8.28942 z m -0.85783,0.1664 -6.1991,8.79481 -14.92826,-3.93309 z m 15.64091,0.9002 -7.54682,7.70134 -12.42612,0.23048 z m -50.38914,0.23461 12.64884,3.90571 a 0.30214855,0.30214855 0 0 0 0.005,0.0289 l -0.0734,6.16499 z m -0.33176,0.50953 11.11559,8.92401 -8.04498,-3.68557 z m 13.58573,3.74551 14.24251,3.75274 -14.31589,2.35955 z m 27.72283,3.85041 -15.3417,3.08198 3.47472,-2.86132 z m -13.10153,0.45321 -3.49383,2.87889 -9.09762,-0.80305 z"
     id="path25"
     inkscape:connector-curvature="0" />
  <text
     xml:space="preserve"
     style="font-style:normal;font-weight:normal;font-size:5.29166698px;line-height:6.61458349px;font-family:Sans;letter-spacing:0px;word-spacing:0px;fill:#000000;fill-opacity:1;stroke:none;stroke-width:0.26458335px;stroke-linecap:butt;stroke-linejoin:miter;stroke-opacity:1"
     x="7.1423044"
     y="10.147675"
     id="text827"><tspan
       sodipodi:role="line"
       id="tspan825"
       x="7.1423044"
       y="10.147675"
       style="font-size:6.3499999px;fill:#ffffff;stroke-width:0.26458335px">Wireframe</tspan></text>
  <text
     id="text831"
     y="9.5815783"
     x="187.03552"
     style="font-style:normal;font-weight:normal;font-size:5.29166698px;line-height:6.61458349px;font-family:Sans;letter-spacing:0px;word-spacing:0px;fill:#000000;fill-opacity:1;stroke:none;stroke-width:0.26458335px;stroke-linecap:butt;stroke-linejoin:miter;stroke-opacity:1"
     xml:space="preserve"><tspan
       style="font-size:6.3499999px;fill:#ffffff;stroke-width:0.26458335px"
       y="9.5815783"
       x="187.03552"
       id="tspan829"
       sodipodi:role="line">Depth</tspan></text>
</svg>
